<svg version="1.1" xmlns="http://www.w3.org/2000/svg" viewBox="0 0 211.99993896484375 213.7143096923828" width="211.99993896484375" height="213.7143096923828">
  <!-- svg-source:excalidraw -->
  
  <defs>
    <style class="style-fonts">
      @font-face {
        font-family: "Virgil";
        src: url("https://excalidraw.com/Virgil.woff2");
      }
      @font-face {
        font-family: "Cascadia";
        src: url("https://excalidraw.com/Cascadia.woff2");
      }
    </style>
  </defs>
  <rect x="0" y="0" width="211.99993896484375" height="213.7143096923828" fill="#ffffff"/><g transform="translate(26 164.2856903076172) rotate(0 -5.14288330078125 7.14288330078125)" stroke="none"><path fill="#000000" d="M -1.40,2.11 Q -1.40,2.11 -2.84,1.07 -4.28,0.02 -5.61,-0.67 -6.93,-1.37 -8.80,-2.62 -10.68,-3.87 -11.66,-0.96 -12.64,1.94 -13.03,4.80 -13.42,7.66 -13.65,9.73 -13.88,11.79 -13.50,13.18 -13.12,14.57 -12.14,15.41 -11.17,16.25 -10.26,17.28 -9.34,18.30 -8.69,16.96 -8.03,15.63 -7.13,14.79 -6.23,13.95 -5.47,13.14 -4.72,12.33 -3.91,10.40 -3.10,8.48 -2.02,6.97 -0.94,5.47 1.11,5.30 3.16,5.13 3.99,6.22 4.82,7.31 5.00,8.36 5.19,9.42 5.49,10.91 5.80,12.40 7.35,15.30 8.89,18.20 8.87,18.72 8.84,19.24 8.65,19.73 8.46,20.22 8.13,20.62 7.79,21.02 7.34,21.29 6.90,21.57 6.39,21.68 5.87,21.80 5.35,21.75 4.83,21.69 4.36,21.48 3.88,21.26 3.50,20.90 3.11,20.55 2.86,20.09 2.62,19.62 2.53,19.11 2.44,18.59 2.52,18.07 2.60,17.56 2.84,17.09 3.08,16.63 3.46,16.26 3.84,15.90 4.31,15.68 4.79,15.45 5.31,15.39 5.83,15.33 6.34,15.44 6.85,15.55 7.30,15.82 7.76,16.09 8.10,16.48 8.44,16.88 8.64,17.36 8.83,17.85 8.87,18.37 8.90,18.90 8.76,19.40 8.62,19.91 8.33,20.34 8.04,20.78 7.63,21.10 7.21,21.42 6.72,21.59 6.22,21.76 5.70,21.76 5.17,21.77 4.68,21.60 4.18,21.44 3.76,21.13 3.34,20.81 3.04,20.38 2.75,19.95 2.60,19.44 2.46,18.94 2.46,18.94 2.46,18.94 1.76,17.91 1.05,16.87 0.43,15.72 -0.19,14.56 -0.31,13.45 -0.43,12.33 -0.39,10.60 -0.34,8.86 1.48,8.78 3.30,8.70 2.55,9.65 1.80,10.61 1.30,11.71 0.81,12.82 -0.52,14.85 -1.86,16.89 -3.13,17.86 -4.40,18.82 -5.29,19.74 -6.17,20.66 -7.54,21.46 -8.91,22.26 -10.72,21.62 -12.52,20.98 -13.27,19.98 -14.01,18.97 -15.38,17.36 -16.75,15.75 -17.26,13.69 -17.76,11.63 -17.76,9.45 -17.75,7.27 -17.59,4.00 -17.43,0.74 -16.93,-2.01 -16.43,-4.76 -15.74,-6.26 -15.05,-7.76 -13.81,-8.48 -12.56,-9.21 -10.97,-9.02 -9.37,-8.83 -8.41,-8.30 -7.45,-7.78 -6.11,-6.66 -4.77,-5.55 -3.20,-4.76 -1.62,-3.97 -0.10,-3.04 1.40,-2.11 1.64,-1.91 1.87,-1.71 2.05,-1.46 2.23,-1.21 2.34,-0.93 2.45,-0.64 2.49,-0.34 2.54,-0.04 2.50,0.26 2.47,0.56 2.37,0.85 2.26,1.14 2.09,1.39 1.92,1.65 1.70,1.86 1.47,2.06 1.20,2.21 0.93,2.36 0.64,2.43 0.34,2.51 0.04,2.52 -0.26,2.52 -0.56,2.45 -0.86,2.39 -1.13,2.25 -1.40,2.11 -1.40,2.11 L -1.40,2.11 Z"/></g><g transform="translate(48.857147216796875 145.4285430908203) rotate(0 9.714279174804688 18.571441650390625)" stroke="none"><path fill="#000000" d="M 2.03,-0.16 Q 2.03,-0.16 2.13,1.80 2.24,3.77 2.66,4.89 3.08,6.02 3.30,7.75 3.53,9.48 3.67,13.81 3.81,18.15 3.83,20.30 3.86,22.46 3.85,25.20 3.83,27.95 3.88,29.77 3.93,31.58 4.04,32.69 4.14,33.79 4.49,35.04 4.83,36.29 4.80,36.55 4.77,36.82 4.67,37.07 4.58,37.32 4.43,37.54 4.28,37.76 4.08,37.94 3.88,38.12 3.64,38.25 3.40,38.37 3.14,38.44 2.88,38.50 2.62,38.50 2.35,38.50 2.09,38.44 1.83,38.38 1.59,38.25 1.35,38.13 1.15,37.95 0.95,37.77 0.80,37.55 0.64,37.33 0.55,37.08 0.45,36.83 0.42,36.57 0.39,36.30 0.41,35.00 0.43,33.69 1.03,31.75 1.62,29.80 1.99,27.58 2.36,25.37 2.83,23.99 3.30,22.61 3.88,21.53 4.47,20.45 5.34,18.95 6.21,17.45 7.18,16.93 8.16,16.41 10.12,16.21 12.09,16.01 13.57,16.18 15.06,16.36 16.43,16.84 17.79,17.31 18.99,18.13 20.19,18.96 20.96,20.79 21.73,22.61 21.92,23.79 22.11,24.97 22.16,26.36 22.22,27.75 21.84,29.60 21.45,31.44 21.13,32.58 20.81,33.72 20.15,34.75 19.49,35.79 17.98,37.02 16.47,38.26 14.96,39.09 13.45,39.92 12.57,39.71 11.69,39.51 11.33,39.85 10.96,40.20 10.50,40.41 10.04,40.62 9.54,40.67 9.03,40.72 8.54,40.61 8.05,40.50 7.62,40.24 7.19,39.97 6.86,39.59 6.54,39.20 6.35,38.73 6.17,38.26 6.14,37.76 6.12,37.25 6.25,36.77 6.39,36.28 6.68,35.86 6.96,35.45 7.37,35.14 7.77,34.84 8.25,34.68 8.73,34.52 9.23,34.53 9.74,34.53 10.22,34.69 10.69,34.86 11.09,35.16 11.49,35.47 11.77,35.89 12.06,36.31 12.19,36.80 12.32,37.28 12.29,37.79 12.26,38.29 12.07,38.76 11.88,39.23 11.56,39.61 11.23,39.99 10.79,40.25 10.36,40.51 9.87,40.62 9.37,40.72 8.87,40.66 8.37,40.61 7.91,40.39 7.45,40.18 7.09,39.83 6.72,39.48 6.49,39.03 6.26,38.59 6.18,38.09 6.10,37.59 6.18,37.09 6.27,36.59 6.50,36.15 6.74,35.70 6.74,35.70 6.74,35.71 9.06,34.97 11.37,34.23 12.87,33.37 14.38,32.51 15.19,31.43 16.01,30.35 16.23,29.17 16.45,27.98 16.39,26.88 16.33,25.77 16.03,24.22 15.72,22.66 13.98,22.22 12.24,21.78 11.03,21.51 9.83,21.23 8.90,22.79 7.97,24.34 7.57,25.35 7.16,26.35 6.88,27.61 6.60,28.87 6.31,30.00 6.01,31.13 5.60,32.51 5.19,33.90 5.01,35.10 4.83,36.29 4.80,36.55 4.77,36.82 4.67,37.07 4.58,37.32 4.43,37.54 4.28,37.76 4.08,37.94 3.88,38.12 3.64,38.25 3.40,38.37 3.14,38.44 2.88,38.50 2.62,38.50 2.35,38.50 2.09,38.44 1.83,38.38 1.59,38.25 1.35,38.13 1.15,37.95 0.95,37.77 0.80,37.55 0.64,37.33 0.55,37.08 0.45,36.83 0.42,36.57 0.39,36.30 0.33,36.30 0.27,36.30 0.33,35.05 0.40,33.81 0.49,32.72 0.58,31.62 0.59,29.81 0.60,28.00 0.50,25.31 0.41,22.62 0.23,20.49 0.05,18.35 -0.27,14.14 -0.61,9.93 -0.72,8.55 -0.82,7.18 -1.20,5.64 -1.58,4.11 -1.81,2.14 -2.03,0.16 -2.02,-0.07 -2.01,-0.32 -1.94,-0.55 -1.88,-0.79 -1.75,-1.00 -1.63,-1.22 -1.46,-1.40 -1.29,-1.57 -1.08,-1.71 -0.87,-1.84 -0.64,-1.92 -0.41,-1.99 -0.16,-2.01 0.07,-2.04 0.32,-2.00 0.56,-1.96 0.78,-1.86 1.01,-1.77 1.21,-1.62 1.41,-1.47 1.56,-1.28 1.72,-1.09 1.82,-0.87 1.93,-0.65 1.98,-0.41 2.03,-0.16 2.03,-0.16 L 2.03,-0.16 Z"/></g><g transform="translate(115.14288330078125 163.14283752441406) rotate(0 -6.00006103515625 11.428619384765625)" stroke="none"><path fill="#000000" d="M -0.41,2.50 Q -0.41,2.50 -1.40,2.37 -2.39,2.24 -3.65,2.18 -4.90,2.12 -6.51,2.15 -8.12,2.19 -9.23,2.24 -10.35,2.30 -11.14,3.03 -11.94,3.77 -12.67,5.53 -13.40,7.29 -13.63,8.92 -13.85,10.56 -13.95,12.08 -14.05,13.61 -12.95,15.20 -11.85,16.80 -10.87,17.58 -9.90,18.37 -8.35,19.24 -6.80,20.10 -5.73,20.32 -4.65,20.55 -3.45,20.49 -2.25,20.42 -0.72,20.04 0.80,19.65 1.46,19.42 2.12,19.19 2.52,18.87 2.91,18.55 3.38,18.38 3.86,18.20 4.36,18.19 4.87,18.18 5.35,18.32 5.83,18.47 6.24,18.77 6.65,19.06 6.95,19.47 7.24,19.88 7.39,20.37 7.54,20.85 7.53,21.35 7.51,21.86 7.34,22.33 7.17,22.81 6.85,23.20 6.53,23.59 6.11,23.87 5.68,24.14 5.19,24.26 4.70,24.38 4.20,24.34 3.69,24.30 3.23,24.10 2.77,23.90 2.39,23.57 2.01,23.23 1.76,22.79 1.52,22.35 1.42,21.85 1.33,21.36 1.39,20.86 1.46,20.36 1.69,19.90 1.91,19.45 2.27,19.09 2.62,18.74 3.08,18.51 3.53,18.29 4.03,18.22 4.53,18.15 5.03,18.24 5.52,18.34 5.96,18.59 6.40,18.84 6.74,19.21 7.08,19.59 7.28,20.05 7.48,20.52 7.52,21.02 7.56,21.52 7.44,22.01 7.32,22.50 7.04,22.93 6.77,23.36 6.77,23.36 6.77,23.36 3.78,24.72 0.80,26.09 -1.16,26.22 -3.13,26.35 -4.35,26.24 -5.57,26.12 -6.75,25.74 -7.92,25.37 -9.33,24.48 -10.74,23.59 -11.88,22.86 -13.02,22.14 -14.42,20.95 -15.81,19.77 -16.83,18.33 -17.84,16.89 -18.37,15.24 -18.89,13.59 -18.87,11.87 -18.84,10.16 -18.76,8.03 -18.68,5.91 -18.16,4.16 -17.64,2.41 -16.53,0.86 -15.42,-0.69 -12.93,-2.06 -10.45,-3.43 -9.23,-3.36 -8.02,-3.30 -6.33,-3.17 -4.65,-3.05 -3.09,-2.98 -1.54,-2.90 -0.56,-2.70 0.41,-2.50 0.70,-2.41 1.00,-2.32 1.26,-2.17 1.53,-2.02 1.75,-1.80 1.96,-1.59 2.13,-1.33 2.29,-1.07 2.39,-0.78 2.48,-0.49 2.50,-0.19 2.53,0.11 2.48,0.41 2.43,0.71 2.31,0.99 2.19,1.27 2.00,1.51 1.82,1.76 1.58,1.95 1.34,2.14 1.06,2.27 0.79,2.40 0.49,2.46 0.19,2.52 -0.11,2.51 -0.41,2.50 -0.41,2.50 L -0.41,2.50 Z"/></g><g transform="translate(168.2857666015625 161.99998474121094) rotate(0 -7.714385986328125 11.714279174804688)" stroke="none"><path fill="#000000" d="M -0.43,2.59 Q -0.43,2.59 -1.42,2.46 -2.41,2.33 -3.88,2.33 -5.35,2.34 -6.60,2.32 -7.84,2.30 -9.01,2.35 -10.17,2.40 -11.55,2.47 -12.92,2.54 -13.66,3.39 -14.40,4.25 -14.05,5.40 -13.71,6.56 -13.69,7.88 -13.67,9.21 -13.64,10.55 -13.61,11.90 -12.91,13.11 -12.20,14.32 -11.13,15.48 -10.06,16.63 -8.72,17.53 -7.39,18.44 -5.65,19.19 -3.90,19.94 -2.68,19.86 -1.45,19.79 0.18,20.08 1.82,20.37 2.39,20.52 2.95,20.67 3.44,20.98 3.93,21.30 4.30,21.76 4.66,22.22 4.86,22.77 5.05,23.32 5.06,23.91 5.08,24.49 4.90,25.05 4.72,25.61 4.38,26.08 4.03,26.55 3.56,26.89 3.08,27.23 2.52,27.40 1.96,27.56 1.37,27.54 0.79,27.52 0.24,27.32 -0.30,27.11 -0.75,26.74 -1.20,26.37 -1.51,25.87 -1.83,25.38 -1.96,24.81 -2.10,24.24 -2.05,23.66 -1.99,23.08 -1.76,22.54 -1.52,22.00 -1.13,21.57 -0.74,21.14 -0.22,20.86 0.28,20.57 0.85,20.47 1.43,20.36 2.01,20.44 2.59,20.53 3.11,20.79 3.63,21.06 4.04,21.47 4.45,21.89 4.71,22.42 4.96,22.94 5.04,23.52 5.11,24.10 5.00,24.68 4.88,25.25 4.59,25.76 4.30,26.26 3.86,26.65 3.42,27.04 2.88,27.26 2.34,27.49 1.76,27.53 1.17,27.58 1.17,27.58 1.18,27.58 -0.22,27.29 -1.62,27.01 -3.24,26.96 -4.86,26.91 -6.01,26.58 -7.16,26.26 -8.49,25.88 -9.81,25.49 -10.87,24.82 -11.94,24.14 -12.86,23.47 -13.78,22.81 -14.54,21.72 -15.29,20.62 -16.70,19.42 -18.11,18.22 -18.73,16.76 -19.35,15.31 -20.01,13.60 -20.66,11.90 -20.64,10.55 -20.61,9.20 -20.58,7.86 -20.55,6.51 -20.53,5.18 -20.50,3.84 -20.28,2.51 -20.07,1.17 -18.98,0.12 -17.88,-0.92 -17.00,-1.76 -16.11,-2.59 -14.52,-3.14 -12.92,-3.68 -11.54,-3.61 -10.16,-3.54 -8.99,-3.49 -7.82,-3.43 -5.79,-3.39 -3.75,-3.35 -2.64,-3.17 -1.52,-2.98 -0.54,-2.79 0.43,-2.59 0.73,-2.50 1.04,-2.41 1.31,-2.25 1.59,-2.09 1.81,-1.87 2.04,-1.65 2.21,-1.38 2.38,-1.11 2.48,-0.81 2.58,-0.51 2.60,-0.19 2.63,0.11 2.57,0.43 2.52,0.74 2.40,1.03 2.27,1.32 2.08,1.57 1.89,1.83 1.64,2.03 1.39,2.23 1.11,2.36 0.82,2.50 0.51,2.56 0.20,2.62 -0.11,2.61 -0.43,2.59 -0.43,2.59 L -0.43,2.59 Z"/></g><g transform="translate(152.2857666015625 130.5714569091797) rotate(0 2.285675048828125 25.428573608398438)" stroke="none"><path fill="#000000" d="M 1.87,0 Q 1.87,0 1.93,1.47 1.98,2.95 2.00,4.57 2.02,6.18 2.09,7.36 2.15,8.54 2.37,13.24 2.58,17.95 2.64,20.82 2.70,23.70 2.86,27.20 3.02,30.70 3.23,33.15 3.44,35.60 3.84,37.74 4.24,39.87 4.67,40.86 5.11,41.85 5.51,43.03 5.90,44.21 6.08,45.45 6.26,46.69 6.56,48.43 6.87,50.17 6.84,50.56 6.82,50.94 6.68,51.29 6.54,51.64 6.29,51.93 6.04,52.22 5.71,52.42 5.38,52.61 5.01,52.69 4.64,52.77 4.26,52.73 3.88,52.69 3.53,52.53 3.19,52.36 2.91,52.10 2.64,51.84 2.46,51.50 2.28,51.16 2.22,50.78 2.16,50.41 2.23,50.03 2.29,49.66 2.47,49.32 2.65,48.98 2.93,48.72 3.21,48.46 3.55,48.30 3.90,48.14 4.28,48.10 4.66,48.06 5.03,48.15 5.40,48.23 5.73,48.43 6.06,48.63 6.30,48.92 6.55,49.21 6.69,49.57 6.83,49.92 6.85,50.30 6.86,50.68 6.76,51.05 6.66,51.42 6.44,51.73 6.23,52.05 5.92,52.28 5.62,52.51 5.25,52.63 4.89,52.75 4.51,52.75 4.13,52.74 3.77,52.62 3.41,52.50 3.10,52.26 2.80,52.03 2.59,51.72 2.38,51.40 2.28,51.03 2.18,50.66 2.18,50.66 2.18,50.66 1.98,48.30 1.78,45.94 1.81,44.41 1.84,42.89 1.58,41.67 1.31,40.46 0.83,38.19 0.35,35.92 0.04,33.42 -0.25,30.91 -0.54,27.39 -0.83,23.87 -1.05,21.04 -1.27,18.22 -1.71,13.38 -2.15,8.54 -2.09,7.36 -2.02,6.18 -2.00,4.57 -1.98,2.95 -1.93,1.47 -1.87,0 -1.85,-0.22 -1.82,-0.44 -1.74,-0.66 -1.66,-0.87 -1.53,-1.05 -1.40,-1.24 -1.23,-1.39 -1.06,-1.54 -0.86,-1.65 -0.66,-1.75 -0.44,-1.81 -0.22,-1.86 0.00,-1.86 0.22,-1.86 0.44,-1.81 0.66,-1.75 0.86,-1.65 1.06,-1.54 1.23,-1.39 1.40,-1.24 1.53,-1.05 1.66,-0.87 1.74,-0.66 1.82,-0.44 1.85,-0.22 1.87,0.00 1.87,0.00 L 1.87,0 Z"/></g><g transform="translate(154.57147216796875 163.7143096923828) rotate(0 14.285675048828125 9.714248657226562)" stroke="none"><path fill="#000000" d="M -0.98,-2.46 Q -0.98,-2.46 -0.17,-2.82 0.63,-3.18 2.14,-3.73 3.65,-4.28 5.09,-4.74 6.53,-5.21 7.94,-5.58 9.35,-5.94 10.53,-6.00 11.71,-6.06 13.00,-6.10 14.29,-6.15 15.71,-6.18 17.12,-6.20 18.91,-6.01 20.70,-5.81 22.15,-5.71 23.60,-5.62 24.69,-5.38 25.77,-5.15 27.61,-4.42 29.44,-3.69 30.19,-2.85 30.94,-2.02 31.43,-0.00 31.93,2.01 31.98,3.14 32.02,4.27 32.05,5.76 32.07,7.25 32.08,8.89 32.09,10.53 32.08,11.74 32.08,12.95 31.53,14.56 30.99,16.17 30.12,17.94 29.25,19.72 28.08,20.48 26.90,21.23 25.76,22.26 24.61,23.28 23.13,24.10 21.65,24.92 19.57,25.39 17.49,25.86 16.92,25.79 16.34,25.73 15.81,25.48 15.29,25.23 14.87,24.83 14.45,24.42 14.18,23.91 13.91,23.39 13.82,22.82 13.73,22.24 13.83,21.67 13.93,21.10 14.21,20.59 14.48,20.07 14.91,19.68 15.33,19.28 15.86,19.04 16.39,18.80 16.97,18.74 17.55,18.68 18.12,18.81 18.68,18.94 19.18,19.25 19.68,19.55 20.05,20.00 20.42,20.44 20.63,20.98 20.84,21.53 20.87,22.11 20.90,22.69 20.74,23.25 20.58,23.81 20.25,24.29 19.92,24.76 19.45,25.11 18.99,25.46 18.43,25.64 17.88,25.82 17.30,25.82 16.72,25.81 16.17,25.62 15.62,25.43 15.16,25.08 14.70,24.72 14.38,24.24 14.05,23.76 13.90,23.19 13.75,22.63 13.79,22.05 13.82,21.47 14.04,20.93 14.26,20.39 14.64,19.95 15.02,19.51 15.52,19.22 16.02,18.92 16.59,18.80 17.16,18.68 17.16,18.68 17.16,18.68 17.94,18.64 18.72,18.59 19.70,18.12 20.67,17.64 22.26,16.60 23.84,15.55 24.45,14.16 25.06,12.76 25.05,11.64 25.04,10.53 25.05,8.89 25.06,7.26 25.07,5.83 25.08,4.40 25.57,3.21 26.06,2.02 24.58,1.49 23.11,0.96 21.38,0.86 19.66,0.75 18.39,0.62 17.12,0.49 16.03,0.48 14.95,0.46 13.76,0.42 12.57,0.39 11.17,0.35 9.77,0.32 8.49,0.54 7.21,0.76 6.14,0.99 5.08,1.23 3.86,1.55 2.65,1.87 1.81,2.16 0.98,2.46 0.67,2.54 0.36,2.62 0.04,2.63 -0.27,2.63 -0.58,2.56 -0.89,2.49 -1.18,2.35 -1.46,2.20 -1.70,2.00 -1.95,1.79 -2.13,1.53 -2.32,1.27 -2.44,0.97 -2.56,0.68 -2.60,0.36 -2.65,0.04 -2.61,-0.27 -2.58,-0.58 -2.47,-0.88 -2.36,-1.18 -2.19,-1.45 -2.01,-1.72 -1.78,-1.93 -1.54,-2.15 -1.26,-2.30 -0.98,-2.46 -0.98,-2.46 L -0.98,-2.46 Z"/></g><g transform="translate(161.42852783203125 66.57142639160156) rotate(0 1.428619384765625 14.857131958007812)" stroke="none"><path fill="#000000" d="M 2.19,0 Q 2.19,0 2.18,1.64 2.18,3.28 2.54,6.46 2.91,9.65 3.05,11.77 3.20,13.90 3.22,16.81 3.25,19.73 3.33,21.43 3.41,23.14 4.12,26.10 4.83,29.06 4.81,29.38 4.78,29.71 4.65,30.01 4.52,30.31 4.30,30.56 4.08,30.80 3.79,30.96 3.51,31.12 3.19,31.18 2.86,31.24 2.54,31.20 2.21,31.15 1.92,31.01 1.63,30.86 1.40,30.63 1.16,30.40 1.02,30.10 0.87,29.81 0.83,29.48 0.79,29.16 0.85,28.84 0.91,28.51 1.07,28.23 1.24,27.94 1.48,27.73 1.72,27.51 2.03,27.38 2.33,27.25 2.65,27.22 2.98,27.20 3.30,27.28 3.62,27.36 3.89,27.53 4.17,27.71 4.38,27.97 4.58,28.22 4.69,28.53 4.81,28.84 4.81,29.17 4.82,29.50 4.72,29.81 4.63,30.12 4.44,30.39 4.24,30.65 3.98,30.85 3.71,31.04 3.40,31.13 3.08,31.23 2.75,31.22 2.43,31.21 2.12,31.09 1.81,30.98 1.56,30.77 1.30,30.57 1.12,30.29 0.95,30.01 0.87,29.70 0.79,29.38 0.79,29.38 0.79,29.38 0.64,27.76 0.49,26.15 0.20,24.69 -0.09,23.24 -0.09,21.54 -0.08,19.83 -0.23,17.04 -0.39,14.26 -0.66,12.24 -0.94,10.22 -1.56,6.75 -2.18,3.28 -2.18,1.64 -2.19,0 -2.16,-0.26 -2.12,-0.52 -2.03,-0.77 -1.94,-1.01 -1.79,-1.23 -1.64,-1.45 -1.44,-1.62 -1.24,-1.80 -1.01,-1.92 -0.77,-2.05 -0.52,-2.11 -0.26,-2.17 0.00,-2.17 0.26,-2.17 0.52,-2.11 0.77,-2.05 1.01,-1.92 1.24,-1.80 1.44,-1.62 1.64,-1.45 1.79,-1.23 1.94,-1.01 2.03,-0.77 2.12,-0.52 2.16,-0.26 2.19,0.00 2.19,0.00 L 2.19,0 Z"/></g><g transform="translate(152.85711669921875 96.85713195800781) rotate(0 9.714324951171875 4)" stroke="none"><path fill="#000000" d="M 1.28,-2.14 Q 1.28,-2.14 2.88,-1.07 4.48,-0.00 5.84,1.21 7.20,2.42 8.08,3.19 8.97,3.96 9.90,4.74 10.84,5.53 11.82,4.53 12.80,3.53 14.77,1.88 16.73,0.23 17.13,0.00 17.53,-0.22 17.98,-0.31 18.44,-0.40 18.89,-0.34 19.35,-0.28 19.76,-0.08 20.18,0.11 20.51,0.43 20.83,0.75 21.04,1.17 21.25,1.58 21.32,2.03 21.38,2.49 21.30,2.94 21.22,3.39 20.99,3.80 20.77,4.20 20.43,4.51 20.09,4.82 19.67,5.01 19.25,5.19 18.79,5.23 18.33,5.27 17.88,5.17 17.43,5.06 17.04,4.81 16.65,4.57 16.36,4.21 16.07,3.86 15.91,3.43 15.74,2.99 15.73,2.53 15.71,2.07 15.84,1.63 15.98,1.19 16.24,0.81 16.51,0.44 16.88,0.17 17.25,-0.10 17.69,-0.23 18.13,-0.37 18.59,-0.36 19.05,-0.36 19.48,-0.20 19.92,-0.04 20.28,0.23 20.64,0.52 20.89,0.90 21.14,1.29 21.26,1.73 21.37,2.18 21.34,2.64 21.30,3.10 21.13,3.52 20.95,3.95 20.64,4.29 20.34,4.64 20.34,4.64 20.34,4.64 18.28,6.28 16.23,7.92 14.86,8.91 13.50,9.90 12.04,10.24 10.58,10.57 9.01,9.96 7.44,9.35 6.57,8.39 5.70,7.43 4.91,6.62 4.13,5.82 3.11,4.88 2.09,3.94 0.40,3.04 -1.28,2.14 -1.52,1.96 -1.76,1.77 -1.95,1.53 -2.13,1.30 -2.26,1.02 -2.38,0.75 -2.44,0.45 -2.49,0.15 -2.48,-0.14 -2.46,-0.44 -2.37,-0.73 -2.28,-1.02 -2.13,-1.27 -1.97,-1.53 -1.76,-1.75 -1.55,-1.96 -1.29,-2.12 -1.03,-2.28 -0.74,-2.37 -0.45,-2.46 -0.15,-2.48 0.14,-2.50 0.44,-2.44 0.73,-2.39 1.01,-2.27 1.28,-2.14 1.28,-2.14 L 1.28,-2.14 Z"/></g><g transform="translate(176.85711669921875 92.85713195800781) rotate(0 0.00004999999999988347 0.00005000000000165983)" stroke="none"><path fill="#000000" d="M 1.57,-1.57 Q 1.57,-1.57 1.77,-1.27 1.98,-0.98 2.09,-0.64 2.20,-0.29 2.19,0.05 2.18,0.41 2.05,0.75 1.93,1.09 1.70,1.37 1.48,1.65 1.18,1.84 0.87,2.04 0.52,2.12 0.18,2.21 -0.17,2.18 -0.53,2.15 -0.86,2.01 -1.19,1.87 -1.46,1.63 -1.73,1.39 -1.90,1.07 -2.08,0.76 -2.15,0.41 -2.21,0.05 -2.17,-0.29 -2.12,-0.65 -1.96,-0.97 -1.80,-1.29 -1.54,-1.54 -1.29,-1.80 -0.97,-1.96 -0.65,-2.12 -0.29,-2.17 0.06,-2.21 0.41,-2.15 0.76,-2.08 1.07,-1.90 1.39,-1.73 1.63,-1.46 1.87,-1.19 2.01,-0.86 2.15,-0.53 2.18,-0.17 2.21,0.18 2.12,0.52 2.03,0.87 1.84,1.18 1.65,1.48 1.37,1.70 1.09,1.93 0.75,2.05 0.41,2.18 0.05,2.19 -0.30,2.20 -0.64,2.09 -0.98,1.98 -1.27,1.77 -1.57,1.56 -1.57,1.57 -1.57,1.57 -1.73,1.35 -1.90,1.14 -2.01,0.90 -2.12,0.66 -2.16,0.39 -2.21,0.13 -2.20,-0.13 -2.18,-0.40 -2.10,-0.65 -2.02,-0.91 -1.88,-1.14 -1.74,-1.36 -1.55,-1.55 -1.36,-1.74 -1.14,-1.88 -0.91,-2.02 -0.65,-2.10 -0.40,-2.18 -0.13,-2.20 0.13,-2.21 0.39,-2.16 0.66,-2.12 0.90,-2.01 1.14,-1.90 1.35,-1.73 1.57,-1.57 1.57,-1.57 L 1.57,-1.57 Z"/></g><g transform="translate(157.42852783203125 26.571426391601562) rotate(0 7.71429443359375 9.428573608398438)" stroke="none"><path fill="#000000" d="M 1.53,-2.05 Q 1.53,-2.05 2.82,-1.03 4.11,-0.01 5.66,1.06 7.21,2.14 8.43,3.09 9.65,4.04 10.09,5.83 10.53,7.63 10.43,8.76 10.33,9.89 9.19,11.57 8.05,13.24 7.27,14.59 6.48,15.94 10.33,15.81 14.17,15.68 14.68,15.77 15.18,15.86 15.63,16.11 16.07,16.35 16.42,16.72 16.77,17.10 16.97,17.56 17.18,18.03 17.23,18.54 17.28,19.04 17.17,19.54 17.05,20.04 16.78,20.47 16.51,20.91 16.12,21.23 15.73,21.56 15.25,21.74 14.78,21.92 14.27,21.95 13.76,21.97 13.27,21.82 12.78,21.68 12.36,21.39 11.94,21.10 11.64,20.69 11.33,20.28 11.18,19.80 11.02,19.31 11.03,18.80 11.03,18.29 11.20,17.81 11.37,17.33 11.68,16.93 12.00,16.52 12.42,16.24 12.85,15.96 13.34,15.83 13.83,15.70 14.34,15.73 14.85,15.77 15.32,15.96 15.79,16.16 16.18,16.49 16.56,16.82 16.82,17.26 17.08,17.71 17.18,18.20 17.29,18.70 17.22,19.21 17.16,19.72 16.94,20.18 16.72,20.64 16.37,21.00 16.01,21.37 15.56,21.60 15.11,21.84 14.60,21.91 14.10,21.99 14.10,21.99 14.10,21.99 11.11,21.95 8.11,21.90 6.03,21.61 3.95,21.32 2.46,20.43 0.97,19.53 0.55,17.54 0.12,15.56 1.26,13.54 2.41,11.52 3.60,10.12 4.80,8.71 4.47,7.57 4.13,6.43 2.63,5.19 1.14,3.95 -0.19,3.00 -1.53,2.05 -1.76,1.83 -1.98,1.62 -2.15,1.36 -2.31,1.10 -2.41,0.80 -2.51,0.51 -2.53,0.20 -2.56,-0.10 -2.51,-0.40 -2.46,-0.71 -2.34,-0.99 -2.22,-1.28 -2.03,-1.52 -1.85,-1.77 -1.61,-1.97 -1.37,-2.16 -1.09,-2.30 -0.81,-2.43 -0.51,-2.49 -0.20,-2.55 0.10,-2.54 0.40,-2.53 0.70,-2.44 1.00,-2.36 1.27,-2.20 1.53,-2.05 1.53,-2.05 L 1.53,-2.05 Z"/></g><g transform="translate(168.85711669921875 10.571426391601562) rotate(0 0 -0.28571319580078125)" stroke="none"><path fill="#000000" d="M 2.12,-0.66 Q 2.12,-0.66 2.15,-0.13 2.18,0.40 1.96,0.88 1.74,1.36 1.32,1.69 0.91,2.02 0.38,2.12 -0.13,2.21 -0.64,2.05 -1.14,1.90 -1.52,1.52 -1.90,1.14 -2.05,0.64 -2.21,0.13 -2.12,-0.38 -2.02,-0.91 -1.69,-1.32 -1.36,-1.74 -0.88,-1.96 -0.39,-2.18 0.13,-2.15 0.66,-2.11 1.11,-1.84 1.57,-1.56 1.84,-1.11 L 2.12,-0.66 Z"/></g><g transform="translate(49.42852783203125 98.57145690917969) rotate(0 2 16)" stroke="none"><path fill="#000000" d="M 2.13,-0.17 Q 2.13,-0.17 2.22,1.79 2.32,3.77 2.62,6.19 2.92,8.61 3.18,10.83 3.45,13.06 3.56,15.21 3.66,17.36 4.19,19.07 4.72,20.77 5.28,22.75 5.84,24.73 6.04,25.91 6.23,27.09 6.31,29.45 6.39,31.81 6.33,32.19 6.27,32.58 6.09,32.92 5.90,33.26 5.62,33.53 5.34,33.79 4.99,33.96 4.64,34.12 4.25,34.16 3.87,34.20 3.49,34.12 3.11,34.04 2.78,33.84 2.44,33.64 2.19,33.34 1.94,33.05 1.80,32.69 1.65,32.33 1.63,31.94 1.61,31.55 1.72,31.18 1.82,30.81 2.04,30.48 2.25,30.16 2.56,29.93 2.87,29.69 3.24,29.57 3.61,29.45 3.99,29.45 4.38,29.45 4.75,29.57 5.12,29.69 5.43,29.93 5.73,30.16 5.95,30.48 6.17,30.80 6.27,31.18 6.38,31.55 6.36,31.94 6.34,32.33 6.19,32.69 6.05,33.05 5.80,33.34 5.55,33.64 5.21,33.84 4.88,34.04 4.50,34.12 4.12,34.20 3.74,34.16 3.35,34.12 3.00,33.96 2.65,33.80 2.37,33.53 2.09,33.26 1.91,32.92 1.72,32.58 1.66,32.19 1.60,31.81 1.60,31.81 1.60,31.81 1.61,29.91 1.62,28.02 1.74,26.59 1.86,25.17 1.75,23.43 1.64,21.68 1.06,19.64 0.48,17.60 0.30,15.58 0.12,13.56 -0.26,11.37 -0.66,9.19 -1.16,6.65 -1.66,4.10 -1.90,2.14 -2.13,0.17 -2.12,-0.08 -2.11,-0.33 -2.04,-0.58 -1.97,-0.83 -1.84,-1.05 -1.71,-1.28 -1.53,-1.47 -1.36,-1.65 -1.14,-1.79 -0.92,-1.93 -0.67,-2.01 -0.43,-2.09 -0.17,-2.12 0.08,-2.14 0.33,-2.10 0.59,-2.06 0.82,-1.95 1.06,-1.85 1.27,-1.70 1.48,-1.54 1.64,-1.35 1.80,-1.15 1.92,-0.91 2.03,-0.68 2.08,-0.43 2.13,-0.17 2.13,-0.17 L 2.13,-0.17 Z"/></g><g transform="translate(41.42852783203125 123.14283752441406) rotate(0 8.285736083984375 2.571441650390625)" stroke="none"><path fill="#000000" d="M 1.15,-2.30 Q 1.15,-2.30 2.17,-1.81 3.20,-1.32 4.47,-0.00 5.75,1.30 6.88,1.85 8.02,2.40 9.08,3.36 10.14,4.32 9.83,3.13 9.53,1.94 10.65,0.80 11.78,-0.33 13.11,-1.77 14.45,-3.21 14.86,-3.45 15.27,-3.68 15.74,-3.78 16.21,-3.87 16.68,-3.81 17.16,-3.74 17.58,-3.54 18.01,-3.33 18.35,-2.99 18.69,-2.65 18.90,-2.23 19.12,-1.80 19.18,-1.33 19.25,-0.86 19.16,-0.39 19.07,0.07 18.84,0.48 18.61,0.90 18.26,1.22 17.90,1.54 17.47,1.73 17.03,1.92 16.55,1.96 16.08,2.00 15.62,1.89 15.15,1.78 14.75,1.52 14.35,1.27 14.05,0.90 13.75,0.53 13.58,0.08 13.41,-0.36 13.40,-0.83 13.38,-1.31 13.52,-1.76 13.66,-2.22 13.94,-2.61 14.21,-3.00 14.60,-3.28 14.98,-3.56 15.44,-3.70 15.89,-3.84 16.37,-3.83 16.85,-3.82 17.29,-3.66 17.74,-3.50 18.11,-3.20 18.49,-2.90 18.75,-2.50 19.00,-2.10 19.12,-1.64 19.24,-1.18 19.20,-0.70 19.17,-0.23 18.98,0.20 18.79,0.64 18.48,1.00 18.16,1.35 18.16,1.35 18.16,1.35 17.11,2.47 16.06,3.60 15.16,4.67 14.25,5.73 12.85,7.23 11.44,8.73 9.88,8.98 8.32,9.23 6.98,8.33 5.64,7.43 4.43,6.74 3.21,6.04 1.97,4.66 0.73,3.29 -0.20,2.80 -1.15,2.30 -1.41,2.13 -1.67,1.96 -1.88,1.73 -2.09,1.50 -2.24,1.23 -2.39,0.96 -2.47,0.66 -2.55,0.36 -2.55,0.05 -2.56,-0.26 -2.49,-0.56 -2.42,-0.86 -2.28,-1.14 -2.14,-1.42 -1.94,-1.65 -1.74,-1.89 -1.49,-2.07 -1.24,-2.25 -0.95,-2.37 -0.66,-2.48 -0.35,-2.53 -0.05,-2.57 0.25,-2.54 0.56,-2.51 0.86,-2.40 1.15,-2.30 1.15,-2.30 L 1.15,-2.30 Z"/></g><g transform="translate(21.42852783203125 46.57142639160156) rotate(0 13.4285888671875 16.28570556640625)" stroke="none"><path fill="#000000" d="M 1.68,-1.12 Q 1.68,-1.12 2.92,0.91 4.16,2.94 4.92,5.50 5.69,8.07 6.22,9.32 6.76,10.57 7.39,12.83 8.03,15.09 8.78,18.91 9.54,22.72 9.85,24.85 10.16,26.97 10.40,28.38 10.64,29.78 10.80,30.52 10.95,31.26 10.95,31.49 10.94,31.72 10.89,31.95 10.83,32.17 10.72,32.37 10.60,32.57 10.45,32.74 10.29,32.91 10.10,33.04 9.91,33.17 9.69,33.25 9.47,33.33 9.24,33.35 9.01,33.37 8.79,33.34 8.56,33.31 8.34,33.22 8.13,33.14 7.94,33.00 7.75,32.87 7.60,32.69 7.45,32.52 7.35,32.31 7.25,32.11 7.20,31.88 7.14,31.66 7.13,29.68 7.11,27.71 7.12,25.97 7.13,24.23 8.42,20.44 9.70,16.64 10.41,14.38 11.12,12.11 11.77,9.84 12.42,7.56 12.59,6.14 12.76,4.71 13.29,3.63 13.83,2.54 15.49,1.88 17.16,1.23 19.63,1.53 22.10,1.83 24.09,1.87 26.09,1.92 26.41,2.00 26.73,2.07 27.00,2.24 27.28,2.41 27.49,2.66 27.70,2.91 27.82,3.22 27.94,3.52 27.95,3.85 27.96,4.18 27.87,4.49 27.78,4.80 27.60,5.07 27.41,5.34 27.15,5.54 26.89,5.73 26.58,5.83 26.27,5.93 25.94,5.93 25.61,5.93 25.30,5.82 25.00,5.71 24.74,5.51 24.48,5.31 24.30,5.04 24.12,4.77 24.04,4.45 23.95,4.13 23.97,3.81 23.99,3.48 24.12,3.18 24.24,2.88 24.46,2.63 24.67,2.39 24.95,2.22 25.23,2.06 25.55,1.99 25.87,1.92 26.20,1.96 26.52,2.00 26.82,2.14 27.11,2.28 27.34,2.51 27.58,2.73 27.73,3.02 27.88,3.31 27.93,3.64 27.98,3.96 27.92,4.28 27.87,4.60 27.71,4.89 27.55,5.18 27.31,5.40 27.07,5.62 26.78,5.75 26.48,5.89 26.15,5.92 25.83,5.95 25.83,5.95 25.83,5.95 23.78,5.74 21.73,5.53 18.96,5.43 16.19,5.34 15.84,6.85 15.49,8.37 14.93,10.70 14.36,13.03 13.77,15.40 13.17,17.78 12.15,21.04 11.13,24.30 11.13,26.02 11.13,27.74 11.04,29.50 10.95,31.26 10.95,31.49 10.94,31.72 10.89,31.95 10.83,32.17 10.72,32.37 10.60,32.57 10.45,32.74 10.29,32.91 10.10,33.04 9.91,33.17 9.69,33.25 9.47,33.33 9.24,33.35 9.01,33.37 8.79,33.34 8.56,33.31 8.34,33.22 8.13,33.14 7.94,33.00 7.75,32.87 7.60,32.69 7.45,32.52 7.35,32.31 7.25,32.11 7.20,31.88 7.14,31.66 7.18,30.90 7.21,30.14 7.17,28.80 7.13,27.45 6.77,25.42 6.41,23.39 5.59,19.75 4.77,16.11 4.02,13.97 3.27,11.82 2.86,10.45 2.45,9.08 1.77,7.01 1.09,4.94 -0.29,3.03 -1.68,1.12 -1.79,0.90 -1.90,0.68 -1.95,0.44 -2.01,0.21 -2.00,-0.03 -2.00,-0.27 -1.94,-0.51 -1.87,-0.74 -1.76,-0.96 -1.64,-1.17 -1.48,-1.35 -1.31,-1.53 -1.11,-1.67 -0.91,-1.80 -0.68,-1.88 -0.45,-1.97 -0.20,-1.99 0.03,-2.02 0.27,-1.98 0.51,-1.95 0.74,-1.86 0.96,-1.77 1.16,-1.63 1.36,-1.49 1.52,-1.30 1.68,-1.12 1.68,-1.12 L 1.68,-1.12 Z"/></g><g transform="translate(45.42852783203125 62.57142639160156) rotate(0 10.285736083984375 -2.2857208251953125)" stroke="none"><path fill="#000000" d="M 0,-2.33 Q 0,-2.33 1.97,-2.24 3.94,-2.15 7.56,-2.04 11.19,-1.92 13.02,-2.32 14.85,-2.71 15.36,-3.78 15.87,-4.85 14.77,-6.09 13.67,-7.32 13.82,-5.89 13.97,-4.46 14.70,-2.88 15.44,-1.29 16.21,-0.40 16.97,0.48 19.81,2.18 22.65,3.88 22.94,4.30 23.23,4.72 23.37,5.22 23.51,5.71 23.49,6.22 23.47,6.73 23.28,7.21 23.09,7.69 22.77,8.08 22.44,8.47 22.00,8.74 21.57,9.01 21.07,9.12 20.57,9.24 20.06,9.18 19.55,9.13 19.08,8.92 18.62,8.71 18.24,8.36 17.87,8.01 17.62,7.56 17.38,7.11 17.29,6.61 17.21,6.10 17.28,5.60 17.36,5.09 17.60,4.64 17.84,4.18 18.20,3.83 18.57,3.47 19.04,3.25 19.50,3.03 20.01,2.98 20.52,2.92 21.02,3.02 21.52,3.13 21.96,3.39 22.40,3.65 22.73,4.04 23.07,4.42 23.26,4.90 23.46,5.37 23.49,5.88 23.52,6.39 23.39,6.89 23.25,7.38 22.97,7.81 22.68,8.23 22.28,8.55 21.87,8.86 21.39,9.03 20.91,9.20 20.39,9.20 19.88,9.20 19.40,9.04 18.91,8.88 18.50,8.58 18.09,8.27 18.09,8.27 18.09,8.27 16.31,7.19 14.53,6.12 13.45,5.40 12.38,4.68 11.31,3.29 10.24,1.90 9.24,-0.32 8.24,-2.54 8.11,-3.77 7.99,-4.99 8.30,-6.84 8.61,-8.69 9.57,-10.56 10.53,-12.43 11.76,-12.78 13.00,-13.12 15.08,-12.16 17.16,-11.20 18.06,-10.31 18.96,-9.42 19.77,-7.94 20.58,-6.45 20.40,-4.77 20.22,-3.10 19.02,-1.52 17.81,0.05 16.75,0.40 15.69,0.74 13.45,1.33 11.21,1.92 7.57,2.04 3.94,2.15 1.97,2.24 0,2.33 -0.27,2.30 -0.55,2.26 -0.82,2.16 -1.08,2.06 -1.31,1.90 -1.54,1.74 -1.73,1.53 -1.92,1.32 -2.05,1.07 -2.18,0.82 -2.25,0.55 -2.31,0.28 -2.31,-0.00 -2.31,-0.28 -2.25,-0.55 -2.18,-0.82 -2.05,-1.07 -1.92,-1.32 -1.73,-1.53 -1.54,-1.74 -1.31,-1.90 -1.08,-2.06 -0.82,-2.16 -0.55,-2.26 -0.27,-2.30 0.00,-2.33 0.00,-2.33 L 0,-2.33 Z"/></g><g transform="translate(94.5714111328125 203.7143096923828) rotate(0 50.285675048828125 -44.00001525878906)" stroke="none"><path fill="#000000" d="M -0.20,-2.04 Q -0.20,-2.04 1.43,-2.21 3.08,-2.38 5.32,-2.36 7.57,-2.33 9.33,-2.37 11.10,-2.41 12.34,-2.50 13.58,-2.59 15.92,-2.54 18.27,-2.48 19.75,-2.42 21.22,-2.36 23.16,-2.25 25.10,-2.13 27.41,-2.02 29.72,-1.90 32.84,-1.82 35.96,-1.74 38.76,-1.68 41.56,-1.62 43.41,-1.64 45.26,-1.66 46.71,-1.74 48.15,-1.81 50.40,-1.75 52.66,-1.68 56.31,-2.11 59.96,-2.55 62.44,-3.19 64.93,-3.84 69.06,-5.56 73.19,-7.28 76.64,-8.68 80.09,-10.07 82.70,-11.15 85.31,-12.23 86.58,-12.81 87.84,-13.39 89.18,-14.34 90.53,-15.30 92.43,-16.94 94.34,-18.58 97.01,-20.79 99.69,-22.99 101.36,-25.42 103.03,-27.85 103.87,-29.40 104.72,-30.94 105.05,-33.33 105.39,-35.72 105.45,-37.17 105.52,-38.61 105.50,-39.84 105.47,-41.07 105.48,-42.72 105.49,-44.36 105.04,-45.80 104.59,-47.24 103.68,-49.52 102.77,-51.80 101.27,-54.56 99.78,-57.32 98.21,-59.44 96.65,-61.55 95.20,-63.09 93.76,-64.63 91.36,-66.75 88.97,-68.88 86.35,-70.75 83.73,-72.61 82.36,-73.53 80.99,-74.44 79.54,-75.70 78.10,-76.96 76.19,-78.08 74.28,-79.20 70.90,-80.50 67.51,-81.80 65.40,-82.54 63.28,-83.28 61.71,-83.67 60.14,-84.06 58.13,-84.14 56.11,-84.21 54.44,-84.76 52.77,-85.30 50.64,-85.57 48.51,-85.83 46.87,-85.89 45.22,-85.96 43.23,-86.05 41.24,-86.14 40.06,-86.08 38.88,-86.01 37.61,-85.67 36.34,-85.34 33.55,-85.08 30.75,-84.83 28.35,-84.33 25.95,-83.83 24.58,-83.22 23.21,-82.61 21.25,-81.70 19.29,-80.79 18.15,-79.82 17.02,-78.85 15.79,-77.85 14.57,-76.86 13.56,-76.06 12.55,-75.26 11.84,-73.81 11.13,-72.36 10.19,-70.46 9.25,-68.55 8.71,-67.64 8.17,-66.72 6.84,-64.69 5.51,-62.66 4.83,-61.50 4.15,-60.35 3.16,-58.44 2.16,-56.54 1.62,-55.05 1.09,-53.57 -0.10,-51.37 -1.30,-49.18 -1.93,-47.14 -2.56,-45.10 -3.19,-42.57 -3.83,-40.03 -4.18,-38.67 -4.52,-37.31 -4.59,-36.10 -4.66,-34.90 -4.76,-33.09 -4.85,-31.29 -4.96,-29.03 -5.07,-26.77 -5.14,-24.00 -5.21,-21.24 -5.19,-19.40 -5.18,-17.57 -4.63,-16.00 -4.08,-14.43 -3.41,-13.52 -2.73,-12.61 -2.13,-10.89 -1.52,-9.17 -0.79,-8.16 -0.06,-7.16 1.40,-3.25 2.86,0.66 2.56,1.00 2.27,1.34 1.88,1.56 1.49,1.79 1.05,1.88 0.60,1.96 0.16,1.91 -0.28,1.85 -0.68,1.66 -1.09,1.46 -1.41,1.15 -1.73,0.83 -1.94,0.43 -2.14,0.03 -2.20,-0.41 -2.27,-0.85 -2.19,-1.30 -2.11,-1.74 -1.89,-2.13 -1.67,-2.53 -1.34,-2.83 -1.01,-3.13 -0.60,-3.32 -0.19,-3.50 0.25,-3.54 0.70,-3.58 1.14,-3.48 1.58,-3.37 1.96,-3.13 2.34,-2.89 2.62,-2.55 2.91,-2.20 3.07,-1.78 3.23,-1.36 3.24,-0.91 3.26,-0.46 3.13,-0.03 3.01,0.40 2.75,0.76 2.49,1.13 2.12,1.40 1.76,1.66 1.33,1.80 0.90,1.94 0.45,1.93 0.00,1.92 -0.41,1.77 -0.83,1.62 -1.19,1.34 -1.54,1.06 -1.79,0.69 -2.03,0.31 -2.15,-0.12 -2.26,-0.55 -2.23,-1.00 -2.19,-1.45 -2.02,-1.87 -1.85,-2.28 -1.85,-2.28 -1.85,-2.28 -2.46,-2.55 -3.07,-2.82 -3.69,-3.86 -4.32,-4.89 -4.97,-6.35 -5.62,-7.82 -5.99,-9.09 -6.35,-10.36 -7.36,-12.86 -8.37,-15.36 -8.44,-16.47 -8.51,-17.57 -8.48,-19.41 -8.45,-21.25 -8.50,-24.04 -8.54,-26.82 -8.59,-29.13 -8.63,-31.44 -8.58,-33.42 -8.52,-35.40 -8.24,-36.91 -7.95,-38.42 -7.47,-39.59 -6.99,-40.75 -6.44,-43.39 -5.90,-46.03 -5.29,-48.44 -4.69,-50.85 -3.77,-52.93 -2.84,-55.01 -2.24,-56.63 -1.64,-58.25 -0.75,-60.55 0.14,-62.86 0.83,-63.88 1.51,-64.90 3.18,-68.04 4.85,-71.17 5.85,-72.83 6.86,-74.49 8.35,-76.70 9.85,-78.91 10.85,-79.59 11.86,-80.26 13.05,-81.19 14.24,-82.12 15.71,-83.35 17.17,-84.59 19.01,-85.78 20.85,-86.97 23.02,-87.64 25.20,-88.31 26.65,-88.54 28.10,-88.77 29.36,-88.91 30.61,-89.05 33.05,-89.18 35.49,-89.32 37.20,-89.63 38.91,-89.93 40.11,-89.83 41.31,-89.73 43.38,-89.74 45.44,-89.75 47.15,-89.62 48.85,-89.50 51.52,-89.31 54.18,-89.12 55.30,-88.61 56.41,-88.10 58.73,-87.60 61.06,-87.10 62.63,-86.55 64.20,-85.99 66.38,-85.28 68.56,-84.56 72.18,-83.22 75.81,-81.87 78.03,-80.63 80.25,-79.38 81.56,-78.17 82.86,-76.96 84.10,-75.93 85.35,-74.90 88.10,-72.97 90.86,-71.04 93.37,-68.86 95.89,-66.68 97.50,-65.05 99.10,-63.42 100.86,-61.17 102.61,-58.92 104.29,-56.06 105.97,-53.19 107.11,-50.73 108.25,-48.28 108.76,-46.31 109.27,-44.34 109.22,-42.60 109.16,-40.86 109.00,-39.55 108.83,-38.23 108.57,-36.76 108.30,-35.29 107.86,-32.39 107.41,-29.48 106.41,-27.84 105.41,-26.21 103.52,-23.46 101.64,-20.72 99.03,-18.48 96.42,-16.24 94.40,-14.39 92.38,-12.54 90.67,-11.45 88.96,-10.37 87.67,-10.02 86.39,-9.67 83.78,-8.56 81.17,-7.45 77.75,-6.03 74.32,-4.60 70.02,-2.76 65.72,-0.93 63.05,-0.17 60.37,0.58 56.52,1.13 52.66,1.68 50.40,1.74 48.15,1.81 46.70,1.73 45.26,1.66 43.41,1.63 41.56,1.61 38.76,1.67 35.95,1.72 32.82,1.79 29.70,1.86 27.37,1.96 25.04,2.05 23.03,2.10 21.02,2.16 19.38,2.08 17.73,2.00 15.68,1.74 13.62,1.48 12.39,1.42 11.16,1.36 9.43,1.38 7.69,1.39 5.59,1.56 3.49,1.72 1.84,1.88 0.20,2.04 -0.04,2.03 -0.29,2.03 -0.52,1.96 -0.76,1.90 -0.98,1.78 -1.20,1.66 -1.38,1.49 -1.56,1.32 -1.70,1.12 -1.83,0.91 -1.91,0.68 -2.00,0.44 -2.02,0.20 -2.05,-0.04 -2.01,-0.28 -1.98,-0.53 -1.88,-0.76 -1.79,-0.99 -1.65,-1.19 -1.50,-1.39 -1.31,-1.55 -1.12,-1.71 -0.90,-1.82 -0.68,-1.93 -0.44,-1.98 -0.20,-2.04 -0.20,-2.04 L -0.20,-2.04 Z"/></g></svg>