<svg version="1.1" xmlns="http://www.w3.org/2000/svg" viewBox="0 0 139.8633575439453 144.68115234375" width="139.8633575439453" height="144.68115234375">
  <!-- svg-source:excalidraw -->
  
  <defs>
    <style>
      @font-face {
        font-family: "Virgil";
        src: url("https://unpkg.com/@zsviczian/excalidraw@0.12.0-obsidian-11/dist/excalidraw-assets/Virgil.woff2");
      }
      @font-face {
        font-family: "Cascadia";
        src: url("https://unpkg.com/@zsviczian/excalidraw@0.12.0-obsidian-11/dist/excalidraw-assets/Cascadia.woff2");
      }
    </style>
  </defs>
  <rect x="0" y="0" width="139.8633575439453" height="144.68115234375" fill="#f1f3f5"/><g stroke-linecap="round" transform="translate(10 10) rotate(0 22 24)"><path d="M44 24 C44 25.39, 43.89 26.8, 43.67 28.17 C43.44 29.54, 43.11 30.9, 42.67 32.21 C42.24 33.51, 41.69 34.8, 41.05 36 C40.42 37.2, 39.67 38.36, 38.85 39.43 C38.03 40.49, 37.12 41.49, 36.14 42.39 C35.17 43.28, 34.1 44.09, 33 44.78 C31.9 45.48, 30.72 46.08, 29.52 46.55 C28.33 47.03, 27.07 47.39, 25.82 47.64 C24.57 47.88, 23.27 48, 22 48 C20.73 48, 19.43 47.88, 18.18 47.64 C16.93 47.39, 15.67 47.03, 14.48 46.55 C13.28 46.08, 12.1 45.48, 11 44.78 C9.9 44.09, 8.83 43.28, 7.86 42.39 C6.88 41.49, 5.97 40.49, 5.15 39.43 C4.33 38.36, 3.58 37.2, 2.95 36 C2.31 34.8, 1.76 33.51, 1.33 32.21 C0.89 30.9, 0.56 29.54, 0.33 28.17 C0.11 26.8, 0 25.39, 0 24 C0 22.61, 0.11 21.2, 0.33 19.83 C0.56 18.46, 0.89 17.1, 1.33 15.79 C1.76 14.49, 2.31 13.2, 2.95 12 C3.58 10.8, 4.33 9.64, 5.15 8.57 C5.97 7.51, 6.88 6.51, 7.86 5.61 C8.83 4.72, 9.9 3.91, 11 3.22 C12.1 2.52, 13.28 1.92, 14.48 1.45 C15.67 0.97, 16.93 0.61, 18.18 0.36 C19.43 0.12, 20.73 0, 22 0 C23.27 0, 24.57 0.12, 25.82 0.36 C27.07 0.61, 28.33 0.97, 29.52 1.45 C30.72 1.92, 31.9 2.52, 33 3.22 C34.1 3.91, 35.17 4.72, 36.14 5.61 C37.12 6.51, 38.03 7.51, 38.85 8.57 C39.67 9.64, 40.42 10.8, 41.05 12 C41.69 13.2, 42.24 14.49, 42.67 15.79 C43.11 17.1, 43.44 18.46, 43.67 19.83 C43.89 21.2, 43.94 23.31, 44 24 C44.06 24.69, 44.06 23.31, 44 24" stroke="#364fc7" stroke-width="1" fill="none"/></g><g transform="translate(25.5 22.5) rotate(0 6.5 11.5)"><text x="6.5" y="19" font-family="Helvetica, Segoe UI Emoji" font-size="20px" fill="#364fc7" text-anchor="middle" style="white-space: pre;" direction="ltr">1</text></g><g transform="translate(64.86335754394531 10.394081115722656) rotate(0 32.5 21)"><text x="0" y="34" font-family="Helvetica, Segoe UI Emoji" font-size="31.72082971643518px" fill="#364fc7" text-anchor="start" style="white-space: pre;" direction="ltr">分组</text></g><g stroke-linecap="round" transform="translate(11.825729370117188 86.68115234375) rotate(0 22 24)"><path d="M44 24 C44 25.39, 43.89 26.8, 43.67 28.17 C43.44 29.54, 43.11 30.9, 42.67 32.21 C42.24 33.51, 41.69 34.8, 41.05 36 C40.42 37.2, 39.67 38.36, 38.85 39.43 C38.03 40.49, 37.12 41.49, 36.14 42.39 C35.17 43.28, 34.1 44.09, 33 44.78 C31.9 45.48, 30.72 46.08, 29.52 46.55 C28.33 47.03, 27.07 47.39, 25.82 47.64 C24.57 47.88, 23.27 48, 22 48 C20.73 48, 19.43 47.88, 18.18 47.64 C16.93 47.39, 15.67 47.03, 14.48 46.55 C13.28 46.08, 12.1 45.48, 11 44.78 C9.9 44.09, 8.83 43.28, 7.86 42.39 C6.88 41.49, 5.97 40.49, 5.15 39.43 C4.33 38.36, 3.58 37.2, 2.95 36 C2.31 34.8, 1.76 33.51, 1.33 32.21 C0.89 30.9, 0.56 29.54, 0.33 28.17 C0.11 26.8, 0 25.39, 0 24 C0 22.61, 0.11 21.2, 0.33 19.83 C0.56 18.46, 0.89 17.1, 1.33 15.79 C1.76 14.49, 2.31 13.2, 2.95 12 C3.58 10.8, 4.33 9.64, 5.15 8.57 C5.97 7.51, 6.88 6.51, 7.86 5.61 C8.83 4.72, 9.9 3.91, 11 3.22 C12.1 2.52, 13.28 1.92, 14.48 1.45 C15.67 0.97, 16.93 0.61, 18.18 0.36 C19.43 0.12, 20.73 0, 22 0 C23.27 0, 24.57 0.12, 25.82 0.36 C27.07 0.61, 28.33 0.97, 29.52 1.45 C30.72 1.92, 31.9 2.52, 33 3.22 C34.1 3.91, 35.17 4.72, 36.14 5.61 C37.12 6.51, 38.03 7.51, 38.85 8.57 C39.67 9.64, 40.42 10.8, 41.05 12 C41.69 13.2, 42.24 14.49, 42.67 15.79 C43.11 17.1, 43.44 18.46, 43.67 19.83 C43.89 21.2, 43.94 23.31, 44 24 C44.06 24.69, 44.06 23.31, 44 24" stroke="#364fc7" stroke-width="1" fill="none"/></g><g transform="translate(27.325729370117188 99.18115234375) rotate(0 6.5 11.5)"><text x="6.5" y="19" font-family="Helvetica, Segoe UI Emoji" font-size="20px" fill="#364fc7" text-anchor="middle" style="white-space: pre;" direction="ltr">1</text></g></svg>