<svg version="1.1" xmlns="http://www.w3.org/2000/svg" viewBox="0 0 428.3575744628906 195.46871948242188" width="428.3575744628906" height="195.46871948242188">
  <!-- svg-source:excalidraw -->
  
  <defs>
    <style>
      @font-face {
        font-family: "Virgil";
        src: url("https://unpkg.com/@zsviczian/excalidraw@0.11.0-obsidian-25/dist/excalidraw-assets/Virgil.woff2");
      }
      @font-face {
        font-family: "Cascadia";
        src: url("https://unpkg.com/@zsviczian/excalidraw@0.11.0-obsidian-25/dist/excalidraw-assets/Cascadia.woff2");
      }
    </style>
  </defs>
  <rect x="0" y="0" width="428.3575744628906" height="195.46871948242188" fill="#ffffff"/><g stroke-linecap="round" transform="translate(10 63.555084228515625) rotate(0 204.1787872314453 22.82177734375)"><path d="M0 0 C85.77 0, 171.53 0, 408.36 0 M0 0 C149.37 0, 298.75 0, 408.36 0 M408.36 0 C408.36 15.09, 408.36 30.18, 408.36 45.64 M408.36 0 C408.36 13.58, 408.36 27.16, 408.36 45.64 M408.36 45.64 C282.96 45.64, 157.56 45.64, 0 45.64 M408.36 45.64 C320.02 45.64, 231.69 45.64, 0 45.64 M0 45.64 C0 33.31, 0 20.98, 0 0 M0 45.64 C0 28.94, 0 12.23, 0 0" stroke="#c92a2a" stroke-width="1" fill="none"/></g><g transform="translate(81.20394897460938 19.737289428710938) rotate(0 -1.521453857421875 65.7267074584961)" stroke="none"><path fill="#c92a2a" d="M 1.56,0 Q 1.56,0 1.52,4.89 1.49,9.79 0.94,19.44 0.39,29.08 -0.19,40.86 -0.78,52.63 -1.04,60.43 -1.30,68.22 -1.41,77.47 -1.52,86.73 -1.57,94.34 -1.62,101.95 -1.47,107.96 -1.32,113.97 -0.91,118.42 -0.50,122.86 -0.12,126.33 0.25,129.80 0.23,130.06 0.20,130.32 0.10,130.55 0.00,130.79 -0.17,130.98 -0.34,131.17 -0.56,131.29 -0.79,131.42 -1.04,131.46 -1.29,131.51 -1.55,131.47 -1.80,131.43 -2.03,131.32 -2.26,131.20 -2.44,131.02 -2.62,130.84 -2.73,130.60 -2.85,130.37 -2.88,130.12 -2.91,129.86 -2.86,129.61 -2.81,129.36 -2.68,129.14 -2.55,128.91 -2.36,128.74 -2.17,128.57 -1.93,128.47 -1.69,128.38 -1.44,128.36 -1.18,128.34 -0.93,128.40 -0.68,128.47 -0.47,128.61 -0.25,128.75 -0.09,128.95 0.06,129.15 0.14,129.39 0.23,129.63 0.23,129.89 0.24,130.15 0.16,130.39 0.08,130.64 -0.06,130.85 -0.21,131.05 -0.42,131.20 -0.63,131.35 -0.88,131.42 -1.12,131.50 -1.38,131.49 -1.64,131.48 -1.88,131.39 -2.12,131.30 -2.32,131.13 -2.52,130.97 -2.65,130.75 -2.79,130.53 -2.85,130.28 -2.91,130.03 -2.91,130.03 -2.91,130.04 -3.03,126.57 -3.15,123.11 -3.58,118.58 -4.00,114.04 -4.16,107.99 -4.32,101.93 -4.29,94.31 -4.25,86.70 -4.15,77.42 -4.06,68.14 -3.83,60.32 -3.60,52.50 -3.04,40.71 -2.49,28.93 -1.99,19.36 -1.49,9.79 -1.52,4.89 -1.56,0 -1.53,-0.18 -1.51,-0.37 -1.45,-0.54 -1.38,-0.72 -1.27,-0.88 -1.16,-1.03 -1.02,-1.16 -0.88,-1.28 -0.72,-1.37 -0.55,-1.46 -0.37,-1.50 -0.18,-1.55 0.00,-1.55 0.18,-1.55 0.37,-1.50 0.55,-1.46 0.72,-1.37 0.88,-1.28 1.02,-1.16 1.16,-1.03 1.27,-0.88 1.38,-0.72 1.45,-0.54 1.51,-0.37 1.53,-0.18 1.56,0.00 1.56,0.00 L 1.56,0 Z"/></g><g transform="translate(324.0276184082031 10) rotate(0 9.737274169921875 69.07389831542969)" stroke="none"><path fill="#c92a2a" d="M 1.58,-0.28 Q 1.58,-0.28 2.94,7.41 4.30,15.12 5.40,26.15 6.49,37.18 7.82,48.31 9.15,59.43 9.89,66.98 10.62,74.53 11.80,84.02 12.98,93.50 14.35,102.59 15.72,111.69 16.83,117.82 17.93,123.95 18.74,127.58 19.56,131.22 20.18,133.94 20.80,136.66 20.81,136.92 20.81,137.17 20.74,137.41 20.66,137.66 20.51,137.86 20.36,138.07 20.15,138.22 19.94,138.37 19.70,138.44 19.45,138.51 19.19,138.50 18.94,138.49 18.70,138.40 18.46,138.31 18.26,138.15 18.07,137.99 17.93,137.77 17.79,137.56 17.73,137.31 17.67,137.06 17.70,136.81 17.72,136.55 17.82,136.32 17.93,136.08 18.10,135.89 18.27,135.71 18.49,135.58 18.72,135.46 18.97,135.41 19.22,135.37 19.47,135.40 19.73,135.44 19.95,135.55 20.18,135.67 20.36,135.85 20.54,136.03 20.65,136.26 20.76,136.49 20.80,136.75 20.83,137.00 20.78,137.25 20.73,137.50 20.60,137.72 20.47,137.94 20.28,138.11 20.09,138.28 19.85,138.38 19.62,138.48 19.36,138.50 19.11,138.52 18.86,138.45 18.61,138.39 18.40,138.25 18.19,138.11 18.03,137.91 17.87,137.71 17.78,137.47 17.70,137.23 17.70,137.23 17.70,137.23 17.32,134.52 16.95,131.80 16.12,128.12 15.29,124.43 14.16,118.26 13.04,112.10 11.65,102.97 10.26,93.84 9.05,84.32 7.85,74.81 7.08,67.29 6.32,59.78 4.95,48.63 3.57,37.48 2.43,26.57 1.29,15.66 -0.14,7.97 -1.58,0.28 -1.59,0.09 -1.60,-0.09 -1.56,-0.28 -1.53,-0.48 -1.45,-0.65 -1.37,-0.83 -1.25,-0.98 -1.13,-1.13 -0.98,-1.25 -0.82,-1.37 -0.65,-1.45 -0.47,-1.53 -0.28,-1.56 -0.09,-1.60 0.09,-1.59 0.29,-1.57 0.47,-1.52 0.66,-1.46 0.82,-1.36 0.99,-1.26 1.12,-1.12 1.26,-0.98 1.36,-0.82 1.46,-0.65 1.52,-0.47 1.58,-0.28 1.58,-0.28 L 1.58,-0.28 Z"/></g><g transform="translate(84.24685668945312 94.59268188476562) rotate(0 31.03759765625 -2.4343109130859375)" stroke="none"><path fill="#c92a2a" d="M -0.29,-1.63 Q -0.29,-1.63 1.62,-1.97 3.55,-2.32 4.94,-2.84 6.33,-3.37 8.62,-3.89 10.92,-4.41 14.06,-4.80 17.20,-5.18 21.15,-5.51 25.11,-5.83 30.49,-5.96 35.88,-6.08 40.96,-6.13 46.04,-6.18 49.42,-6.19 52.80,-6.20 54.77,-6.24 56.73,-6.28 58.92,-6.40 61.10,-6.51 61.36,-6.46 61.63,-6.42 61.86,-6.30 62.10,-6.17 62.28,-5.98 62.47,-5.79 62.58,-5.55 62.69,-5.31 62.72,-5.04 62.75,-4.78 62.69,-4.52 62.64,-4.26 62.50,-4.03 62.36,-3.80 62.16,-3.63 61.96,-3.45 61.71,-3.35 61.47,-3.25 61.20,-3.24 60.93,-3.22 60.68,-3.29 60.42,-3.36 60.20,-3.51 59.98,-3.66 59.82,-3.87 59.66,-4.09 59.57,-4.34 59.48,-4.59 59.48,-4.86 59.48,-5.12 59.57,-5.37 59.65,-5.63 59.81,-5.84 59.97,-6.05 60.19,-6.20 60.41,-6.35 60.67,-6.42 60.92,-6.50 61.19,-6.48 61.46,-6.47 61.70,-6.37 61.95,-6.27 62.15,-6.10 62.36,-5.93 62.50,-5.70 62.63,-5.47 62.69,-5.21 62.75,-4.95 62.72,-4.69 62.69,-4.42 62.58,-4.18 62.47,-3.94 62.29,-3.75 62.11,-3.55 61.87,-3.43 61.64,-3.30 61.37,-3.26 61.11,-3.21 61.11,-3.21 61.11,-3.21 58.93,-3.31 56.75,-3.41 54.79,-3.43 52.83,-3.44 49.45,-3.40 46.07,-3.36 41.02,-3.28 35.96,-3.20 30.67,-3.03 25.37,-2.86 21.49,-2.48 17.61,-2.10 14.67,-1.66 11.72,-1.22 9.58,-0.62 7.43,-0.01 5.79,0.45 4.14,0.92 2.22,1.27 0.29,1.63 0.09,1.64 -0.10,1.65 -0.29,1.62 -0.49,1.58 -0.67,1.50 -0.86,1.42 -1.01,1.29 -1.17,1.17 -1.29,1.01 -1.42,0.85 -1.50,0.67 -1.58,0.49 -1.62,0.29 -1.65,0.09 -1.64,-0.10 -1.63,-0.30 -1.57,-0.49 -1.51,-0.68 -1.40,-0.85 -1.30,-1.02 -1.16,-1.16 -1.02,-1.30 -0.85,-1.41 -0.67,-1.51 -0.48,-1.57 -0.29,-1.63 -0.29,-1.63 L -0.29,-1.63 Z"/></g><g transform="translate(134.75906372070312 76.94387817382812) rotate(0 8.520111083984375 15.214508056640625)" stroke="none"><path fill="#c92a2a" d="M 1.88,-1.14 Q 1.88,-1.14 4.75,3.81 7.63,8.77 9.86,12.46 12.09,16.15 13.68,18.38 15.27,20.62 16.24,22.38 17.20,24.13 17.67,25.44 18.14,26.75 17.78,27.85 17.42,28.96 16.66,29.75 15.90,30.54 14.76,31.03 13.61,31.53 12.42,31.98 11.23,32.43 10.85,32.57 10.47,32.70 10.07,32.71 9.67,32.72 9.29,32.60 8.90,32.48 8.58,32.24 8.26,32.01 8.02,31.68 7.79,31.35 7.68,30.97 7.56,30.59 7.57,30.19 7.59,29.79 7.73,29.41 7.87,29.03 8.12,28.72 8.37,28.41 8.71,28.20 9.05,27.98 9.44,27.89 9.83,27.79 10.23,27.83 10.63,27.86 11.00,28.02 11.36,28.18 11.66,28.45 11.96,28.72 12.15,29.07 12.35,29.42 12.42,29.82 12.49,30.21 12.44,30.61 12.38,31.01 12.20,31.36 12.02,31.72 11.74,32.00 11.45,32.29 11.09,32.46 10.73,32.64 10.33,32.69 9.94,32.74 9.54,32.66 9.15,32.59 8.80,32.39 8.45,32.19 8.19,31.89 7.92,31.59 7.77,31.22 7.61,30.85 7.58,30.45 7.55,30.05 7.65,29.66 7.75,29.27 7.96,28.94 8.18,28.60 8.50,28.35 8.81,28.10 8.81,28.10 8.81,28.10 11.52,26.91 14.24,25.73 13.42,24.17 12.60,22.61 10.83,20.34 9.06,18.07 6.66,14.44 4.26,10.82 1.18,5.98 -1.88,1.14 -1.99,0.90 -2.10,0.66 -2.15,0.39 -2.20,0.13 -2.18,-0.12 -2.17,-0.39 -2.09,-0.64 -2.01,-0.90 -1.87,-1.12 -1.73,-1.35 -1.55,-1.54 -1.36,-1.73 -1.13,-1.87 -0.90,-2.01 -0.65,-2.08 -0.40,-2.16 -0.13,-2.18 0.12,-2.20 0.39,-2.15 0.65,-2.10 0.89,-1.99 1.13,-1.89 1.34,-1.72 1.55,-1.56 1.72,-1.35 1.88,-1.14 1.88,-1.14 L 1.88,-1.14 Z"/></g><g transform="translate(268.0381774902344 91.5498046875) rotate(0 19.1702880859375 0)" stroke="none"><path fill="#c92a2a" d="M 0,-1.88 Q 0,-1.88 2.27,-1.80 4.54,-1.73 8.84,-1.67 13.13,-1.61 16.00,-1.57 18.87,-1.53 21.67,-1.50 24.47,-1.47 26.18,-1.53 27.89,-1.59 30.02,-1.56 32.15,-1.52 34.68,-1.62 37.22,-1.73 37.49,-1.68 37.77,-1.64 38.02,-1.51 38.27,-1.38 38.46,-1.17 38.65,-0.97 38.77,-0.71 38.89,-0.46 38.92,-0.18 38.95,0.09 38.89,0.36 38.83,0.64 38.68,0.88 38.54,1.12 38.33,1.30 38.11,1.48 37.85,1.59 37.59,1.69 37.31,1.70 37.03,1.72 36.76,1.64 36.49,1.57 36.26,1.41 36.02,1.25 35.85,1.03 35.68,0.81 35.60,0.54 35.51,0.28 35.51,-0.00 35.51,-0.28 35.60,-0.54 35.69,-0.81 35.86,-1.03 36.02,-1.25 36.26,-1.41 36.49,-1.57 36.76,-1.64 37.03,-1.72 37.31,-1.70 37.59,-1.69 37.85,-1.59 38.11,-1.48 38.33,-1.30 38.54,-1.12 38.68,-0.88 38.83,-0.64 38.89,-0.36 38.95,-0.09 38.92,0.18 38.89,0.46 38.77,0.71 38.65,0.97 38.46,1.17 38.27,1.38 38.02,1.51 37.77,1.64 37.49,1.68 37.22,1.73 37.22,1.73 37.22,1.73 34.68,1.62 32.15,1.52 30.02,1.56 27.89,1.59 26.18,1.53 24.47,1.47 21.67,1.50 18.87,1.53 16.00,1.57 13.13,1.61 8.84,1.67 4.54,1.73 2.27,1.80 0,1.88 -0.22,1.85 -0.45,1.83 -0.66,1.74 -0.87,1.66 -1.06,1.53 -1.24,1.41 -1.40,1.24 -1.55,1.07 -1.65,0.86 -1.76,0.66 -1.81,0.44 -1.87,0.22 -1.87,-0.00 -1.87,-0.22 -1.81,-0.44 -1.76,-0.66 -1.65,-0.86 -1.55,-1.07 -1.40,-1.24 -1.24,-1.41 -1.06,-1.54 -0.87,-1.66 -0.66,-1.74 -0.45,-1.83 -0.22,-1.85 0.00,-1.88 0.00,-1.88 L 0,-1.88 Z"/></g><g transform="translate(281.4269714355469 78.16102600097656) rotate(0 -14.301666259765625 16.73596954345703)" stroke="none"><path fill="#c92a2a" d="M 0.79,1.58 Q 0.79,1.58 -1.33,2.57 -3.45,3.57 -6.72,5.84 -9.98,8.11 -13.30,10.80 -16.62,13.50 -18.91,15.51 -21.20,17.52 -23.08,19.09 -24.95,20.66 -23.73,22.04 -22.50,23.43 -19.90,24.68 -17.30,25.93 -14.80,27.01 -12.30,28.08 -10.36,28.90 -8.42,29.72 -6.15,30.83 -3.89,31.95 -3.68,32.08 -3.47,32.22 -3.32,32.41 -3.16,32.61 -3.07,32.84 -2.99,33.07 -2.98,33.32 -2.97,33.57 -3.05,33.81 -3.12,34.05 -3.27,34.25 -3.41,34.45 -3.61,34.60 -3.82,34.74 -4.05,34.81 -4.29,34.89 -4.54,34.88 -4.79,34.87 -5.02,34.79 -5.26,34.70 -5.45,34.55 -5.64,34.39 -5.78,34.18 -5.91,33.97 -5.97,33.73 -6.03,33.49 -6.01,33.24 -5.99,32.99 -5.89,32.76 -5.80,32.53 -5.63,32.35 -5.46,32.16 -5.25,32.04 -5.03,31.92 -4.78,31.87 -4.54,31.82 -4.29,31.86 -4.05,31.89 -3.82,32.00 -3.60,32.11 -3.42,32.29 -3.25,32.46 -3.14,32.69 -3.03,32.91 -2.99,33.16 -2.96,33.40 -3.01,33.65 -3.05,33.89 -3.18,34.11 -3.30,34.33 -3.49,34.49 -3.67,34.66 -3.90,34.76 -4.13,34.86 -4.38,34.88 -4.62,34.90 -4.87,34.84 -5.11,34.78 -5.11,34.78 -5.11,34.78 -7.32,33.60 -9.52,32.43 -11.49,31.65 -13.46,30.87 -16.04,29.84 -18.63,28.81 -21.41,27.57 -24.18,26.34 -26.52,24.88 -28.86,23.42 -28.77,21.82 -28.68,20.21 -27.73,19.36 -26.77,18.51 -24.95,16.94 -23.12,15.37 -20.82,13.28 -18.52,11.20 -15.15,8.38 -11.78,5.57 -8.36,3.09 -4.93,0.62 -2.86,-0.48 -0.79,-1.58 -0.59,-1.65 -0.39,-1.73 -0.17,-1.75 0.03,-1.77 0.24,-1.74 0.45,-1.71 0.65,-1.63 0.85,-1.55 1.02,-1.42 1.20,-1.30 1.34,-1.14 1.47,-0.97 1.57,-0.78 1.67,-0.59 1.71,-0.38 1.76,-0.17 1.76,0.03 1.75,0.24 1.70,0.45 1.64,0.66 1.54,0.84 1.43,1.03 1.29,1.19 1.14,1.35 0.97,1.46 0.79,1.58 0.79,1.58 L 0.79,1.58 Z"/></g><g transform="translate(54.426422119140625 156.796630859375) rotate(0 31.5 13.5)"><text x="0" y="21" font-family="Helvetica, Segoe UI Emoji" font-size="20px" fill="#c92a2a" text-anchor="start" style="white-space: pre;" direction="ltr">L1栈底</text></g><g transform="translate(302.4840393066406 158.46871948242188) rotate(0 31.5 13.5)"><text x="0" y="21" font-family="Helvetica, Segoe UI Emoji" font-size="20px" fill="#c92a2a" text-anchor="start" style="white-space: pre;" direction="ltr">L2栈底</text></g></svg>