<svg version="1.1" xmlns="http://www.w3.org/2000/svg" viewBox="0 0 700 600" width="700" height="600">
  <!-- svg-source:excalidraw -->
  
  <defs>
    <style>
      @font-face {
        font-family: "Virgil";
        src: url("https://unpkg.com/@zsviczian/excalidraw@0.12.0-obsidian-11/dist/excalidraw-assets/Virgil.woff2");
      }
      @font-face {
        font-family: "Cascadia";
        src: url("https://unpkg.com/@zsviczian/excalidraw@0.12.0-obsidian-11/dist/excalidraw-assets/Cascadia.woff2");
      }
    </style>
  </defs>
  <rect x="0" y="0" width="700" height="600" fill="#f1f3f5"/><g stroke-linecap="round" transform="translate(230 190) rotate(0 100 60)"><path d="M-0.48 0.31 C46.75 -1.49, 96.62 -0.21, 199.08 0.6 M0.16 -0.19 C52.79 -1.13, 106.85 -2.5, 200.79 0.16 M201.18 1.36 C199.1 27.11, 197.82 51.45, 199.33 120.19 M200.3 -0.31 C199.54 28, 198.62 53.59, 200.66 119.05 M199.33 121.46 C144.19 122.21, 89.08 120.74, 1.69 120.09 M199.3 120.65 C151.74 120.14, 103.53 120.45, 0.32 119.73 M-1.46 121.71 C-1.08 93.75, 1.16 62.41, 1.61 -0.32 M-0.87 120.18 C-0.32 92.99, 0.2 65.26, 0.46 0.9" stroke="#000000" stroke-width="1" fill="none"/></g><g stroke-linecap="round"><g transform="translate(230 250) rotate(0 100 0)"><path d="M-0.25 -0.28 C33.02 -0.12, 167.57 0.92, 200.77 1.14 M1.82 -1.47 C34.9 -1.64, 166.98 -0.5, 200.22 -0.38" stroke="#000000" stroke-width="1" fill="none"/></g></g><g stroke-linecap="round"><g transform="translate(330 190) rotate(0 0 60)"><path d="M0.81 -0.03 C1.06 19.71, 0.82 99.26, 0.61 119.19 M-0.22 -1.1 C0.01 18.72, 0.18 100.01, -0.02 120.31" stroke="#000000" stroke-width="1" fill="none"/></g></g><g stroke-linecap="round"><g transform="translate(230 10) rotate(0 0 280)"><path d="M-0.6 1 C-0.56 94.42, 0.23 466.28, 0.36 559.62 M1.29 0.48 C1.19 94.15, -0.1 467.84, -0.41 560.96" stroke="#000000" stroke-width="1" fill="none"/></g></g><g stroke-linecap="round"><g transform="translate(430 10) rotate(0 0 290)"><path d="M-0.85 0.69 C-0.73 97.55, -0.62 484.29, -0.45 580.98 M0.91 0 C0.92 96.57, -1.4 482.89, -1.63 579.37" stroke="#000000" stroke-width="1" fill="none"/></g></g><g stroke-linecap="round"><g transform="translate(10 190) rotate(0 330 0)"><path d="M1.13 0.61 C111.11 0.52, 550.74 -0.38, 660.42 -0.36 M0.26 -0.11 C110.08 -0.05, 549.46 1.17, 659.69 0.99" stroke="#000000" stroke-width="1" fill="none"/></g></g><g stroke-linecap="round"><g transform="translate(10 310) rotate(0 340 0)"><path d="M0.56 0.43 C114.27 0.39, 567.85 -0.11, 681.18 0 M-0.6 -0.39 C113.14 -0.24, 567.41 1.58, 680.86 1.53" stroke="#000000" stroke-width="1" fill="none"/></g></g><g transform="translate(278.16589736938477 206.07205963134766) rotate(0 0.365142822265625 10.224166870117188)" stroke="none"><path fill="#a61e4d" d="M 2.08,0 Q 2.08,0 2.12,1.46 2.15,2.93 2.10,4.82 2.05,6.70 1.97,8.76 1.89,10.82 1.81,12.96 1.73,15.09 2.11,17.16 2.49,19.22 2.48,19.53 2.47,19.84 2.37,20.13 2.26,20.42 2.07,20.66 1.87,20.90 1.61,21.07 1.35,21.24 1.05,21.31 0.75,21.38 0.44,21.36 0.13,21.33 -0.14,21.21 -0.43,21.09 -0.66,20.88 -0.89,20.68 -1.04,20.41 -1.19,20.14 -1.25,19.83 -1.31,19.53 -1.27,19.22 -1.23,18.92 -1.09,18.64 -0.95,18.36 -0.73,18.14 -0.51,17.92 -0.24,17.79 0.03,17.65 0.34,17.61 0.64,17.56 0.95,17.62 1.25,17.68 1.52,17.83 1.79,17.99 2.00,18.22 2.21,18.45 2.33,18.73 2.45,19.02 2.48,19.32 2.50,19.63 2.43,19.93 2.35,20.23 2.18,20.49 2.02,20.76 1.78,20.95 1.54,21.14 1.24,21.25 0.95,21.36 0.64,21.37 0.34,21.37 0.04,21.28 -0.25,21.19 -0.50,21.01 -0.75,20.83 -0.93,20.58 -1.11,20.33 -1.20,20.03 -1.29,19.74 -1.29,19.74 -1.29,19.74 -1.51,17.42 -1.73,15.10 -1.81,12.96 -1.89,10.82 -1.97,8.76 -2.05,6.70 -2.10,4.82 -2.15,2.93 -2.12,1.46 -2.08,0 -2.05,-0.24 -2.02,-0.49 -1.93,-0.73 -1.84,-0.97 -1.70,-1.17 -1.56,-1.38 -1.37,-1.55 -1.18,-1.71 -0.96,-1.83 -0.74,-1.95 -0.49,-2.01 -0.25,-2.07 0.00,-2.07 0.25,-2.07 0.49,-2.01 0.74,-1.95 0.96,-1.83 1.18,-1.71 1.37,-1.55 1.56,-1.38 1.70,-1.17 1.84,-0.97 1.93,-0.73 2.02,-0.49 2.05,-0.24 2.08,0.00 2.08,0.00 L 2.08,0 Z"/></g><g transform="translate(362.88034439086914 205.3417739868164) rotate(0 5.112030029296875 9.128707885742188)" stroke="none"><path fill="#a61e4d" d="M 0,-2.64 Q 0,-2.64 1.04,-2.67 2.09,-2.70 3.18,-2.72 4.26,-2.74 5.46,-2.52 6.65,-2.30 8.32,-1.78 9.99,-1.25 11.08,0.92 12.18,3.10 12.70,4.74 13.22,6.38 12.41,8.38 11.61,10.38 9.21,12.46 6.82,14.55 4.74,15.91 2.66,17.27 1.90,18.11 1.13,18.96 0.88,19.10 0.63,19.24 0.36,19.32 0.08,19.40 -0.19,19.41 -0.48,19.42 -0.76,19.36 -1.03,19.31 -1.29,19.18 -1.55,19.06 -1.77,18.88 -1.99,18.70 -2.16,18.47 -2.33,18.24 -2.44,17.98 -2.55,17.71 -2.60,17.43 -2.64,17.15 -2.62,16.87 -2.60,16.58 -2.51,16.31 -2.41,16.04 -2.26,15.80 -2.11,15.56 -1.90,15.36 -1.70,15.17 0.13,15.45 1.97,15.74 3.07,15.66 4.16,15.58 5.66,15.53 7.16,15.49 9.23,15.48 11.29,15.46 11.73,15.53 12.18,15.61 12.58,15.82 12.98,16.03 13.29,16.36 13.60,16.69 13.79,17.10 13.97,17.51 14.02,17.96 14.07,18.41 13.97,18.85 13.88,19.29 13.64,19.68 13.41,20.06 13.06,20.36 12.72,20.65 12.30,20.81 11.88,20.98 11.43,21.00 10.98,21.03 10.54,20.91 10.11,20.79 9.73,20.53 9.36,20.28 9.09,19.92 8.81,19.56 8.67,19.13 8.53,18.70 8.53,18.25 8.53,17.80 8.67,17.37 8.82,16.94 9.09,16.58 9.36,16.22 9.74,15.97 10.11,15.71 10.55,15.59 10.98,15.47 11.44,15.50 11.89,15.52 12.31,15.69 12.73,15.86 13.07,16.15 13.41,16.45 13.65,16.83 13.88,17.22 13.98,17.66 14.07,18.11 14.02,18.55 13.97,19.00 13.78,19.41 13.59,19.82 13.28,20.15 12.97,20.48 12.57,20.69 12.17,20.90 11.72,20.97 11.28,21.05 11.28,21.05 11.28,21.05 9.17,21.01 7.06,20.98 5.41,20.86 3.75,20.75 2.44,19.85 1.13,18.96 0.88,19.10 0.63,19.24 0.36,19.32 0.08,19.40 -0.19,19.41 -0.48,19.42 -0.76,19.36 -1.03,19.31 -1.29,19.18 -1.55,19.06 -1.77,18.88 -1.99,18.70 -2.16,18.47 -2.33,18.24 -2.44,17.98 -2.55,17.72 -2.60,17.43 -2.64,17.15 -2.62,16.87 -2.60,16.58 -2.51,16.31 -2.41,16.04 -2.26,15.80 -2.11,15.56 -1.90,15.36 -1.70,15.17 -0.87,14.40 -0.05,13.64 1.61,12.20 3.28,10.76 5.27,8.45 7.26,6.14 7.17,4.75 7.08,3.37 5.66,3.05 4.23,2.74 3.16,2.72 2.09,2.70 1.04,2.67 0,2.64 -0.31,2.61 -0.63,2.57 -0.93,2.45 -1.23,2.34 -1.49,2.16 -1.75,1.98 -1.96,1.74 -2.18,1.50 -2.32,1.22 -2.47,0.93 -2.55,0.62 -2.62,0.31 -2.62,-0.00 -2.62,-0.31 -2.55,-0.62 -2.47,-0.93 -2.32,-1.22 -2.18,-1.50 -1.96,-1.74 -1.75,-1.98 -1.49,-2.16 -1.23,-2.34 -0.93,-2.45 -0.63,-2.57 -0.31,-2.61 0.00,-2.64 0.00,-2.64 L 0,-2.64 Z"/></g><g transform="translate(278.16589736938477 267.41699981689453) rotate(0 10.224166870117188 17.161972045898438)" stroke="none"><path fill="#a61e4d" d="M 0,-2.28 Q 0,-2.28 2.31,-2.15 4.62,-2.03 7.03,-1.49 9.44,-0.96 11.26,-0.57 13.08,-0.17 14.29,0.44 15.49,1.06 16.20,2.90 16.90,4.74 17.09,6.31 17.28,7.88 17.37,9.39 17.46,10.90 17.56,12.77 17.67,14.64 17.15,15.92 16.63,17.19 18.15,18.03 19.68,18.87 19.02,21.14 18.37,23.41 17.27,23.78 16.18,24.16 14.89,24.22 13.60,24.28 12.39,24.32 11.19,24.36 10.33,24.69 9.47,25.01 9.08,25.08 8.69,25.15 8.29,25.12 7.90,25.09 7.52,24.97 7.14,24.85 6.80,24.64 6.46,24.43 6.18,24.14 5.90,23.86 5.70,23.51 5.50,23.17 5.38,22.79 5.27,22.41 5.25,22.01 5.23,21.61 5.31,21.22 5.38,20.83 5.55,20.47 5.72,20.11 5.97,19.80 6.21,19.49 6.53,19.24 6.85,19.00 7.21,18.84 7.58,18.68 8.89,18.63 10.20,18.57 11.69,18.54 13.18,18.51 14.69,18.52 16.20,18.52 17.78,18.55 19.35,18.58 20.56,19.08 21.77,19.57 21.83,19.76 21.88,19.94 22.22,20.18 22.55,20.43 22.81,20.74 23.08,21.06 23.26,21.43 23.44,21.80 23.53,22.20 23.62,22.61 23.60,23.02 23.59,23.43 23.48,23.83 23.37,24.22 23.17,24.58 22.97,24.94 22.69,25.25 22.40,25.55 22.06,25.77 21.71,26.00 21.32,26.13 20.93,26.27 20.52,26.30 20.11,26.34 19.70,26.28 19.30,26.22 18.91,26.06 18.53,25.91 19.59,26.15 20.65,26.40 19.90,27.48 19.15,28.56 17.90,29.70 16.65,30.84 15.99,31.70 15.33,32.56 14.37,33.52 13.41,34.49 10.64,35.99 7.87,37.48 7.32,37.58 6.78,37.67 6.23,37.59 5.69,37.50 5.20,37.25 4.71,36.99 4.32,36.60 3.94,36.20 3.70,35.70 3.47,35.20 3.40,34.65 3.34,34.10 3.45,33.56 3.56,33.02 3.84,32.54 4.13,32.07 4.54,31.71 4.96,31.35 5.47,31.14 5.98,30.93 6.54,30.89 7.09,30.86 7.62,31.00 8.15,31.14 8.61,31.45 9.07,31.76 9.41,32.19 9.75,32.63 9.93,33.15 10.11,33.67 10.12,34.23 10.12,34.78 9.95,35.30 9.78,35.83 9.45,36.27 9.12,36.71 8.66,37.03 8.21,37.34 7.68,37.50 7.15,37.65 6.60,37.62 6.04,37.60 5.53,37.40 5.01,37.20 4.59,36.84 4.16,36.49 3.88,36.02 3.59,35.55 3.46,35.01 3.34,34.47 3.39,33.92 3.45,33.37 3.68,32.87 3.90,32.36 4.28,31.96 4.66,31.56 5.14,31.29 5.63,31.03 5.63,31.03 5.63,31.03 6.54,30.96 7.45,30.90 8.50,30.00 9.55,29.09 10.38,27.79 11.22,26.49 12.32,25.55 13.41,24.61 14.50,23.60 15.59,22.58 16.97,21.27 18.35,19.95 20.12,19.95 21.88,19.94 22.22,20.18 22.55,20.43 22.81,20.74 23.08,21.06 23.26,21.43 23.44,21.80 23.53,22.20 23.62,22.60 23.60,23.02 23.59,23.43 23.48,23.83 23.37,24.22 23.17,24.58 22.97,24.94 22.69,25.25 22.40,25.55 22.06,25.77 21.71,26.00 21.32,26.13 20.93,26.27 20.52,26.30 20.11,26.34 19.70,26.28 19.30,26.22 18.92,26.06 18.53,25.91 17.96,25.60 17.38,25.30 15.90,25.31 14.42,25.31 13.33,25.29 12.25,25.28 10.86,25.14 9.48,25.01 9.08,25.08 8.69,25.15 8.29,25.12 7.90,25.09 7.52,24.97 7.14,24.85 6.80,24.64 6.46,24.43 6.18,24.14 5.90,23.86 5.70,23.51 5.50,23.17 5.38,22.79 5.27,22.41 5.25,22.01 5.23,21.61 5.31,21.22 5.38,20.83 5.55,20.47 5.72,20.11 5.97,19.80 6.21,19.49 6.53,19.24 6.85,19.00 7.21,18.84 7.58,18.68 7.61,18.95 7.65,19.21 9.41,18.60 11.18,17.98 12.36,18.01 13.55,18.05 15.09,18.21 16.64,18.37 16.23,20.35 15.83,22.32 14.65,22.05 13.48,21.79 12.72,20.99 11.97,20.20 11.69,19.07 11.42,17.94 12.19,16.02 12.96,14.10 13.00,12.59 13.03,11.08 13.00,9.69 12.97,8.29 12.89,6.98 12.81,5.66 12.54,4.53 12.28,3.40 10.52,3.02 8.76,2.64 6.68,2.33 4.61,2.03 2.30,2.15 0,2.28 -0.27,2.25 -0.54,2.22 -0.80,2.12 -1.06,2.02 -1.28,1.86 -1.51,1.71 -1.69,1.50 -1.88,1.29 -2.01,1.05 -2.13,0.81 -2.20,0.54 -2.27,0.27 -2.27,-0.00 -2.27,-0.27 -2.20,-0.54 -2.13,-0.81 -2.01,-1.05 -1.88,-1.29 -1.69,-1.50 -1.51,-1.71 -1.28,-1.86 -1.06,-2.02 -0.80,-2.12 -0.54,-2.22 -0.27,-2.25 0.00,-2.28 0.00,-2.28 L 0,-2.28 Z"/></g><g transform="translate(364.3409767150879 266.68668365478516) rotate(0 10.22412109375 8.03326416015625)" stroke="none"><path fill="#a61e4d" d="M 2.03,0 Q 2.03,0 1.93,3.56 1.84,7.13 1.77,9.28 1.70,11.43 1.79,12.55 1.89,13.67 4.18,13.80 6.47,13.92 9.02,14.04 11.56,14.16 13.28,14.16 14.99,14.15 17.59,14.04 20.19,13.93 20.53,13.99 20.87,14.05 21.17,14.21 21.47,14.37 21.71,14.62 21.95,14.87 22.09,15.18 22.24,15.49 22.27,15.84 22.31,16.18 22.24,16.51 22.16,16.85 21.98,17.15 21.81,17.44 21.54,17.66 21.28,17.88 20.96,18.01 20.64,18.14 20.30,18.16 19.95,18.18 19.62,18.08 19.29,17.99 19.01,17.80 18.72,17.60 18.51,17.33 18.31,17.06 18.20,16.73 18.09,16.40 18.09,16.06 18.09,15.72 18.20,15.39 18.31,15.06 18.52,14.79 18.72,14.52 19.01,14.32 19.29,14.13 19.63,14.04 19.96,13.95 20.30,13.97 20.65,13.98 20.96,14.11 21.28,14.24 21.55,14.46 21.81,14.69 21.99,14.98 22.16,15.28 22.24,15.61 22.31,15.95 22.27,16.29 22.24,16.63 22.09,16.94 21.95,17.26 21.71,17.51 21.47,17.76 21.17,17.92 20.86,18.08 20.52,18.13 20.18,18.19 20.18,18.19 20.18,18.19 17.58,18.07 14.97,17.95 13.25,17.92 11.53,17.89 8.95,17.97 6.37,18.05 4.17,18.10 1.97,18.15 0.55,17.66 -0.87,17.17 -1.38,15.42 -1.89,13.67 -1.79,12.55 -1.70,11.43 -1.77,9.28 -1.84,7.13 -1.93,3.56 -2.03,0 -2.00,-0.24 -1.97,-0.48 -1.89,-0.71 -1.80,-0.94 -1.66,-1.14 -1.52,-1.35 -1.34,-1.51 -1.15,-1.67 -0.93,-1.78 -0.72,-1.90 -0.48,-1.96 -0.24,-2.02 0.00,-2.02 0.24,-2.02 0.48,-1.96 0.72,-1.90 0.93,-1.78 1.15,-1.67 1.34,-1.51 1.52,-1.35 1.66,-1.14 1.80,-0.94 1.89,-0.71 1.97,-0.48 2.00,-0.24 2.03,0.00 2.03,0.00 L 2.03,0 Z"/></g><g transform="translate(381.8680763244629 265.9563980102539) rotate(0 -1.460601806640625 17.527130126953125)" stroke="none"><path fill="#a61e4d" d="M 1.96,0.28 Q 1.96,0.28 1.24,4.67 0.52,9.07 -0.01,14.46 -0.55,19.85 -0.80,23.39 -1.04,26.94 -1.17,29.07 -1.29,31.20 -1.26,32.80 -1.22,34.40 -1.28,34.66 -1.33,34.93 -1.46,35.16 -1.60,35.40 -1.80,35.58 -2.00,35.76 -2.25,35.86 -2.50,35.97 -2.77,35.99 -3.04,36.01 -3.30,35.94 -3.56,35.87 -3.79,35.73 -4.01,35.58 -4.18,35.37 -4.35,35.16 -4.44,34.90 -4.53,34.65 -4.54,34.38 -4.55,34.11 -4.47,33.85 -4.38,33.59 -4.23,33.38 -4.07,33.16 -3.85,33.00 -3.63,32.84 -3.37,32.77 -3.11,32.69 -2.84,32.70 -2.57,32.71 -2.32,32.80 -2.06,32.90 -1.85,33.07 -1.64,33.24 -1.50,33.46 -1.36,33.69 -1.29,33.96 -1.23,34.22 -1.25,34.49 -1.28,34.76 -1.38,35.00 -1.49,35.25 -1.67,35.45 -1.85,35.65 -2.09,35.78 -2.33,35.91 -2.59,35.96 -2.86,36.01 -3.13,35.97 -3.39,35.94 -3.63,35.82 -3.87,35.69 -4.06,35.50 -4.25,35.31 -4.37,35.07 -4.49,34.82 -4.53,34.56 -4.56,34.29 -4.56,34.29 -4.56,34.29 -4.43,32.69 -4.29,31.08 -4.24,28.92 -4.19,26.76 -4.03,23.16 -3.87,19.55 -3.46,14.06 -3.04,8.56 -2.50,4.14 -1.96,-0.28 -1.90,-0.51 -1.83,-0.74 -1.72,-0.95 -1.60,-1.16 -1.44,-1.33 -1.28,-1.51 -1.08,-1.64 -0.88,-1.77 -0.65,-1.85 -0.43,-1.93 -0.19,-1.95 0.04,-1.98 0.27,-1.94 0.51,-1.91 0.73,-1.82 0.95,-1.73 1.15,-1.59 1.34,-1.45 1.50,-1.27 1.65,-1.09 1.76,-0.87 1.86,-0.66 1.92,-0.43 1.97,-0.19 1.96,0.04 1.96,0.28 1.96,0.28 L 1.96,0.28 Z"/></g><g transform="translate(492.1428565979004 222.86890411376953) rotate(0 -54.04193115234375 93.84315490722656)" stroke="none"><path fill="#1864ab" d="M 0,1.56 Q 0,1.56 -5.87,1.52 -11.75,1.49 -18.87,1.46 -25.99,1.44 -32.56,1.63 -39.13,1.82 -45.70,2.11 -52.28,2.39 -58.03,2.51 -63.78,2.63 -70.37,3.30 -76.95,3.98 -80.84,4.27 -84.73,4.55 -89.10,4.88 -93.47,5.21 -96.44,6.16 -99.42,7.11 -101.88,7.55 -104.33,7.98 -105.05,9.22 -105.76,10.46 -105.96,12.84 -106.16,15.22 -105.45,20.58 -104.74,25.94 -103.81,35.46 -102.89,44.98 -102.30,53.44 -101.71,61.90 -100.83,70.51 -99.96,79.12 -99.59,86.81 -99.23,94.50 -98.66,101.51 -98.09,108.52 -97.84,115.32 -97.60,122.12 -97.50,128.58 -97.40,135.04 -97.57,142.43 -97.74,149.81 -98.66,156.17 -99.58,162.53 -100.81,168.80 -102.05,175.07 -102.57,178.12 -103.09,181.17 -103.23,182.88 -103.37,184.59 -104.33,186.60 -105.29,188.62 -105.51,188.75 -105.73,188.89 -105.98,188.95 -106.22,189.00 -106.48,188.98 -106.73,188.96 -106.97,188.85 -107.20,188.75 -107.39,188.57 -107.57,188.40 -107.70,188.18 -107.82,187.95 -107.86,187.70 -107.91,187.45 -107.87,187.20 -107.83,186.94 -107.71,186.72 -107.60,186.49 -107.41,186.31 -107.23,186.13 -107.00,186.02 -106.77,185.91 -106.52,185.88 -106.26,185.85 -106.01,185.90 -105.76,185.96 -105.54,186.08 -105.32,186.21 -105.15,186.41 -104.99,186.60 -104.89,186.83 -104.79,187.07 -104.78,187.33 -104.76,187.58 -104.82,187.83 -104.89,188.07 -105.03,188.29 -105.17,188.50 -105.37,188.66 -105.57,188.81 -105.81,188.90 -106.05,188.98 -106.31,188.99 -106.57,188.99 -106.81,188.91 -107.05,188.83 -107.26,188.68 -107.46,188.53 -107.61,188.32 -107.75,188.11 -107.82,187.86 -107.90,187.62 -107.89,187.36 -107.87,187.11 -107.78,186.87 -107.69,186.63 -107.53,186.44 -107.37,186.24 -107.37,186.24 -107.37,186.24 -106.83,185.23 -106.29,184.21 -105.99,182.47 -105.69,180.73 -105.17,177.64 -104.64,174.55 -103.42,168.35 -102.20,162.15 -101.30,155.95 -100.40,149.75 -100.24,142.42 -100.08,135.09 -100.19,128.65 -100.30,122.22 -100.55,115.49 -100.80,108.75 -101.39,101.69 -101.99,94.64 -102.38,87.02 -102.76,79.41 -103.68,70.76 -104.59,62.11 -105.22,53.70 -105.86,45.28 -106.85,35.82 -107.83,26.37 -108.64,20.69 -109.46,15.01 -109.29,12.16 -109.13,9.31 -108.30,7.81 -107.48,6.31 -106.14,5.85 -104.80,5.38 -102.51,4.98 -100.21,4.58 -96.95,3.57 -93.69,2.56 -89.31,2.22 -84.93,1.88 -81.08,1.59 -77.23,1.29 -70.54,0.60 -63.84,-0.09 -58.12,-0.22 -52.40,-0.36 -45.81,-0.67 -39.22,-0.98 -32.60,-1.21 -25.99,-1.44 -18.87,-1.46 -11.75,-1.49 -5.87,-1.52 0,-1.56 0.18,-1.53 0.37,-1.51 0.54,-1.45 0.72,-1.38 0.88,-1.27 1.03,-1.16 1.16,-1.02 1.28,-0.88 1.37,-0.72 1.46,-0.55 1.50,-0.37 1.55,-0.18 1.55,0.00 1.55,0.18 1.50,0.37 1.46,0.55 1.37,0.72 1.28,0.88 1.16,1.02 1.03,1.16 0.88,1.27 0.72,1.38 0.54,1.45 0.37,1.51 0.18,1.53 -0.00,1.56 -0.00,1.56 L 0,1.56 Z"/></g><g transform="translate(366.53183364868164 379.88272857666016) rotate(0 27.751251220703125 21.543731689453125)" stroke="none"><path fill="#1864ab" d="M 1.33,-0.98 Q 1.33,-0.98 4.23,3.03 7.14,7.04 11.29,12.53 15.44,18.01 20.13,23.91 24.82,29.81 27.45,33.17 30.07,36.53 31.56,38.13 33.05,39.72 34.46,38.57 35.87,37.42 37.54,34.30 39.20,31.18 41.87,26.82 44.54,22.46 47.31,16.49 50.09,10.53 51.67,5.99 53.24,1.44 53.37,1.22 53.50,0.99 53.69,0.82 53.89,0.65 54.13,0.54 54.37,0.44 54.63,0.42 54.89,0.40 55.14,0.46 55.39,0.53 55.61,0.67 55.83,0.81 55.99,1.01 56.15,1.22 56.24,1.46 56.33,1.71 56.34,1.97 56.34,2.23 56.27,2.48 56.19,2.72 56.04,2.94 55.88,3.15 55.67,3.30 55.46,3.45 55.21,3.52 54.96,3.60 54.70,3.59 54.44,3.58 54.20,3.49 53.95,3.40 53.75,3.24 53.55,3.07 53.41,2.85 53.27,2.63 53.21,2.38 53.15,2.13 53.17,1.87 53.19,1.61 53.29,1.37 53.40,1.13 53.57,0.94 53.75,0.75 53.97,0.62 54.20,0.49 54.46,0.44 54.71,0.40 54.97,0.43 55.23,0.47 55.46,0.58 55.69,0.70 55.88,0.89 56.06,1.07 56.18,1.30 56.29,1.54 56.32,1.80 56.36,2.05 56.31,2.31 56.26,2.57 56.26,2.56 56.26,2.56 54.45,7.14 52.63,11.71 49.82,17.83 47.00,23.95 44.41,28.26 41.82,32.57 40.00,36.02 38.18,39.47 36.52,41.32 34.85,43.16 32.95,42.39 31.04,41.62 29.45,39.95 27.85,38.28 25.21,34.95 22.56,31.62 17.81,25.73 13.06,19.83 8.84,14.37 4.61,8.90 1.63,4.94 -1.33,0.98 -1.43,0.81 -1.53,0.63 -1.58,0.44 -1.64,0.25 -1.64,0.05 -1.65,-0.14 -1.61,-0.34 -1.57,-0.54 -1.48,-0.72 -1.39,-0.90 -1.26,-1.05 -1.14,-1.20 -0.97,-1.32 -0.81,-1.44 -0.63,-1.52 -0.44,-1.60 -0.24,-1.63 -0.05,-1.66 0.14,-1.64 0.34,-1.62 0.53,-1.56 0.72,-1.49 0.89,-1.38 1.06,-1.27 1.20,-1.13 1.33,-0.98 1.33,-0.98 L 1.33,-0.98 Z"/></g><g stroke-linecap="round"><g transform="translate(90 270) rotate(0 220 0)"><path d="M1.12 0.54 C74.61 0.35, 367.07 -0.65, 440.37 -0.57 M0.25 -0.22 C73.66 -0.3, 366.22 0.77, 439.61 0.67" stroke="#1864ab" stroke-width="1" fill="none"/></g><g transform="translate(90 270) rotate(0 220 0)"><path d="M412.3 11.5 C417.54 9.54, 427.26 4.02, 440.38 0.61 M410.72 10.6 C421.04 8, 430.51 3.34, 439.51 -0.28" stroke="#1864ab" stroke-width="1" fill="none"/></g><g transform="translate(90 270) rotate(0 220 0)"><path d="M412.33 -9.02 C417.65 -5.79, 427.37 -6.13, 440.38 0.61 M410.75 -9.92 C421.08 -5.36, 430.54 -2.86, 439.51 -0.28" stroke="#1864ab" stroke-width="1" fill="none"/></g></g><g transform="translate(270.1326332092285 374.7706069946289) rotate(0 132.18370056152344 -88.73104858398438)" stroke="none"><path fill="#1864ab" d="M -1.55,-0.15 Q -1.55,-0.15 -1.10,-4.35 -0.64,-8.54 0.39,-16.02 1.44,-23.50 2.74,-30.06 4.03,-36.62 5.85,-45.90 7.66,-55.18 9.06,-63.73 10.46,-72.27 11.27,-79.03 12.07,-85.79 12.84,-91.41 13.61,-97.04 13.93,-103.57 14.25,-110.09 14.39,-115.19 14.53,-120.28 14.59,-123.71 14.65,-127.13 14.68,-130.89 14.70,-134.65 14.72,-137.93 14.73,-141.21 14.73,-143.44 14.74,-145.68 14.74,-147.88 14.74,-150.09 14.62,-151.45 14.51,-152.81 14.42,-154.91 14.34,-157.02 15.05,-157.96 15.77,-158.91 18.33,-159.17 20.90,-159.43 24.14,-159.42 27.38,-159.40 30.42,-159.37 33.47,-159.34 37.91,-159.30 42.36,-159.27 46.56,-159.24 50.75,-159.22 54.13,-159.61 57.51,-160.00 59.57,-160.37 61.63,-160.74 67.94,-162.35 74.25,-163.96 78.85,-165.07 83.45,-166.18 87.15,-166.66 90.85,-167.14 97.23,-167.97 103.60,-168.79 118.05,-171.03 132.50,-173.27 139.92,-174.22 147.35,-175.17 151.14,-175.58 154.93,-175.98 157.52,-176.56 160.10,-177.14 164.45,-177.61 168.80,-178.09 173.60,-178.28 178.40,-178.48 182.33,-178.57 186.25,-178.65 188.97,-178.68 191.69,-178.72 194.32,-178.73 196.94,-178.75 199.32,-178.76 201.70,-178.76 204.09,-178.33 206.47,-177.91 208.63,-177.74 210.79,-177.57 212.55,-177.56 214.32,-177.56 217.62,-177.30 220.91,-177.03 222.72,-176.99 224.52,-176.94 226.12,-177.07 227.71,-177.21 229.54,-177.12 231.37,-177.02 232.95,-177.04 234.54,-177.05 236.62,-177.10 238.70,-177.15 240.19,-176.93 241.69,-176.70 242.76,-176.64 243.83,-176.58 245.31,-176.51 246.80,-176.44 248.07,-176.43 249.34,-176.43 252.90,-175.85 256.46,-175.28 259.76,-175.08 263.05,-174.89 263.44,-174.80 263.82,-174.70 264.15,-174.49 264.49,-174.28 264.74,-173.98 264.99,-173.67 265.12,-173.30 265.26,-172.93 265.27,-172.54 265.29,-172.14 265.17,-171.76 265.06,-171.39 264.83,-171.06 264.60,-170.74 264.28,-170.51 263.96,-170.28 263.59,-170.16 263.21,-170.04 262.82,-170.05 262.42,-170.06 262.05,-170.19 261.68,-170.33 261.37,-170.57 261.06,-170.82 260.85,-171.15 260.63,-171.48 260.54,-171.86 260.44,-172.25 260.47,-172.64 260.50,-173.03 260.65,-173.40 260.81,-173.76 261.07,-174.06 261.33,-174.35 261.67,-174.55 262.01,-174.74 262.40,-174.82 262.79,-174.90 263.18,-174.85 263.57,-174.79 263.93,-174.62 264.28,-174.45 264.56,-174.17 264.84,-173.89 265.02,-173.54 265.20,-173.19 265.25,-172.80 265.31,-172.41 265.24,-172.02 265.16,-171.63 264.97,-171.28 264.78,-170.94 264.49,-170.67 264.19,-170.41 263.83,-170.25 263.47,-170.09 263.08,-170.06 262.68,-170.03 262.68,-170.03 262.68,-170.03 259.20,-170.34 255.72,-170.66 252.50,-170.95 249.28,-171.23 247.97,-171.26 246.67,-171.28 245.05,-171.29 243.43,-171.30 242.14,-171.42 240.84,-171.54 239.75,-171.74 238.65,-171.94 237.57,-171.98 236.49,-172.02 235.42,-172.08 234.34,-172.13 232.35,-172.41 230.37,-172.68 228.98,-173.03 227.59,-173.38 225.97,-173.64 224.35,-173.90 222.53,-174.06 220.71,-174.21 217.45,-174.43 214.19,-174.66 212.39,-174.80 210.58,-174.95 208.29,-175.13 206.00,-175.32 203.85,-175.73 201.70,-176.13 199.33,-176.13 196.96,-176.12 194.34,-176.10 191.72,-176.09 189.02,-176.05 186.31,-176.02 182.41,-175.93 178.51,-175.85 173.80,-175.66 169.08,-175.46 164.88,-175.01 160.67,-174.56 157.94,-173.96 155.22,-173.35 151.45,-172.95 147.69,-172.54 140.30,-171.59 132.91,-170.63 118.43,-168.39 103.94,-166.14 97.57,-165.30 91.20,-164.47 87.65,-164.00 84.09,-163.53 79.51,-162.41 74.93,-161.29 68.54,-159.63 62.14,-157.97 60.00,-157.56 57.86,-157.15 54.31,-156.70 50.76,-156.25 46.56,-156.21 42.37,-156.17 37.93,-156.12 33.50,-156.06 30.47,-155.97 27.45,-155.88 24.31,-155.74 21.18,-155.60 19.48,-155.78 17.78,-155.97 17.70,-154.39 17.61,-152.81 17.49,-151.45 17.37,-150.09 17.37,-147.88 17.37,-145.67 17.37,-143.44 17.36,-141.20 17.36,-137.92 17.35,-134.63 17.32,-130.86 17.30,-127.08 17.24,-123.65 17.19,-120.21 17.05,-115.09 16.91,-109.96 16.59,-103.32 16.26,-96.68 15.51,-91.07 14.75,-85.47 13.95,-78.65 13.15,-71.83 11.76,-63.24 10.38,-54.66 8.59,-45.37 6.80,-36.09 5.55,-29.60 4.30,-23.10 3.31,-15.67 2.32,-8.24 1.94,-4.04 1.55,0.15 1.51,0.33 1.47,0.52 1.38,0.69 1.30,0.86 1.18,1.00 1.06,1.14 0.90,1.25 0.75,1.36 0.58,1.43 0.40,1.50 0.21,1.53 0.03,1.56 -0.15,1.54 -0.34,1.52 -0.51,1.46 -0.69,1.39 -0.85,1.29 -1.01,1.19 -1.13,1.05 -1.26,0.91 -1.35,0.74 -1.44,0.58 -1.49,0.40 -1.54,0.22 -1.55,0.03 -1.55,-0.15 -1.55,-0.15 L -1.55,-0.15 Z"/></g><g transform="translate(525.0061988830566 190.00553131103516) rotate(0 8.03326416015625 17.161972045898438)" stroke="none"><path fill="#1864ab" d="M 1.19,-1.52 Q 1.19,-1.52 4.08,0.85 6.97,3.23 9.53,6.02 12.09,8.81 13.52,10.11 14.95,11.42 15.82,12.59 16.69,13.75 15.94,16.85 15.18,19.94 13.73,23.43 12.27,26.92 10.97,29.09 9.67,31.26 9.05,32.81 8.42,34.35 8.26,34.57 8.11,34.80 7.89,34.96 7.67,35.13 7.41,35.21 7.15,35.30 6.88,35.29 6.61,35.29 6.35,35.20 6.09,35.11 5.88,34.95 5.66,34.78 5.51,34.55 5.36,34.33 5.29,34.06 5.21,33.80 5.23,33.53 5.25,33.25 5.35,33.00 5.45,32.75 5.63,32.54 5.81,32.34 6.04,32.20 6.28,32.06 6.55,32.00 6.81,31.94 7.08,31.98 7.36,32.01 7.60,32.12 7.85,32.24 8.05,32.43 8.24,32.62 8.37,32.86 8.50,33.10 8.54,33.37 8.58,33.64 8.53,33.91 8.49,34.18 8.36,34.42 8.23,34.66 8.03,34.85 7.83,35.03 7.58,35.15 7.33,35.26 7.06,35.29 6.79,35.31 6.52,35.25 6.26,35.19 6.02,35.05 5.79,34.91 5.62,34.70 5.44,34.49 5.34,34.23 5.24,33.98 5.23,33.71 5.22,33.43 5.29,33.17 5.37,32.91 5.37,32.91 5.37,32.91 6.21,31.33 7.06,29.74 8.19,27.73 9.33,25.73 10.64,22.35 11.95,18.98 12.36,16.40 12.78,13.82 11.24,12.44 9.70,11.07 7.24,8.53 4.78,6.00 1.79,3.76 -1.19,1.52 -1.35,1.35 -1.52,1.19 -1.64,0.99 -1.76,0.79 -1.83,0.56 -1.90,0.34 -1.91,0.11 -1.93,-0.11 -1.88,-0.34 -1.84,-0.57 -1.74,-0.79 -1.65,-1.00 -1.50,-1.18 -1.36,-1.36 -1.18,-1.51 -0.99,-1.65 -0.78,-1.75 -0.57,-1.84 -0.34,-1.88 -0.11,-1.93 0.11,-1.91 0.35,-1.90 0.57,-1.83 0.79,-1.76 0.99,-1.64 1.19,-1.52 1.19,-1.52 L 1.19,-1.52 Z"/></g></svg>