<svg version="1.1" xmlns="http://www.w3.org/2000/svg" viewBox="0 0 495.42864990234375 432.5715637207031" width="495.42864990234375" height="432.5715637207031">
  <!-- svg-source:excalidraw -->
  
  <defs>
    <style class="style-fonts">
      @font-face {
        font-family: "Virgil";
        src: url("https://excalidraw.com/Virgil.woff2");
      }
      @font-face {
        font-family: "Cascadia";
        src: url("https://excalidraw.com/Cascadia.woff2");
      }
    </style>
  </defs>
  <rect x="0" y="0" width="495.42864990234375" height="432.5715637207031" fill="#ffffff"/><g stroke-linecap="round" transform="translate(230.00006103515625 238.5714111328125) rotate(0 15.142852783203125 14.857147216796875)"><path d="M21.47 0.85 C24.06 2.18, 27.56 7.03, 28.96 10.14 C30.35 13.25, 30.78 16.54, 29.84 19.53 C28.91 22.51, 26.05 26.2, 23.36 28.03 C20.67 29.86, 16.99 31.19, 13.71 30.51 C10.43 29.82, 5.91 26.44, 3.67 23.9 C1.44 21.35, 0.26 18.37, 0.3 15.24 C0.35 12.1, 2.1 7.45, 3.93 5.09 C5.76 2.72, 7.57 1.18, 11.29 1.04 C15.01 0.9, 23.67 3.31, 26.26 4.24 C28.86 5.16, 27.22 6.47, 26.86 6.57 M22.97 1.9 C25.41 2.88, 27.17 5.62, 28.25 8.32 C29.33 11.02, 30.38 14.74, 29.47 18.11 C28.57 21.48, 25.53 26.65, 22.8 28.54 C20.07 30.43, 16.43 30.12, 13.1 29.46 C9.78 28.8, 5.09 26.68, 2.86 24.57 C0.64 22.46, -0.09 19.93, -0.24 16.78 C-0.39 13.63, -0.26 8.41, 1.96 5.67 C4.18 2.93, 9.87 1.16, 13.06 0.36 C16.25 -0.44, 19.74 0.67, 21.07 0.87 C22.41 1.07, 21.22 1.05, 21.05 1.57" stroke="#000000" stroke-width="1" fill="none"/></g><g stroke-linecap="round" transform="translate(211.71435546875 132.85702514648438) rotate(0 15.142852783203125 14.857147216796875)"><path d="M21.06 1.03 C23.87 2.39, 27.03 6.41, 28.64 9.41 C30.25 12.4, 31.42 16.07, 30.72 19.01 C30.03 21.96, 27.36 25.39, 24.47 27.06 C21.58 28.73, 16.7 29.46, 13.37 29.05 C10.05 28.65, 6.75 26.62, 4.49 24.61 C2.23 22.61, 0.11 20.09, -0.2 17.05 C-0.5 14.01, 0.9 9.17, 2.66 6.39 C4.42 3.61, 6.95 0.9, 10.36 0.37 C13.77 -0.15, 20.84 2.67, 23.12 3.23 C25.39 3.8, 23.99 3.7, 24 3.76 M9.15 -0.39 C12.24 -1.42, 17.7 -0.12, 20.85 1.34 C24 2.81, 26.27 5.77, 28.04 8.38 C29.8 10.99, 32.07 13.87, 31.43 17 C30.79 20.13, 26.95 24.93, 24.2 27.14 C21.44 29.36, 18.04 30.52, 14.89 30.31 C11.74 30.09, 7.98 28.13, 5.31 25.84 C2.64 23.55, -0.47 19.65, -1.14 16.56 C-1.8 13.47, -0.39 9.93, 1.33 7.33 C3.05 4.73, 7.97 1.87, 9.17 0.98 C10.37 0.08, 8.61 1.75, 8.54 1.95" stroke="#000000" stroke-width="1" fill="none"/></g><g stroke-linecap="round" transform="translate(307.71435546875 223.14279174804688) rotate(0 15.142852783203125 14.857147216796875)"><path d="M12.99 0.01 C16.2 -0.6, 21.89 0.96, 24.56 2.7 C27.23 4.43, 28.4 7.4, 29.01 10.43 C29.62 13.45, 29.6 17.76, 28.2 20.85 C26.8 23.93, 23.36 27.54, 20.6 28.94 C17.84 30.33, 14.46 29.99, 11.63 29.21 C8.8 28.43, 5.55 26.98, 3.62 24.26 C1.69 21.54, -0.22 16.3, 0.05 12.91 C0.31 9.52, 2.69 6.11, 5.21 3.91 C7.73 1.71, 13.5 0.48, 15.18 -0.28 C16.86 -1.04, 15.5 -0.9, 15.3 -0.66 M11.65 0.81 C14.5 0.12, 18.36 0.16, 21.57 1.88 C24.78 3.6, 29.53 8.08, 30.93 11.13 C32.34 14.18, 31.19 17.31, 30.01 20.18 C28.84 23.06, 26.75 26.6, 23.89 28.37 C21.03 30.14, 16.36 31.3, 12.87 30.78 C9.38 30.26, 5.25 28.13, 2.94 25.23 C0.63 22.34, -0.99 16.78, -1.01 13.41 C-1.03 10.04, 0.34 7.01, 2.81 5.03 C5.28 3.04, 12 2.25, 13.82 1.5 C15.64 0.75, 13.85 0.5, 13.72 0.54" stroke="#000000" stroke-width="1" fill="none"/></g><g stroke-linecap="round" transform="translate(254.00006103515625 347.1427917480469) rotate(0 15.142852783203125 14.857147216796875)"><path d="M12.11 -0.17 C15.16 -0.68, 19.91 0.36, 22.8 1.97 C25.7 3.57, 28.34 6.54, 29.48 9.45 C30.62 12.37, 30.85 16.2, 29.63 19.45 C28.4 22.69, 24.95 27.19, 22.14 28.93 C19.33 30.67, 15.94 30.55, 12.79 29.89 C9.64 29.24, 5.32 27.51, 3.24 24.99 C1.17 22.48, 0.1 18.2, 0.35 14.81 C0.6 11.43, 2.15 7.26, 4.74 4.67 C7.33 2.09, 13.92 0.13, 15.9 -0.68 C17.87 -1.48, 16.73 -0.62, 16.61 -0.14 M21.63 1.49 C24.21 2.5, 26.74 5.15, 28.05 8.06 C29.36 10.96, 30.05 15.99, 29.48 18.92 C28.91 21.86, 27.12 23.69, 24.65 25.65 C22.18 27.61, 18.01 30.87, 14.68 30.69 C11.34 30.5, 7.11 26.8, 4.66 24.53 C2.21 22.26, 0.05 20.17, -0.04 17.06 C-0.13 13.95, 2.39 8.87, 4.12 5.88 C5.85 2.88, 7.19 -0.01, 10.34 -0.9 C13.48 -1.79, 21.29 0.01, 23.01 0.51 C24.74 1.02, 21.26 1.81, 20.67 2.14" stroke="#000000" stroke-width="1" fill="none"/></g><g stroke-linecap="round" transform="translate(140.2857666015625 240.857177734375) rotate(0 15.142852783203125 14.857147216796875)"><path d="M14.02 -0.46 C17.07 -0.86, 20.25 0.82, 22.67 2.58 C25.1 4.35, 27.35 6.99, 28.57 10.12 C29.79 13.24, 31.17 18.54, 30 21.36 C28.83 24.17, 24.71 25.56, 21.54 27.01 C18.38 28.45, 13.96 30.4, 11.01 30.02 C8.05 29.65, 5.69 27.46, 3.82 24.77 C1.95 22.08, -0.1 17.25, -0.22 13.88 C-0.34 10.51, 0.2 6.7, 3.1 4.58 C6 2.46, 14.12 1.65, 17.18 1.18 C20.24 0.71, 21.57 1.63, 21.46 1.77 M20.15 1.46 C23.08 2.2, 26.57 4.94, 28.26 7.45 C29.96 9.96, 30.65 13.35, 30.32 16.51 C29.99 19.67, 28.75 24.35, 26.28 26.42 C23.8 28.49, 18.69 29.14, 15.45 28.94 C12.21 28.75, 9.45 27.12, 6.82 25.25 C4.2 23.38, 0.53 20.64, -0.29 17.75 C-1.1 14.85, 0.5 10.8, 1.93 7.87 C3.37 4.95, 5.59 1.23, 8.32 0.19 C11.06 -0.84, 16.7 1.32, 18.35 1.65 C19.99 1.98, 18.06 2.02, 18.17 2.16" stroke="#000000" stroke-width="1" fill="none"/></g><g stroke-linecap="round" transform="translate(247.71435546875 10) rotate(0 15.142852783203125 14.857147216796875)"><path d="M9.97 1.39 C12.76 0.06, 17.09 0.24, 20.13 1.24 C23.17 2.24, 26.54 4.79, 28.22 7.37 C29.91 9.96, 30.64 13.58, 30.25 16.74 C29.86 19.9, 28.34 24.23, 25.87 26.31 C23.4 28.39, 18.67 29.32, 15.43 29.2 C12.19 29.09, 9 27.55, 6.41 25.63 C3.82 23.72, 0.65 20.69, -0.1 17.72 C-0.85 14.75, 0.15 10.77, 1.92 7.79 C3.7 4.82, 8.83 0.98, 10.55 -0.13 C12.26 -1.24, 12.17 0.63, 12.19 1.12 M13.09 0.8 C15.95 0.28, 20.69 -0.12, 23.59 1.67 C26.49 3.45, 29.68 8.35, 30.49 11.5 C31.31 14.65, 30.15 17.58, 28.49 20.57 C26.83 23.55, 23.62 28.2, 20.53 29.41 C17.45 30.61, 13.09 28.94, 9.98 27.81 C6.86 26.67, 3.67 25.31, 1.86 22.6 C0.04 19.89, -1.21 14.44, -0.93 11.55 C-0.65 8.67, 1.02 7.4, 3.54 5.31 C6.06 3.21, 12.26 -0.09, 14.19 -1.02 C16.11 -1.95, 14.8 -0.53, 15.09 -0.29" stroke="#000000" stroke-width="1" fill="none"/></g><g stroke-linecap="round" transform="translate(359.71435546875 99.14288330078125) rotate(0 15.142852783203125 14.857147216796875)"><path d="M9.06 1.26 C11.48 -0.08, 15.13 0.35, 18.12 1.04 C21.12 1.73, 24.94 2.9, 27.02 5.4 C29.1 7.9, 30.8 12.85, 30.59 16.05 C30.39 19.25, 28.19 22.22, 25.79 24.58 C23.39 26.94, 19.48 29.92, 16.2 30.19 C12.91 30.46, 8.73 28.15, 6.06 26.21 C3.39 24.26, 1.08 21.63, 0.19 18.54 C-0.7 15.46, -0.88 10.5, 0.72 7.68 C2.32 4.86, 7.81 2.92, 9.79 1.61 C11.77 0.29, 12.3 -0.22, 12.59 -0.21 M20.74 2.37 C23.98 3.43, 28.58 6.42, 30.18 9.11 C31.78 11.79, 31.19 15.4, 30.33 18.49 C29.48 21.57, 27.63 25.96, 25.05 27.62 C22.48 29.27, 18.15 28.95, 14.91 28.39 C11.67 27.84, 8.25 26.13, 5.63 24.27 C3.01 22.42, -0.14 20.16, -0.8 17.25 C-1.47 14.35, -0.55 9.48, 1.64 6.87 C3.82 4.26, 8.86 2.47, 12.33 1.61 C15.81 0.76, 21.06 1.76, 22.49 1.74 C23.93 1.71, 20.97 1.39, 20.94 1.46" stroke="#000000" stroke-width="1" fill="none"/></g><g stroke-linecap="round" transform="translate(455.1429443359375 248.85720825195312) rotate(0 15.142852783203125 14.857147216796875)"><path d="M18.8 0.4 C21.77 1, 25.12 2.72, 26.87 5.52 C28.61 8.32, 29.49 13.98, 29.27 17.18 C29.06 20.38, 27.65 22.7, 25.56 24.72 C23.48 26.73, 19.8 29.01, 16.75 29.27 C13.71 29.53, 9.92 28.15, 7.31 26.27 C4.7 24.39, 1.95 20.8, 1.07 17.97 C0.19 15.15, 0.71 12.04, 2.04 9.34 C3.36 6.64, 6.02 3.03, 9.02 1.78 C12.02 0.53, 17.93 1.71, 20.04 1.84 C22.14 1.96, 21.84 2.28, 21.67 2.51 M9.28 1.43 C12.44 0.29, 18.42 1.13, 21.75 2.26 C25.09 3.38, 28.03 5.6, 29.28 8.17 C30.54 10.75, 29.88 14.74, 29.27 17.69 C28.67 20.65, 28.28 23.67, 25.65 25.9 C23.01 28.13, 16.82 31.31, 13.45 31.1 C10.08 30.89, 7.81 26.98, 5.44 24.64 C3.06 22.3, -0.37 19.98, -0.79 17.08 C-1.2 14.18, 1.21 10.14, 2.93 7.27 C4.65 4.39, 8.06 1.06, 9.53 -0.17 C11 -1.4, 11.68 -0.44, 11.74 -0.11" stroke="#000000" stroke-width="1" fill="none"/></g><g stroke-linecap="round" transform="translate(387.1429443359375 392.8572692871094) rotate(0 15.142852783203125 14.857147216796875)"><path d="M21.17 2.51 C23.85 3.47, 26.89 5.83, 28.45 8.47 C30.01 11.11, 31.27 15.12, 30.51 18.36 C29.75 21.6, 26.62 25.94, 23.89 27.9 C21.15 29.86, 17.37 30.66, 14.1 30.11 C10.82 29.55, 6.63 26.83, 4.25 24.56 C1.87 22.29, 0.1 19.7, -0.18 16.47 C-0.46 13.24, 0.44 7.82, 2.57 5.19 C4.71 2.56, 9.27 1.24, 12.64 0.69 C16.01 0.15, 20.74 1.33, 22.81 1.93 C24.88 2.54, 25.03 4.12, 25.07 4.32 M9.72 0.3 C12.5 -0.7, 18.58 -0.97, 21.52 0.41 C24.45 1.78, 25.95 5.7, 27.36 8.55 C28.76 11.4, 30.63 14.24, 29.97 17.5 C29.3 20.76, 25.87 25.94, 23.38 28.1 C20.89 30.26, 17.96 30.94, 15 30.47 C12.05 30.01, 8.13 27.81, 5.68 25.31 C3.22 22.81, 0.9 18.59, 0.29 15.46 C-0.32 12.34, 0.05 8.81, 2 6.55 C3.95 4.29, 10.66 2.73, 12.01 1.89 C13.37 1.05, 10.1 1.48, 10.13 1.52" stroke="#000000" stroke-width="1" fill="none"/></g><g stroke-linecap="round" transform="translate(118.5714111328125 348.8572692871094) rotate(0 15.142852783203125 14.857147216796875)"><path d="M11.22 0.02 C14.2 -0.85, 17.92 0.76, 20.94 2.27 C23.95 3.77, 27.74 6.36, 29.32 9.05 C30.89 11.74, 31.27 15.53, 30.39 18.4 C29.5 21.26, 26.8 24.37, 24 26.23 C21.19 28.09, 16.68 29.55, 13.56 29.55 C10.45 29.55, 7.63 28.4, 5.3 26.24 C2.97 24.08, -0.1 19.91, -0.42 16.61 C-0.75 13.31, 1.11 9.29, 3.36 6.44 C5.61 3.59, 10.88 0.5, 13.09 -0.5 C15.31 -1.5, 16.67 0.26, 16.65 0.44 M9.05 1.5 C11.87 -0.31, 16.18 -1.35, 19.39 -0.42 C22.59 0.51, 26.33 4.35, 28.29 7.07 C30.25 9.8, 31.55 13.09, 31.15 15.91 C30.75 18.73, 28.32 21.53, 25.86 23.99 C23.4 26.44, 19.49 30.07, 16.39 30.64 C13.3 31.22, 9.76 29.31, 7.31 27.46 C4.87 25.61, 2.86 22.82, 1.71 19.54 C0.56 16.26, -0.9 10.81, 0.44 7.77 C1.78 4.73, 8.37 2.19, 9.75 1.31 C11.14 0.43, 8.62 2.11, 8.74 2.49" stroke="#000000" stroke-width="1" fill="none"/></g><g stroke-linecap="round" transform="translate(10 352.8572692871094) rotate(0 15.142852783203125 14.857147216796875)"><path d="M17.23 0.82 C20.41 1.21, 25.22 3.61, 27.39 5.94 C29.57 8.26, 30.53 11.74, 30.29 14.79 C30.04 17.83, 27.9 21.7, 25.92 24.22 C23.94 26.75, 21.44 29.22, 18.41 29.93 C15.38 30.63, 10.58 30.22, 7.73 28.46 C4.88 26.69, 2.55 22.3, 1.3 19.32 C0.05 16.34, -0.79 13.45, 0.24 10.57 C1.27 7.68, 3.99 3.48, 7.48 2.03 C10.97 0.59, 18.47 1.69, 21.17 1.89 C23.88 2.09, 23.73 3.09, 23.71 3.21 M11.21 1.56 C14.18 0.75, 17.63 0.74, 20.82 1.94 C24.02 3.13, 28.9 5.67, 30.38 8.71 C31.87 11.74, 30.74 17.25, 29.74 20.15 C28.74 23.04, 27.16 24.62, 24.39 26.07 C21.61 27.52, 16.41 28.78, 13.08 28.85 C9.75 28.93, 6.41 28.48, 4.41 26.52 C2.41 24.56, 1.18 20.53, 1.09 17.07 C0.99 13.61, 2.03 8.46, 3.84 5.78 C5.65 3.1, 10.82 1.72, 11.97 0.99 C13.11 0.26, 10.77 1.26, 10.7 1.39" stroke="#000000" stroke-width="1" fill="none"/></g><g stroke-linecap="round" transform="translate(78 151.71441650390625) rotate(0 15.142852783203125 14.857147216796875)"><path d="M15.05 -0.97 C18.15 -1.27, 21.18 0.74, 23.69 2.81 C26.21 4.87, 29.22 8.33, 30.12 11.4 C31.01 14.47, 30.63 18.22, 29.06 21.21 C27.49 24.2, 23.73 27.92, 20.69 29.33 C17.65 30.75, 13.8 30.65, 10.82 29.7 C7.84 28.76, 4.64 26.27, 2.81 23.65 C0.98 21.02, -0.46 17.13, -0.15 13.93 C0.16 10.73, 1.88 6.74, 4.65 4.43 C7.42 2.12, 13.82 0.57, 16.46 0.05 C19.1 -0.47, 20.52 1.01, 20.49 1.3 M11.62 0.5 C14.42 -0.33, 18.91 0.87, 21.78 2.5 C24.65 4.13, 27.37 7.29, 28.86 10.27 C30.35 13.26, 31.55 17.23, 30.72 20.39 C29.88 23.55, 26.66 27.63, 23.86 29.25 C21.06 30.86, 17.55 31.13, 13.93 30.08 C10.32 29.02, 4.55 25.3, 2.16 22.94 C-0.23 20.57, -0.73 18.85, -0.41 15.9 C-0.09 12.94, 1.85 7.69, 4.09 5.2 C6.33 2.72, 11.4 1.53, 13.02 0.98 C14.64 0.44, 13.89 2.02, 13.83 1.94" stroke="#000000" stroke-width="1" fill="none"/></g></svg>