<svg version="1.1" xmlns="http://www.w3.org/2000/svg" viewBox="0 0 65.14288330078125 117.71429443359375" width="65.14288330078125" height="117.71429443359375">
  <!-- svg-source:excalidraw -->
  
  <defs>
    <style class="style-fonts">
      @font-face {
        font-family: "Virgil";
        src: url("https://excalidraw.com/Virgil.woff2");
      }
      @font-face {
        font-family: "Cascadia";
        src: url("https://excalidraw.com/Cascadia.woff2");
      }
    </style>
  </defs>
  <rect x="0" y="0" width="65.14288330078125" height="117.71429443359375" fill="#ffffff"/><g transform="translate(10 10) rotate(0 22.571441650390625 48.857147216796875)" stroke="none"><path fill="#0b7285" d="M 1.50,-0.79 Q 1.50,-0.79 2.93,2.02 4.36,4.83 6.59,8.99 8.83,13.14 14.54,24.13 20.25,35.11 24.49,44.42 28.73,53.72 32.99,63.25 37.24,72.78 39.55,78.67 41.86,84.55 43.17,88.21 44.48,91.87 45.12,93.39 45.75,94.91 45.80,95.15 45.84,95.39 45.81,95.64 45.77,95.88 45.66,96.10 45.55,96.32 45.37,96.50 45.20,96.67 44.98,96.78 44.75,96.89 44.51,96.92 44.26,96.95 44.02,96.90 43.78,96.85 43.56,96.73 43.35,96.61 43.19,96.42 43.02,96.24 42.93,96.01 42.83,95.78 42.81,95.54 42.79,95.29 42.86,95.05 42.92,94.81 43.05,94.60 43.19,94.40 43.38,94.24 43.57,94.09 43.81,94.01 44.04,93.92 44.29,93.92 44.53,93.91 44.77,93.99 45.00,94.06 45.20,94.21 45.40,94.35 45.55,94.55 45.69,94.75 45.76,94.99 45.83,95.23 45.82,95.48 45.81,95.72 45.73,95.95 45.64,96.18 45.48,96.38 45.33,96.57 45.12,96.70 44.91,96.83 44.67,96.89 44.43,96.95 44.18,96.93 43.94,96.90 43.71,96.80 43.48,96.71 43.30,96.54 43.12,96.37 43.00,96.16 42.88,95.94 42.88,95.94 42.88,95.94 42.40,94.37 41.93,92.79 40.62,89.17 39.31,85.56 37.01,79.74 34.70,73.92 30.42,64.41 26.15,54.90 21.90,45.68 17.66,36.47 11.91,25.53 6.16,14.60 3.85,10.46 1.54,6.33 0.02,3.56 -1.50,0.79 -1.57,0.60 -1.64,0.41 -1.67,0.20 -1.70,0.00 -1.67,-0.19 -1.65,-0.40 -1.58,-0.59 -1.50,-0.78 -1.39,-0.95 -1.27,-1.12 -1.12,-1.25 -0.97,-1.39 -0.78,-1.49 -0.60,-1.58 -0.40,-1.63 -0.21,-1.68 -0.00,-1.68 0.19,-1.68 0.39,-1.64 0.59,-1.59 0.77,-1.49 0.96,-1.40 1.11,-1.26 1.26,-1.13 1.38,-0.96 1.50,-0.79 1.50,-0.79 L 1.50,-0.79 Z"/></g></svg>