<svg version="1.1" xmlns="http://www.w3.org/2000/svg" viewBox="0 0 305.48604583740234 182.98725128173828" width="305.48604583740234" height="182.98725128173828">
  <!-- svg-source:excalidraw -->
  
  <defs>
    <style class="style-fonts">
      @font-face {
        font-family: "Virgil";
        src: url("https://excalidraw.com/Virgil.woff2");
      }
      @font-face {
        font-family: "Cascadia";
        src: url("https://excalidraw.com/Cascadia.woff2");
      }
    </style>
  </defs>
  <rect x="0" y="0" width="305.48604583740234" height="182.98725128173828" fill="#ffffff"/><g transform="translate(102.64546966552734 25.048828125) rotate(0 -8.024604797363281 18.873523712158203)" stroke="none"><path fill="#000000" d="M 1.38,0.40 Q 1.38,0.40 1.50,2.48 1.62,4.56 0.33,7.28 -0.95,9.99 -1.95,12.46 -2.96,14.93 -4.01,17.70 -5.06,20.47 -5.80,22.51 -6.53,24.55 -7.42,26.69 -8.31,28.82 -8.96,30.23 -9.62,31.64 -10.17,33.04 -10.72,34.44 -12.82,36.87 -14.92,39.30 -15.04,39.48 -15.15,39.66 -15.31,39.79 -15.48,39.93 -15.68,40.00 -15.88,40.08 -16.09,40.08 -16.30,40.09 -16.50,40.03 -16.71,39.97 -16.88,39.85 -17.05,39.72 -17.18,39.55 -17.30,39.38 -17.37,39.18 -17.43,38.98 -17.43,38.76 -17.42,38.55 -17.35,38.35 -17.28,38.15 -17.15,37.98 -17.02,37.82 -16.84,37.70 -16.66,37.59 -16.45,37.53 -16.25,37.48 -16.04,37.50 -15.82,37.51 -15.63,37.60 -15.43,37.68 -15.27,37.82 -15.11,37.96 -15.01,38.14 -14.90,38.33 -14.86,38.54 -14.82,38.75 -14.85,38.96 -14.87,39.17 -14.97,39.36 -15.06,39.55 -15.21,39.70 -15.36,39.85 -15.55,39.95 -15.74,40.04 -15.95,40.07 -16.16,40.10 -16.37,40.06 -16.58,40.03 -16.76,39.92 -16.95,39.82 -17.09,39.66 -17.23,39.50 -17.32,39.31 -17.40,39.12 -17.42,38.90 -17.44,38.69 -17.39,38.49 -17.34,38.28 -17.34,38.28 -17.34,38.28 -16.99,35.20 -16.64,32.12 -16.02,30.53 -15.40,28.94 -14.79,27.64 -14.18,26.33 -13.31,24.32 -12.43,22.31 -11.59,20.21 -10.75,18.11 -9.53,15.40 -8.30,12.69 -7.18,10.10 -6.07,7.51 -4.94,5.24 -3.81,2.96 -2.60,1.28 -1.38,-0.40 -1.31,-0.56 -1.25,-0.72 -1.14,-0.86 -1.04,-1.00 -0.90,-1.11 -0.77,-1.22 -0.61,-1.29 -0.45,-1.37 -0.28,-1.40 -0.11,-1.44 0.05,-1.43 0.23,-1.42 0.39,-1.37 0.56,-1.32 0.71,-1.24 0.86,-1.15 0.99,-1.03 1.12,-0.91 1.21,-0.76 1.30,-0.61 1.36,-0.45 1.41,-0.28 1.43,-0.11 1.44,0.05 1.41,0.23 1.38,0.40 1.38,0.40 L 1.38,0.40 Z"/></g><g transform="translate(93.84589385986328 50.49683380126953) rotate(0 8.749580383300781 6.949455261230469)" stroke="none"><path fill="#000000" d="M 1.26,-1.11 Q 1.26,-1.11 2.59,-0.24 3.92,0.63 5.00,1.71 6.07,2.79 7.98,4.11 9.88,5.43 11.22,6.15 12.56,6.86 13.62,7.48 14.67,8.10 16.58,10.56 18.49,13.02 18.58,13.22 18.67,13.41 18.69,13.62 18.71,13.84 18.66,14.04 18.61,14.25 18.50,14.43 18.39,14.61 18.22,14.75 18.06,14.88 17.86,14.96 17.66,15.03 17.45,15.04 17.24,15.05 17.04,14.99 16.83,14.93 16.66,14.81 16.48,14.69 16.36,14.52 16.23,14.35 16.16,14.15 16.10,13.94 16.10,13.73 16.10,13.52 16.18,13.32 16.25,13.12 16.38,12.95 16.51,12.78 16.68,12.67 16.86,12.55 17.07,12.50 17.27,12.44 17.48,12.46 17.70,12.47 17.89,12.55 18.09,12.63 18.25,12.77 18.41,12.91 18.52,13.09 18.62,13.28 18.67,13.49 18.71,13.69 18.68,13.90 18.66,14.12 18.57,14.31 18.48,14.50 18.33,14.65 18.18,14.80 17.99,14.90 17.80,15.00 17.59,15.03 17.38,15.06 17.17,15.02 16.96,14.99 16.78,14.89 16.59,14.78 16.45,14.63 16.30,14.47 16.30,14.47 16.30,14.47 14.10,14.23 11.90,13.98 10.49,13.10 9.07,12.23 7.56,11.05 6.05,9.88 5.23,9.00 4.41,8.12 3.45,7.23 2.49,6.34 1.32,5.15 0.16,3.96 -0.54,2.54 -1.26,1.11 -1.37,0.95 -1.49,0.78 -1.56,0.59 -1.63,0.40 -1.66,0.20 -1.68,0.00 -1.66,-0.20 -1.63,-0.40 -1.56,-0.59 -1.49,-0.78 -1.37,-0.94 -1.26,-1.11 -1.11,-1.25 -0.95,-1.38 -0.77,-1.48 -0.59,-1.57 -0.40,-1.62 -0.20,-1.67 -0.00,-1.67 0.20,-1.67 0.39,-1.62 0.59,-1.57 0.77,-1.48 0.95,-1.38 1.10,-1.25 1.26,-1.11 1.26,-1.11 L 1.26,-1.11 Z"/></g><g transform="translate(133.24398040771484 21.999053955078125) rotate(0 -8.949562072753906 21.198345184326172)" stroke="none"><path fill="#000000" d="M 1.03,1.18 Q 1.03,1.18 0.18,2.60 -0.67,4.03 -1.50,5.19 -2.33,6.35 -3.84,7.80 -5.34,9.25 -6.67,10.35 -7.99,11.46 -9.43,12.56 -10.86,13.65 -11.81,14.27 -12.75,14.89 -13.72,15.35 -14.68,15.82 -15.49,16.27 -16.31,16.72 -16.44,16.88 -16.56,17.05 -16.73,17.17 -16.89,17.30 -17.08,17.38 -17.27,17.46 -17.48,17.49 -17.68,17.53 -17.89,17.51 -18.09,17.50 -18.29,17.43 -18.49,17.37 -18.66,17.26 -18.84,17.15 -18.98,17.00 -19.13,16.85 -19.23,16.67 -19.33,16.50 -19.39,16.30 -19.45,16.10 -19.46,15.89 -19.47,15.69 -19.43,15.48 -19.39,15.28 -19.30,15.09 -19.21,14.91 -18.21,13.97 -17.20,13.03 -16.16,12.13 -15.12,11.22 -13.56,10.93 -11.99,10.64 -10.28,11.83 -8.57,13.03 -7.76,15.34 -6.96,17.65 -6.53,19.33 -6.10,21.00 -5.80,23.21 -5.50,25.42 -5.37,27.06 -5.25,28.70 -5.30,30.65 -5.36,32.59 -5.33,33.86 -5.29,35.13 -5.15,36.91 -5.00,38.70 -5.08,39.69 -5.16,40.67 -5.11,41.01 -5.05,41.34 -5.08,41.68 -5.10,42.02 -5.21,42.34 -5.32,42.66 -5.50,42.94 -5.68,43.23 -5.92,43.47 -6.16,43.70 -6.45,43.87 -6.75,44.04 -7.07,44.14 -7.40,44.23 -7.73,44.25 -8.07,44.26 -8.40,44.19 -8.73,44.13 -9.04,43.98 -9.35,43.84 -9.61,43.63 -9.87,43.41 -10.07,43.14 -10.28,42.87 -10.41,42.56 -10.55,42.25 -9.46,40.71 -8.38,39.17 -8.77,38.78 -9.17,38.39 -9.14,38.18 -9.12,37.97 -9.03,37.77 -8.95,37.58 -8.80,37.43 -8.65,37.27 -8.47,37.17 -8.28,37.07 -8.07,37.04 -7.86,37.00 -7.65,37.03 -7.44,37.07 -7.25,37.17 -7.06,37.26 -6.92,37.42 -6.77,37.57 -6.68,37.76 -6.59,37.96 -6.57,38.17 -6.54,38.38 -6.59,38.59 -6.63,38.79 -6.74,38.98 -6.85,39.16 -7.01,39.30 -7.17,39.44 -7.37,39.52 -7.57,39.60 -7.78,39.61 -7.99,39.62 -8.20,39.56 -8.40,39.51 -8.58,39.39 -8.76,39.27 -8.88,39.10 -9.01,38.93 -9.08,38.73 -9.15,38.53 -9.15,38.32 -9.15,38.11 -9.09,37.90 -9.02,37.70 -8.89,37.53 -8.76,37.36 -8.59,37.24 -8.41,37.12 -8.21,37.07 -8.00,37.01 -7.79,37.02 -7.58,37.03 -7.38,37.11 -7.18,37.19 -7.02,37.32 -6.86,37.46 -6.75,37.64 -6.64,37.82 -6.59,38.03 -6.54,38.24 -6.54,38.24 -6.54,38.24 -6.87,40.98 -7.20,43.73 -6.18,42.20 -5.16,40.67 -5.11,41.01 -5.05,41.34 -5.08,41.68 -5.10,42.01 -5.21,42.34 -5.32,42.66 -5.50,42.94 -5.68,43.23 -5.92,43.46 -6.16,43.70 -6.45,43.87 -6.75,44.04 -7.07,44.14 -7.39,44.23 -7.73,44.25 -8.07,44.26 -8.40,44.19 -8.73,44.13 -9.04,43.98 -9.35,43.84 -9.61,43.63 -9.87,43.41 -10.07,43.14 -10.28,42.88 -10.41,42.56 -10.55,42.25 -10.78,41.67 -11.01,41.08 -11.45,39.33 -11.88,37.58 -11.95,36.36 -12.01,35.15 -11.98,33.70 -11.96,32.26 -11.83,30.59 -11.70,28.92 -11.68,27.41 -11.66,25.90 -11.68,23.93 -11.70,21.97 -11.83,20.45 -11.95,18.94 -12.15,16.87 -12.34,14.80 -13.53,14.69 -14.72,14.57 -15.51,15.65 -16.31,16.72 -16.44,16.88 -16.56,17.04 -16.73,17.17 -16.89,17.30 -17.08,17.38 -17.27,17.46 -17.48,17.49 -17.68,17.53 -17.89,17.51 -18.09,17.50 -18.29,17.43 -18.49,17.37 -18.66,17.26 -18.84,17.15 -18.98,17.00 -19.13,16.85 -19.23,16.67 -19.33,16.50 -19.39,16.30 -19.45,16.10 -19.46,15.89 -19.47,15.69 -19.43,15.48 -19.39,15.28 -19.30,15.09 -19.21,14.91 -19.34,14.70 -19.47,14.49 -18.77,13.63 -18.07,12.77 -16.98,11.77 -15.90,10.78 -15.05,10.03 -14.21,9.29 -12.86,8.24 -11.52,7.20 -10.29,6.20 -9.06,5.19 -7.79,4.10 -6.53,3.01 -5.31,1.59 -4.09,0.16 -2.56,-0.50 -1.03,-1.18 -0.88,-1.28 -0.72,-1.39 -0.54,-1.46 -0.37,-1.52 -0.18,-1.54 0.00,-1.57 0.19,-1.54 0.38,-1.52 0.55,-1.45 0.73,-1.38 0.89,-1.28 1.04,-1.17 1.17,-1.03 1.29,-0.88 1.38,-0.72 1.47,-0.55 1.51,-0.36 1.56,-0.18 1.56,0.00 1.55,0.19 1.51,0.37 1.46,0.56 1.37,0.73 1.29,0.89 1.16,1.03 1.03,1.18 1.03,1.18 L 1.03,1.18 Z"/></g><g transform="translate(130.39412689208984 34.34809112548828) rotate(0 13.92431640625 -4.249664306640625)" stroke="none"><path fill="#000000" d="M -0.35,-1.71 Q -0.35,-1.71 1.27,-2.67 2.91,-3.63 4.46,-4.05 6.02,-4.47 8.22,-4.97 10.43,-5.47 11.95,-5.85 13.48,-6.22 15.12,-6.75 16.75,-7.28 17.76,-7.72 18.78,-8.17 19.99,-8.56 21.20,-8.95 24.08,-9.22 26.96,-9.50 27.16,-9.58 27.36,-9.65 27.57,-9.66 27.78,-9.67 27.99,-9.60 28.19,-9.54 28.36,-9.42 28.54,-9.30 28.66,-9.13 28.79,-8.95 28.85,-8.75 28.92,-8.55 28.91,-8.34 28.91,-8.12 28.83,-7.92 28.76,-7.72 28.63,-7.56 28.50,-7.39 28.32,-7.28 28.14,-7.16 27.94,-7.11 27.73,-7.05 27.52,-7.07 27.31,-7.09 27.11,-7.17 26.92,-7.25 26.76,-7.39 26.60,-7.53 26.49,-7.72 26.39,-7.90 26.34,-8.11 26.30,-8.32 26.33,-8.53 26.36,-8.74 26.45,-8.93 26.54,-9.12 26.69,-9.27 26.84,-9.42 27.03,-9.52 27.22,-9.62 27.43,-9.65 27.64,-9.68 27.85,-9.64 28.06,-9.60 28.25,-9.50 28.43,-9.39 28.57,-9.24 28.72,-9.08 28.80,-8.88 28.89,-8.69 28.91,-8.48 28.93,-8.27 28.88,-8.06 28.83,-7.85 28.71,-7.67 28.60,-7.49 28.43,-7.36 28.27,-7.22 28.27,-7.22 28.27,-7.22 26.67,-5.32 25.07,-3.42 23.20,-2.66 21.34,-1.90 20.00,-1.38 18.66,-0.86 16.80,-0.35 14.93,0.16 13.36,0.48 11.79,0.80 9.54,1.26 7.30,1.73 5.70,1.96 4.10,2.19 2.22,1.95 0.35,1.71 0.14,1.73 -0.06,1.74 -0.27,1.71 -0.48,1.68 -0.67,1.59 -0.87,1.51 -1.04,1.38 -1.21,1.26 -1.34,1.09 -1.47,0.93 -1.56,0.74 -1.65,0.55 -1.70,0.34 -1.74,0.14 -1.73,-0.06 -1.72,-0.27 -1.66,-0.48 -1.61,-0.68 -1.50,-0.86 -1.39,-1.05 -1.25,-1.20 -1.10,-1.35 -0.92,-1.46 -0.75,-1.58 -0.55,-1.64 -0.35,-1.71 -0.35,-1.71 L -0.35,-1.71 Z"/></g><g transform="translate(148.09325408935547 20.149200439453125) rotate(0 2.79986572265625 18.94852066040039)" stroke="none"><path fill="#000000" d="M 1.37,-0.33 Q 1.37,-0.33 2.36,1.11 3.35,2.56 3.82,4.67 4.28,6.78 4.66,8.66 5.04,10.54 5.44,12.73 5.85,14.93 6.14,17.24 6.44,19.56 6.73,21.67 7.02,23.78 7.23,25.26 7.44,26.74 7.67,28.08 7.91,29.43 8.18,31.17 8.46,32.91 8.67,34.20 8.88,35.48 8.68,36.64 8.48,37.81 7.73,38.71 6.99,39.62 5.45,37.87 3.91,36.12 3.76,36.18 3.62,36.25 3.47,36.28 3.31,36.32 3.15,36.31 2.99,36.31 2.84,36.26 2.69,36.22 2.55,36.14 2.41,36.06 2.30,35.95 2.19,35.84 2.10,35.71 2.02,35.58 1.96,35.43 1.91,35.28 1.90,35.12 1.89,34.96 1.91,34.81 1.94,34.65 2.00,34.50 2.06,34.36 2.15,34.23 2.25,34.10 2.37,34.00 2.49,33.90 2.19,34.45 1.89,35.00 1.92,34.79 1.96,34.58 2.06,34.39 2.16,34.21 2.31,34.06 2.47,33.92 2.66,33.83 2.86,33.74 3.07,33.72 3.28,33.70 3.49,33.75 3.69,33.79 3.87,33.90 4.06,34.01 4.19,34.18 4.33,34.34 4.41,34.54 4.48,34.74 4.49,34.95 4.50,35.16 4.45,35.36 4.39,35.57 4.27,35.74 4.15,35.92 3.98,36.05 3.81,36.17 3.60,36.24 3.40,36.31 3.19,36.30 2.98,36.30 2.78,36.23 2.58,36.16 2.41,36.03 2.24,35.91 2.12,35.73 2.00,35.55 1.95,35.35 1.89,35.14 1.91,34.93 1.92,34.72 2.00,34.52 2.08,34.32 2.22,34.16 2.36,34.00 2.54,33.89 2.72,33.79 2.93,33.74 3.14,33.70 3.35,33.72 3.56,33.75 3.75,33.84 3.94,33.93 4.10,34.07 4.25,34.22 4.35,34.41 4.45,34.60 4.18,35.36 3.91,36.12 3.76,36.18 3.62,36.25 3.47,36.28 3.31,36.32 3.15,36.31 2.99,36.31 2.84,36.26 2.69,36.22 2.55,36.14 2.41,36.06 2.30,35.95 2.19,35.84 2.10,35.71 2.02,35.58 1.96,35.43 1.91,35.28 1.90,35.12 1.89,34.96 1.91,34.81 1.94,34.65 2.00,34.50 2.06,34.36 2.15,34.23 2.25,34.10 2.37,34.00 2.49,33.90 3.50,34.73 4.51,35.55 3.30,35.93 2.10,36.31 1.91,35.17 1.71,34.03 1.44,32.30 1.17,30.58 0.92,29.09 0.68,27.61 0.50,26.09 0.32,24.57 0.10,22.39 -0.11,20.21 -0.26,17.99 -0.41,15.77 -0.59,13.64 -0.77,11.51 -1.02,9.64 -1.27,7.77 -1.53,5.79 -1.80,3.81 -1.58,2.07 -1.37,0.33 -1.39,0.16 -1.41,-0.00 -1.39,-0.17 -1.37,-0.34 -1.31,-0.50 -1.25,-0.66 -1.15,-0.80 -1.05,-0.94 -0.92,-1.05 -0.79,-1.16 -0.64,-1.24 -0.49,-1.32 -0.33,-1.36 -0.16,-1.40 0.00,-1.40 0.17,-1.40 0.34,-1.36 0.50,-1.32 0.65,-1.24 0.80,-1.16 0.93,-1.04 1.06,-0.93 1.15,-0.79 1.25,-0.65 1.31,-0.49 1.37,-0.33 1.37,-0.33 L 1.37,-0.33 Z"/></g><g transform="translate(146.79332733154297 33.79814910888672) rotate(0 -6.799674987792969 11.899063110351562)" stroke="none"><path fill="#000000" d="M 1.09,0.88 Q 1.09,0.88 0.06,3.04 -0.97,5.20 -2.35,7.34 -3.73,9.47 -4.49,11.00 -5.25,12.52 -6.09,14.19 -6.94,15.86 -7.52,17.04 -8.11,18.23 -8.66,19.40 -9.21,20.57 -10.70,22.21 -12.18,23.85 -12.24,24.05 -12.30,24.25 -12.42,24.43 -12.54,24.60 -12.71,24.73 -12.89,24.85 -13.09,24.92 -13.29,24.98 -13.50,24.98 -13.72,24.97 -13.92,24.90 -14.12,24.83 -14.28,24.70 -14.45,24.57 -14.57,24.39 -14.68,24.21 -14.74,24.01 -14.79,23.80 -14.77,23.59 -14.76,23.38 -14.68,23.18 -14.59,22.98 -14.45,22.82 -14.31,22.67 -14.13,22.56 -13.94,22.45 -13.74,22.41 -13.53,22.37 -13.32,22.40 -13.11,22.42 -12.91,22.52 -12.72,22.61 -12.57,22.76 -12.42,22.91 -12.32,23.10 -12.23,23.29 -12.20,23.50 -12.17,23.71 -12.21,23.91 -12.24,24.12 -12.35,24.31 -12.45,24.50 -12.61,24.64 -12.76,24.78 -12.96,24.87 -13.15,24.95 -13.36,24.97 -13.58,24.99 -13.78,24.94 -13.99,24.89 -14.17,24.78 -14.35,24.67 -14.48,24.50 -14.62,24.34 -14.69,24.14 -14.77,23.94 -14.78,23.73 -14.78,23.52 -14.78,23.52 -14.78,23.52 -14.53,20.85 -14.27,18.19 -13.67,16.90 -13.07,15.62 -12.42,14.47 -11.78,13.32 -10.89,11.67 -9.99,10.03 -9.03,8.28 -8.07,6.54 -6.48,4.28 -4.89,2.03 -2.99,0.57 -1.09,-0.88 -0.97,-1.00 -0.85,-1.12 -0.70,-1.20 -0.55,-1.29 -0.39,-1.34 -0.23,-1.39 -0.06,-1.39 0.10,-1.40 0.27,-1.37 0.44,-1.33 0.59,-1.26 0.74,-1.19 0.88,-1.08 1.01,-0.98 1.11,-0.84 1.21,-0.70 1.28,-0.55 1.35,-0.39 1.38,-0.23 1.40,-0.06 1.39,0.10 1.38,0.27 1.32,0.43 1.27,0.59 1.18,0.74 1.09,0.88 1.09,0.88 L 1.09,0.88 Z"/></g><g transform="translate(145.69336700439453 35.29802703857422) rotate(0 8.774574279785156 8.149360656738281)" stroke="none"><path fill="#000000" d="M -0.35,-1.53 Q -0.35,-1.53 0.73,-2.17 1.82,-2.82 3.33,-2.64 4.84,-2.46 6.02,-1.88 7.20,-1.29 8.36,-0.23 9.52,0.82 10.34,1.77 11.16,2.71 12.11,3.91 13.06,5.11 14.57,6.75 16.09,8.38 17.22,9.71 18.34,11.04 19.22,12.14 20.10,13.24 20.27,14.36 20.43,15.47 20.08,16.55 19.73,17.62 18.25,18.31 16.76,18.99 14.91,18.78 13.06,18.56 12.85,18.58 12.64,18.59 12.43,18.54 12.23,18.49 12.05,18.37 11.87,18.26 11.74,18.09 11.61,17.92 11.54,17.72 11.46,17.52 11.46,17.31 11.46,17.10 11.52,16.90 11.58,16.69 11.71,16.52 11.83,16.35 12.01,16.23 12.18,16.10 12.38,16.04 12.59,15.98 12.80,15.99 13.01,16.00 13.21,16.07 13.41,16.15 13.57,16.28 13.74,16.41 13.85,16.59 13.97,16.77 14.02,16.98 14.06,17.19 14.05,17.40 14.03,17.61 13.94,17.80 13.86,18.00 13.71,18.16 13.57,18.31 13.39,18.42 13.20,18.52 12.99,18.56 12.78,18.60 12.57,18.57 12.36,18.54 12.17,18.44 11.98,18.35 11.83,18.19 11.68,18.04 11.59,17.85 11.50,17.66 11.47,17.45 11.44,17.24 11.48,17.03 11.53,16.82 11.63,16.64 11.74,16.45 11.90,16.31 12.06,16.17 12.25,16.09 12.45,16.01 12.45,16.01 12.45,16.01 13.56,15.03 14.67,14.06 14.28,15.21 13.88,16.36 13.03,15.29 12.17,14.22 11.54,13.37 10.90,12.52 10.20,11.53 9.50,10.55 8.81,9.60 8.11,8.65 7.36,7.47 6.60,6.28 5.46,4.72 4.32,3.15 3.49,2.47 2.66,1.78 1.50,1.65 0.35,1.53 0.16,1.55 -0.02,1.57 -0.21,1.54 -0.39,1.52 -0.57,1.45 -0.75,1.38 -0.90,1.27 -1.05,1.16 -1.18,1.01 -1.30,0.87 -1.39,0.70 -1.47,0.53 -1.52,0.35 -1.56,0.16 -1.56,-0.02 -1.55,-0.21 -1.50,-0.39 -1.46,-0.57 -1.37,-0.74 -1.28,-0.91 -1.15,-1.05 -1.02,-1.19 -0.86,-1.29 -0.70,-1.40 -0.53,-1.46 -0.35,-1.53 -0.35,-1.53 L -0.35,-1.53 Z"/></g><g transform="translate(136.04383087158203 49.946876525878906) rotate(0 11.774429321289062 -0.07498931884765625)" stroke="none"><path fill="#000000" d="M -0.16,-1.34 Q -0.16,-1.34 1.42,-2.47 3.02,-3.61 4.52,-3.82 6.03,-4.04 7.73,-4.11 9.42,-4.17 10.67,-4.15 11.91,-4.14 13.23,-4.09 14.55,-4.05 16.80,-3.85 19.06,-3.65 21.16,-2.19 23.25,-0.73 23.46,-0.68 23.67,-0.63 23.85,-0.52 24.03,-0.41 24.16,-0.24 24.30,-0.08 24.37,0.11 24.45,0.31 24.45,0.52 24.46,0.73 24.40,0.94 24.34,1.14 24.22,1.31 24.10,1.49 23.93,1.61 23.75,1.74 23.55,1.80 23.35,1.87 23.14,1.86 22.92,1.86 22.72,1.79 22.52,1.72 22.36,1.59 22.19,1.45 22.07,1.28 21.96,1.10 21.90,0.89 21.85,0.69 21.87,0.47 21.88,0.26 21.96,0.07 22.05,-0.12 22.19,-0.28 22.33,-0.44 22.51,-0.54 22.69,-0.65 22.90,-0.69 23.11,-0.74 23.32,-0.71 23.53,-0.68 23.72,-0.59 23.92,-0.50 24.07,-0.35 24.22,-0.20 24.31,-0.01 24.41,0.17 24.44,0.38 24.47,0.59 24.43,0.80 24.40,1.01 24.29,1.19 24.19,1.38 24.03,1.52 23.88,1.67 23.68,1.75 23.49,1.84 23.28,1.86 23.06,1.88 23.07,1.88 23.07,1.88 20.55,2.79 18.03,3.70 16.13,3.49 14.23,3.28 12.97,3.21 11.71,3.14 10.54,3.09 9.37,3.04 7.89,2.95 6.41,2.87 5.11,2.81 3.82,2.74 1.99,2.04 0.16,1.34 0.00,1.34 -0.15,1.34 -0.31,1.30 -0.47,1.27 -0.62,1.19 -0.76,1.11 -0.88,1.01 -1.01,0.90 -1.10,0.76 -1.19,0.63 -1.25,0.48 -1.31,0.33 -1.33,0.16 -1.35,0.00 -1.33,-0.15 -1.31,-0.31 -1.26,-0.47 -1.20,-0.62 -1.11,-0.75 -1.01,-0.89 -0.89,-1.00 -0.77,-1.11 -0.63,-1.18 -0.48,-1.26 -0.32,-1.30 -0.16,-1.34 -0.16,-1.34 L -0.16,-1.34 Z"/></g><g transform="translate(176.74187469482422 18.749313354492188) rotate(0 1.1999359130859375 2.149829864501953)" stroke="none"><path fill="#000000" d="M 1.26,-0.82 Q 1.26,-0.82 1.94,-0.14 2.62,0.54 2.24,0.57 1.87,0.61 1.94,0.75 2.01,0.90 2.04,1.05 2.08,1.21 2.07,1.36 2.07,1.52 2.03,1.67 1.98,1.83 1.91,1.97 1.83,2.10 1.72,2.22 1.61,2.34 1.48,2.42 1.35,2.51 1.20,2.56 1.05,2.61 0.89,2.63 0.74,2.64 0.58,2.62 0.42,2.60 0.28,2.54 0.13,2.48 0.00,2.39 -0.12,2.29 -0.22,2.17 -0.32,2.05 -0.41,1.82 -0.51,1.59 -0.52,1.38 -0.52,1.17 -0.46,0.96 -0.40,0.76 -0.28,0.59 -0.16,0.41 0.00,0.29 0.17,0.16 0.38,0.10 0.58,0.03 0.79,0.04 1.00,0.04 1.20,0.11 1.40,0.18 1.57,0.31 1.74,0.44 1.85,0.62 1.97,0.80 2.02,1.01 2.08,1.21 2.06,1.42 2.05,1.64 1.96,1.83 1.88,2.03 1.74,2.19 1.60,2.35 1.42,2.45 1.23,2.56 1.03,2.60 0.82,2.64 0.61,2.62 0.40,2.59 0.20,2.50 0.01,2.41 -0.13,2.26 -0.28,2.11 -0.38,1.92 -0.47,1.73 -0.50,1.52 -0.53,1.31 -0.50,1.10 -0.46,0.89 -0.36,0.70 -0.25,0.52 -0.10,0.38 0.05,0.23 0.24,0.15 0.44,0.06 0.65,0.04 0.86,0.02 1.07,0.07 1.28,0.12 1.46,0.23 1.64,0.35 1.77,0.51 1.91,0.67 1.89,0.64 1.87,0.61 1.94,0.75 2.01,0.90 2.04,1.05 2.08,1.20 2.07,1.36 2.07,1.52 2.03,1.67 1.98,1.83 1.91,1.97 1.83,2.10 1.72,2.22 1.61,2.34 1.48,2.42 1.35,2.51 1.20,2.56 1.05,2.61 0.89,2.63 0.74,2.64 0.58,2.62 0.42,2.60 0.28,2.54 0.13,2.48 0.00,2.39 -0.12,2.29 -0.22,2.17 -0.32,2.05 -0.44,2.33 -0.55,2.62 -0.90,1.72 -1.26,0.82 -1.34,0.66 -1.42,0.49 -1.46,0.32 -1.50,0.14 -1.49,-0.03 -1.49,-0.21 -1.44,-0.39 -1.39,-0.56 -1.30,-0.72 -1.21,-0.88 -1.09,-1.01 -0.97,-1.15 -0.81,-1.25 -0.66,-1.35 -0.49,-1.41 -0.32,-1.47 -0.14,-1.49 0.03,-1.50 0.21,-1.48 0.39,-1.45 0.56,-1.38 0.73,-1.31 0.88,-1.21 1.02,-1.10 1.14,-0.96 1.26,-0.82 1.26,-0.82 L 1.26,-0.82 Z"/></g><g transform="translate(173.64202117919922 33.49816131591797) rotate(0 2.349884033203125 -1.5998764038085938)" stroke="none"><path fill="#000000" d="M -0.68,-1.16 Q -0.68,-1.16 0.08,-2.41 0.85,-3.66 0.87,-2.90 0.88,-2.15 1.03,-2.21 1.17,-2.27 1.33,-2.30 1.48,-2.33 1.64,-2.32 1.80,-2.30 1.95,-2.26 2.10,-2.21 2.24,-2.12 2.37,-2.04 2.48,-1.93 2.59,-1.81 2.67,-1.68 2.75,-1.54 2.80,-1.39 2.84,-1.24 2.85,-1.08 2.86,-0.92 2.83,-0.77 2.80,-0.61 2.73,-0.47 2.66,-0.32 2.57,-0.20 2.47,-0.08 2.34,0.01 2.22,0.11 2.05,0.18 1.88,0.24 1.67,0.26 1.46,0.28 1.25,0.24 1.04,0.19 0.86,0.07 0.68,-0.03 0.55,-0.19 0.41,-0.36 0.34,-0.55 0.26,-0.75 0.25,-0.96 0.25,-1.18 0.30,-1.38 0.36,-1.58 0.49,-1.76 0.61,-1.93 0.78,-2.06 0.95,-2.18 1.15,-2.25 1.36,-2.31 1.57,-2.31 1.78,-2.31 1.98,-2.24 2.18,-2.17 2.35,-2.04 2.52,-1.90 2.63,-1.73 2.75,-1.55 2.80,-1.34 2.86,-1.14 2.84,-0.93 2.83,-0.71 2.75,-0.52 2.66,-0.32 2.52,-0.16 2.38,-0.00 2.20,0.09 2.02,0.20 1.81,0.24 1.60,0.29 1.39,0.26 1.18,0.23 0.99,0.14 0.80,0.05 0.64,-0.09 0.49,-0.24 0.39,-0.43 0.30,-0.61 0.27,-0.83 0.24,-1.04 0.27,-1.24 0.31,-1.45 0.41,-1.64 0.51,-1.83 0.67,-1.97 0.83,-2.11 0.85,-2.13 0.88,-2.15 1.03,-2.21 1.17,-2.27 1.33,-2.30 1.48,-2.33 1.64,-2.32 1.80,-2.30 1.95,-2.26 2.10,-2.21 2.24,-2.12 2.37,-2.04 2.48,-1.93 2.59,-1.81 2.67,-1.68 2.75,-1.54 2.80,-1.39 2.84,-1.24 2.85,-1.08 2.86,-0.92 2.83,-0.77 2.80,-0.61 2.73,-0.47 2.66,-0.32 2.57,-0.20 2.47,-0.08 2.34,0.01 2.22,0.11 2.92,0.56 3.62,1.02 2.15,1.09 0.68,1.16 0.53,1.22 0.38,1.29 0.22,1.32 0.06,1.34 -0.09,1.33 -0.25,1.32 -0.41,1.27 -0.56,1.22 -0.70,1.14 -0.84,1.05 -0.95,0.93 -1.07,0.82 -1.15,0.68 -1.23,0.54 -1.28,0.38 -1.33,0.22 -1.33,0.06 -1.34,-0.09 -1.31,-0.25 -1.28,-0.41 -1.21,-0.56 -1.14,-0.71 -1.04,-0.83 -0.94,-0.96 -0.81,-1.06 -0.68,-1.16 -0.68,-1.16 L -0.68,-1.16 Z"/></g><g transform="translate(188.69127655029297 10) rotate(0 3.6998291015625 10.199199676513672)" stroke="none"><path fill="#000000" d="M 1.58,0.74 Q 1.58,0.74 1.66,2.57 1.75,4.39 1.50,5.48 1.24,6.57 3.22,7.06 5.20,7.55 6.67,8.04 8.15,8.52 9.45,9.07 10.75,9.62 11.55,10.39 12.35,11.16 12.81,12.15 13.27,13.13 13.03,15.26 12.79,17.40 11.74,18.98 10.69,20.56 7.11,21.08 3.53,21.61 3.32,21.61 3.11,21.62 2.90,21.56 2.70,21.50 2.53,21.38 2.35,21.25 2.23,21.08 2.10,20.91 2.04,20.71 1.97,20.51 1.98,20.29 1.98,20.08 2.05,19.88 2.12,19.68 2.26,19.51 2.39,19.35 2.57,19.23 2.74,19.12 2.95,19.06 3.16,19.01 3.37,19.03 3.58,19.04 3.77,19.12 3.97,19.21 4.13,19.35 4.29,19.49 4.40,19.67 4.50,19.85 4.54,20.06 4.59,20.27 4.56,20.48 4.53,20.69 4.44,20.88 4.35,21.07 4.20,21.23 4.05,21.38 3.86,21.47 3.67,21.57 3.46,21.60 3.25,21.63 3.04,21.59 2.83,21.55 2.64,21.45 2.46,21.35 2.32,21.19 2.17,21.03 2.09,20.84 2.00,20.64 1.98,20.43 1.96,20.22 2.01,20.02 2.06,19.81 2.17,19.63 2.29,19.45 2.45,19.31 2.62,19.18 2.82,19.10 3.01,19.03 3.01,19.03 3.01,19.03 4.45,17.06 5.88,15.09 4.79,14.71 3.70,14.34 2.41,14.21 1.12,14.08 -0.81,13.51 -2.75,12.93 -3.83,12.00 -4.91,11.08 -5.39,9.96 -5.86,8.84 -5.69,6.75 -5.52,4.65 -5.01,3.06 -4.51,1.46 -3.04,0.36 -1.58,-0.74 -1.47,-0.92 -1.35,-1.10 -1.20,-1.24 -1.05,-1.39 -0.87,-1.50 -0.69,-1.60 -0.48,-1.66 -0.28,-1.72 -0.07,-1.73 0.13,-1.74 0.34,-1.70 0.54,-1.66 0.73,-1.57 0.93,-1.48 1.09,-1.34 1.25,-1.21 1.38,-1.04 1.51,-0.87 1.59,-0.68 1.67,-0.49 1.71,-0.28 1.74,-0.07 1.73,0.13 1.71,0.34 1.64,0.54 1.58,0.74 1.58,0.74 L 1.58,0.74 Z"/></g><g transform="translate(190.74117279052734 20.049217224121094) rotate(0 -5.0497589111328125 11.724082946777344)" stroke="none"><path fill="#000000" d="M 1.70,0.34 Q 1.70,0.34 1.69,2.62 1.68,4.89 1.19,6.86 0.69,8.82 0.25,10.23 -0.19,11.63 -1.06,13.29 -1.94,14.95 -2.43,16.00 -2.92,17.05 -3.82,18.45 -4.72,19.85 -6.79,21.81 -8.86,23.77 -8.99,23.94 -9.12,24.11 -9.30,24.22 -9.48,24.34 -9.68,24.39 -9.89,24.44 -10.10,24.43 -10.31,24.41 -10.51,24.33 -10.71,24.25 -10.86,24.11 -11.02,23.96 -11.13,23.78 -11.24,23.60 -11.28,23.39 -11.32,23.18 -11.29,22.97 -11.26,22.76 -11.17,22.57 -11.08,22.38 -10.93,22.22 -10.78,22.07 -10.59,21.98 -10.40,21.88 -10.19,21.85 -9.98,21.82 -9.77,21.86 -9.56,21.90 -9.38,22.00 -9.19,22.10 -9.05,22.26 -8.90,22.42 -8.82,22.61 -8.73,22.81 -8.72,23.02 -8.70,23.23 -8.75,23.44 -8.80,23.64 -8.91,23.82 -9.02,24.00 -9.19,24.14 -9.35,24.27 -9.55,24.35 -9.75,24.42 -9.96,24.43 -10.17,24.44 -10.38,24.38 -10.58,24.31 -10.75,24.19 -10.93,24.07 -11.05,23.90 -11.18,23.73 -11.24,23.52 -11.31,23.32 -11.30,23.11 -11.30,22.90 -11.23,22.70 -11.15,22.50 -11.15,22.50 -11.15,22.50 -11.36,20.26 -11.58,18.03 -11.08,17.04 -10.59,16.06 -9.88,14.97 -9.17,13.88 -8.50,12.66 -7.84,11.44 -7.03,10.26 -6.22,9.08 -5.59,7.93 -4.96,6.78 -4.21,5.31 -3.46,3.83 -2.58,1.74 -1.70,-0.34 -1.63,-0.54 -1.57,-0.74 -1.46,-0.92 -1.34,-1.10 -1.19,-1.24 -1.04,-1.39 -0.86,-1.49 -0.68,-1.60 -0.48,-1.65 -0.27,-1.71 -0.06,-1.72 0.13,-1.73 0.34,-1.69 0.55,-1.65 0.74,-1.56 0.92,-1.47 1.09,-1.33 1.25,-1.20 1.38,-1.03 1.50,-0.87 1.58,-0.67 1.67,-0.48 1.70,-0.27 1.73,-0.07 1.72,0.13 1.70,0.34 1.70,0.34 L 1.70,0.34 Z"/></g><g transform="translate(174.74199676513672 47.34709930419922) rotate(0 1.1249237060546875 3.39971923828125)" stroke="none"><path fill="#000000" d="M 1.46,-0.24 Q 1.46,-0.24 2.19,0.92 2.93,2.10 3.30,3.17 3.67,4.25 3.85,4.86 4.03,5.47 4.13,5.72 4.24,5.98 4.28,6.25 4.33,6.52 4.30,6.80 4.28,7.07 4.19,7.33 4.10,7.59 3.95,7.82 3.80,8.06 3.60,8.24 3.40,8.43 3.16,8.57 2.93,8.71 2.66,8.78 2.40,8.86 2.12,8.87 1.84,8.88 1.58,8.82 1.31,8.76 1.06,8.64 0.81,8.52 0.60,8.35 0.39,8.17 0.22,7.95 0.06,7.73 -0.16,5.46 -0.38,3.19 -0.41,2.98 -0.44,2.77 -0.40,2.56 -0.36,2.35 -0.25,2.17 -0.15,1.98 0.00,1.84 0.15,1.70 0.35,1.61 0.54,1.53 0.76,1.51 0.97,1.49 1.17,1.54 1.38,1.59 1.56,1.71 1.74,1.82 1.87,1.99 2.01,2.15 2.08,2.35 2.15,2.55 2.16,2.76 2.17,2.98 2.11,3.18 2.04,3.38 1.92,3.56 1.80,3.73 1.62,3.85 1.45,3.98 1.25,4.04 1.05,4.10 0.83,4.10 0.62,4.09 0.42,4.02 0.22,3.95 0.06,3.81 -0.10,3.68 -0.21,3.50 -0.33,3.32 -0.38,3.12 -0.43,2.91 -0.42,2.70 -0.40,2.49 -0.32,2.29 -0.23,2.10 -0.09,1.94 0.04,1.78 0.22,1.68 0.41,1.57 0.62,1.53 0.83,1.49 1.04,1.52 1.25,1.55 1.44,1.64 1.63,1.73 1.78,1.88 1.93,2.03 2.02,2.22 2.12,2.41 2.12,2.41 2.12,2.41 3.07,3.94 4.03,5.47 4.13,5.72 4.24,5.98 4.28,6.25 4.33,6.52 4.30,6.80 4.28,7.07 4.19,7.33 4.10,7.59 3.95,7.82 3.80,8.05 3.60,8.24 3.40,8.43 3.16,8.57 2.93,8.71 2.66,8.78 2.40,8.86 2.12,8.87 1.85,8.88 1.58,8.82 1.31,8.76 1.06,8.64 0.81,8.52 0.60,8.35 0.39,8.17 0.22,7.95 0.06,7.73 -0.62,6.88 -1.31,6.03 -1.69,4.49 -2.07,2.95 -1.76,1.60 -1.46,0.24 -1.46,0.07 -1.47,-0.10 -1.44,-0.28 -1.40,-0.45 -1.33,-0.62 -1.25,-0.78 -1.14,-0.92 -1.03,-1.06 -0.89,-1.16 -0.75,-1.27 -0.58,-1.34 -0.42,-1.42 -0.24,-1.45 -0.07,-1.48 0.10,-1.46 0.28,-1.45 0.45,-1.39 0.62,-1.34 0.77,-1.24 0.92,-1.15 1.05,-1.02 1.17,-0.89 1.26,-0.74 1.35,-0.59 1.41,-0.42 1.46,-0.24 1.46,-0.24 L 1.46,-0.24 Z"/></g><g transform="translate(186.39141082763672 37.447853088378906) rotate(0 -3.349853515625 9.599250793457031)" stroke="none"><path fill="#000000" d="M 1.31,1.13 Q 1.31,1.13 -0.29,3.77 -1.91,6.41 -2.89,7.98 -3.87,9.55 -4.79,10.83 -5.71,12.12 -6.77,13.48 -7.84,14.84 -8.58,15.65 -9.32,16.47 -9.61,15.33 -9.90,14.19 -8.07,14.23 -6.24,14.27 -4.21,14.41 -2.18,14.55 -0.49,14.86 1.19,15.17 2.57,16.53 3.94,17.88 4.13,17.78 4.31,17.67 4.52,17.62 4.73,17.58 4.94,17.61 5.15,17.63 5.34,17.72 5.53,17.81 5.69,17.96 5.84,18.11 5.94,18.30 6.03,18.48 6.07,18.69 6.10,18.90 6.06,19.11 6.03,19.32 5.93,19.51 5.82,19.70 5.67,19.84 5.51,19.99 5.32,20.07 5.13,20.16 4.92,20.18 4.70,20.20 4.50,20.16 4.29,20.11 4.11,20.00 3.93,19.89 3.79,19.72 3.66,19.56 3.58,19.36 3.50,19.16 3.49,18.95 3.48,18.74 3.54,18.54 3.60,18.33 3.72,18.16 3.84,17.98 4.01,17.85 4.18,17.73 4.38,17.66 4.58,17.59 4.80,17.60 5.01,17.60 5.21,17.67 5.41,17.74 5.58,17.87 5.75,18.00 5.87,18.17 5.98,18.35 6.04,18.56 6.09,18.76 6.08,18.97 6.07,19.19 5.99,19.38 5.91,19.58 5.77,19.74 5.63,19.90 5.63,19.90 5.63,19.90 2.78,20.40 -0.05,20.90 -1.49,20.44 -2.92,19.99 -4.01,19.80 -5.11,19.60 -6.16,19.39 -7.22,19.19 -9.19,18.70 -11.17,18.20 -12.26,17.27 -13.34,16.34 -13.35,15.15 -13.35,13.96 -12.74,12.78 -12.12,11.60 -11.19,10.19 -10.26,8.78 -9.40,7.65 -8.54,6.51 -7.31,4.67 -6.07,2.83 -3.69,0.85 -1.31,-1.13 -1.16,-1.27 -1.00,-1.41 -0.82,-1.51 -0.63,-1.61 -0.43,-1.67 -0.23,-1.72 -0.02,-1.72 0.18,-1.72 0.39,-1.68 0.59,-1.63 0.78,-1.53 0.97,-1.44 1.12,-1.30 1.28,-1.17 1.40,-0.99 1.53,-0.82 1.60,-0.63 1.68,-0.43 1.71,-0.22 1.73,-0.02 1.71,0.18 1.69,0.39 1.62,0.59 1.55,0.78 1.43,0.96 1.31,1.13 1.31,1.13 L 1.31,1.13 Z"/></g><g transform="translate(191.69112396240234 46.79711151123047) rotate(0 -7.19964599609375 5.124603271484375)" stroke="none"><path fill="#000000" d="M 1.08,0.95 Q 1.08,0.95 0.49,2.75 -0.09,4.55 -1.35,5.84 -2.61,7.12 -3.37,7.86 -4.14,8.60 -5.45,9.47 -6.76,10.34 -7.85,10.84 -8.94,11.33 -11.28,11.35 -13.61,11.37 -13.82,11.40 -14.03,11.43 -14.24,11.40 -14.45,11.36 -14.63,11.26 -14.82,11.16 -14.97,11.01 -15.11,10.85 -15.20,10.66 -15.29,10.47 -15.31,10.26 -15.33,10.04 -15.29,9.84 -15.24,9.63 -15.13,9.45 -15.02,9.27 -14.86,9.13 -14.69,8.99 -14.50,8.91 -14.30,8.84 -14.09,8.83 -13.87,8.82 -13.67,8.87 -13.47,8.93 -13.29,9.05 -13.11,9.17 -12.99,9.34 -12.86,9.51 -12.79,9.71 -12.72,9.91 -12.73,10.13 -12.73,10.34 -12.80,10.54 -12.86,10.74 -12.99,10.91 -13.12,11.08 -13.30,11.20 -13.48,11.31 -13.68,11.37 -13.89,11.43 -14.10,11.41 -14.31,11.40 -14.51,11.32 -14.70,11.24 -14.87,11.10 -15.03,10.97 -15.14,10.78 -15.24,10.60 -15.29,10.39 -15.33,10.19 -15.31,9.97 -15.29,9.76 -15.20,9.57 -15.11,9.38 -14.96,9.22 -14.81,9.07 -14.62,8.97 -14.44,8.87 -14.44,8.87 -14.44,8.87 -13.10,7.47 -11.77,6.07 -10.10,5.00 -8.43,3.94 -7.62,3.22 -6.81,2.51 -5.66,1.59 -4.50,0.67 -2.79,-0.14 -1.08,-0.95 -0.95,-1.07 -0.82,-1.18 -0.67,-1.26 -0.51,-1.34 -0.34,-1.39 -0.17,-1.43 -0.00,-1.43 0.16,-1.43 0.33,-1.39 0.50,-1.35 0.66,-1.27 0.81,-1.19 0.94,-1.07 1.07,-0.96 1.17,-0.81 1.27,-0.67 1.33,-0.51 1.40,-0.35 1.42,-0.17 1.44,-0.00 1.42,0.16 1.40,0.34 1.34,0.50 1.28,0.66 1.18,0.81 1.08,0.95 1.08,0.95 L 1.08,0.95 Z"/></g><g transform="translate(173.74199676513672 47.09709930419922) rotate(0 10.524490356445312 -1.4248886108398438)" stroke="none"><path fill="#000000" d="M -0.23,-1.35 Q -0.23,-1.35 2.42,-2.63 5.07,-3.91 7.48,-4.23 9.90,-4.55 11.38,-4.76 12.87,-4.97 14.37,-5.26 15.87,-5.55 18.06,-4.59 20.24,-3.63 20.45,-3.59 20.66,-3.55 20.85,-3.44 21.03,-3.34 21.18,-3.18 21.32,-3.03 21.40,-2.83 21.49,-2.64 21.51,-2.42 21.52,-2.21 21.47,-2.01 21.42,-1.80 21.31,-1.62 21.20,-1.44 21.03,-1.31 20.86,-1.17 20.67,-1.10 20.47,-1.03 20.25,-1.02 20.04,-1.01 19.84,-1.07 19.64,-1.14 19.46,-1.26 19.29,-1.38 19.16,-1.55 19.04,-1.73 18.98,-1.93 18.91,-2.13 18.92,-2.34 18.92,-2.56 19.00,-2.76 19.07,-2.96 19.20,-3.12 19.33,-3.29 19.51,-3.40 19.69,-3.52 19.90,-3.57 20.10,-3.62 20.31,-3.61 20.53,-3.59 20.72,-3.51 20.92,-3.42 21.08,-3.28 21.23,-3.14 21.34,-2.96 21.45,-2.77 21.49,-2.56 21.53,-2.35 21.50,-2.14 21.47,-1.93 21.38,-1.74 21.28,-1.55 21.13,-1.40 20.98,-1.25 20.79,-1.16 20.60,-1.06 20.39,-1.03 20.18,-1.00 20.18,-1.00 20.18,-1.00 18.61,-0.13 17.03,0.73 15.36,1.04 13.69,1.35 12.11,1.54 10.53,1.73 8.30,1.87 6.08,2.01 3.15,1.68 0.23,1.35 0.06,1.36 -0.10,1.36 -0.26,1.33 -0.42,1.30 -0.57,1.23 -0.72,1.16 -0.85,1.06 -0.98,0.95 -1.08,0.82 -1.18,0.69 -1.25,0.54 -1.31,0.39 -1.34,0.22 -1.37,0.06 -1.35,-0.09 -1.34,-0.26 -1.29,-0.42 -1.24,-0.57 -1.15,-0.72 -1.07,-0.86 -0.95,-0.97 -0.83,-1.09 -0.69,-1.17 -0.54,-1.25 -0.38,-1.30 -0.23,-1.35 -0.23,-1.35 L -0.23,-1.35 Z"/></g><g transform="translate(204.74053192138672 21.44910430908203) rotate(0 5.8496856689453125 0.574951171875)" stroke="none"><path fill="#000000" d="M 0.30,-1.40 Q 0.30,-1.40 1.98,-1.76 3.67,-2.12 5.51,-2.08 7.35,-2.03 9.19,-1.59 11.02,-1.15 11.23,-1.19 11.44,-1.23 11.65,-1.20 11.86,-1.17 12.05,-1.08 12.24,-0.99 12.40,-0.84 12.55,-0.69 12.64,-0.50 12.74,-0.31 12.77,-0.10 12.80,0.10 12.76,0.31 12.72,0.52 12.62,0.70 12.51,0.89 12.36,1.03 12.20,1.18 12.00,1.26 11.81,1.35 11.60,1.36 11.39,1.38 11.18,1.33 10.97,1.28 10.79,1.17 10.61,1.06 10.48,0.89 10.35,0.73 10.27,0.53 10.20,0.33 10.19,0.12 10.18,-0.09 10.24,-0.29 10.31,-0.49 10.43,-0.67 10.55,-0.84 10.72,-0.96 10.89,-1.09 11.10,-1.15 11.30,-1.22 11.51,-1.21 11.72,-1.21 11.92,-1.14 12.12,-1.06 12.29,-0.93 12.46,-0.80 12.57,-0.62 12.69,-0.44 12.74,-0.24 12.79,-0.03 12.78,0.17 12.76,0.38 12.68,0.58 12.60,0.77 12.46,0.93 12.31,1.09 12.13,1.20 11.95,1.30 11.95,1.30 11.95,1.30 10.37,2.54 8.79,3.77 7.06,3.78 5.33,3.80 3.90,3.62 2.48,3.44 1.09,2.42 -0.30,1.40 -0.46,1.34 -0.62,1.28 -0.77,1.19 -0.91,1.10 -1.03,0.97 -1.15,0.84 -1.24,0.69 -1.32,0.54 -1.37,0.38 -1.41,0.21 -1.42,0.04 -1.42,-0.13 -1.39,-0.29 -1.35,-0.46 -1.28,-0.62 -1.20,-0.77 -1.09,-0.91 -0.98,-1.04 -0.84,-1.14 -0.70,-1.24 -0.54,-1.31 -0.38,-1.38 -0.21,-1.40 -0.04,-1.43 0.12,-1.41 0.30,-1.40 0.30,-1.40 L 0.30,-1.40 Z"/></g><g transform="translate(213.89006805419922 14.79962158203125) rotate(0 -4.3748016357421875 11.149127960205078)" stroke="none"><path fill="#000000" d="M 1.37,0.45 Q 1.37,0.45 1.20,3.21 1.02,5.97 0.16,8.79 -0.70,11.61 -1.60,13.73 -2.49,15.86 -3.46,17.61 -4.43,19.35 -5.79,20.38 -7.16,21.41 -7.07,21.60 -6.97,21.79 -6.94,22.00 -6.91,22.21 -6.95,22.42 -6.99,22.63 -7.09,22.82 -7.19,23.00 -7.35,23.15 -7.51,23.29 -7.70,23.37 -7.90,23.46 -8.11,23.48 -8.32,23.50 -8.53,23.45 -8.73,23.40 -8.91,23.28 -9.09,23.17 -9.23,23.01 -9.36,22.84 -9.44,22.64 -9.51,22.44 -9.52,22.23 -9.52,22.02 -9.46,21.82 -9.40,21.61 -9.28,21.44 -9.16,21.27 -8.99,21.14 -8.81,21.02 -8.61,20.95 -8.41,20.89 -8.20,20.89 -7.98,20.90 -7.78,20.97 -7.58,21.04 -7.42,21.17 -7.25,21.30 -7.13,21.48 -7.02,21.66 -6.97,21.87 -6.91,22.07 -6.93,22.28 -6.95,22.50 -7.03,22.69 -7.11,22.89 -7.25,23.05 -7.39,23.21 -7.58,23.31 -7.76,23.42 -7.97,23.46 -8.18,23.50 -8.39,23.47 -8.60,23.45 -8.79,23.35 -8.98,23.26 -9.13,23.11 -9.28,22.96 -9.28,22.96 -9.28,22.96 -9.40,19.75 -9.51,16.54 -8.69,15.04 -7.86,13.54 -7.05,11.69 -6.23,9.84 -5.29,7.02 -4.36,4.20 -2.86,1.87 -1.37,-0.45 -1.29,-0.60 -1.22,-0.76 -1.11,-0.90 -1.00,-1.03 -0.86,-1.14 -0.72,-1.24 -0.56,-1.31 -0.40,-1.38 -0.23,-1.41 -0.06,-1.44 0.10,-1.43 0.28,-1.41 0.44,-1.36 0.61,-1.30 0.76,-1.21 0.90,-1.12 1.02,-0.99 1.15,-0.87 1.23,-0.72 1.32,-0.57 1.37,-0.40 1.42,-0.23 1.43,-0.06 1.44,0.10 1.40,0.27 1.37,0.45 1.37,0.45 L 1.37,0.45 Z"/></g><g transform="translate(209.99022674560547 32.29827117919922) rotate(0 4.624786376953125 1.4998779296875)" stroke="none"><path fill="#000000" d="M 0.09,-1.44 Q 0.09,-1.44 1.87,-2.07 3.64,-2.70 4.80,-2.56 5.95,-2.42 7.38,-0.07 8.81,2.28 8.95,2.35 9.10,2.42 9.22,2.52 9.34,2.62 9.43,2.75 9.52,2.88 9.58,3.03 9.64,3.18 9.66,3.33 9.68,3.49 9.66,3.65 9.65,3.80 9.59,3.95 9.54,4.10 9.45,4.23 9.37,4.37 9.25,4.47 9.13,4.58 8.99,4.66 8.85,4.73 8.70,4.77 8.55,4.81 8.39,4.82 8.23,4.82 8.08,4.78 7.92,4.75 8.54,4.65 9.16,4.56 8.98,4.66 8.79,4.76 8.58,4.79 8.37,4.83 8.16,4.79 7.95,4.76 7.76,4.66 7.57,4.56 7.43,4.40 7.28,4.25 7.19,4.06 7.10,3.86 7.08,3.65 7.06,3.44 7.10,3.23 7.15,3.03 7.26,2.84 7.37,2.66 7.53,2.53 7.69,2.39 7.89,2.31 8.08,2.23 8.30,2.22 8.51,2.21 8.71,2.26 8.92,2.32 9.09,2.44 9.27,2.56 9.40,2.73 9.53,2.90 9.60,3.10 9.66,3.30 9.66,3.51 9.66,3.72 9.60,3.92 9.53,4.13 9.40,4.30 9.27,4.46 9.10,4.58 8.92,4.70 8.72,4.76 8.51,4.82 8.30,4.81 8.09,4.79 7.89,4.72 7.69,4.64 7.53,4.50 7.37,4.36 7.26,4.18 7.15,4.00 7.10,3.79 7.06,3.58 7.08,3.37 7.10,3.16 7.19,2.97 7.28,2.78 8.05,2.53 8.81,2.28 8.95,2.35 9.10,2.42 9.22,2.52 9.34,2.62 9.43,2.75 9.52,2.88 9.58,3.03 9.64,3.18 9.66,3.33 9.68,3.49 9.66,3.65 9.65,3.80 9.59,3.95 9.54,4.10 9.45,4.23 9.37,4.37 9.25,4.47 9.13,4.58 8.99,4.66 8.85,4.73 8.70,4.77 8.55,4.81 8.39,4.82 8.23,4.82 8.08,4.78 7.92,4.75 6.86,4.28 5.80,3.81 4.52,3.49 3.25,3.16 1.57,2.30 -0.09,1.44 -0.26,1.40 -0.43,1.37 -0.59,1.30 -0.75,1.23 -0.89,1.12 -1.02,1.01 -1.13,0.87 -1.24,0.74 -1.31,0.58 -1.38,0.42 -1.41,0.24 -1.44,0.07 -1.43,-0.09 -1.42,-0.26 -1.36,-0.43 -1.31,-0.60 -1.22,-0.75 -1.13,-0.89 -1.00,-1.02 -0.88,-1.14 -0.73,-1.23 -0.58,-1.32 -0.41,-1.37 -0.25,-1.42 -0.07,-1.43 0.09,-1.44 0.09,-1.44 L 0.09,-1.44 Z"/></g><g transform="translate(210.89019012451172 38.99773406982422) rotate(0 2.07489013671875 1.27490234375)" stroke="none"><path fill="#000000" d="M 0.68,-1.39 Q 0.68,-1.39 1.81,-1.54 2.93,-1.68 3.97,-0.61 5.02,0.45 3.83,0.26 2.63,0.08 2.73,0.21 2.83,0.33 2.89,0.48 2.96,0.62 2.99,0.78 3.02,0.93 3.01,1.09 3.00,1.25 2.95,1.40 2.90,1.55 2.82,1.69 2.74,1.82 2.63,1.93 2.51,2.04 2.38,2.13 2.24,2.21 2.09,2.26 1.94,2.30 1.78,2.31 1.62,2.32 1.47,2.29 1.31,2.26 1.17,2.20 1.02,2.13 0.90,2.04 0.78,1.94 0.74,1.90 0.71,1.87 0.60,1.68 0.49,1.50 0.44,1.30 0.39,1.09 0.42,0.88 0.44,0.67 0.53,0.47 0.61,0.28 0.76,0.12 0.90,-0.02 1.09,-0.12 1.28,-0.22 1.49,-0.26 1.70,-0.29 1.91,-0.26 2.12,-0.23 2.31,-0.13 2.49,-0.03 2.64,0.11 2.79,0.27 2.88,0.46 2.97,0.65 2.99,0.86 3.02,1.07 2.97,1.28 2.93,1.49 2.82,1.67 2.71,1.85 2.55,1.99 2.39,2.13 2.19,2.21 1.99,2.29 1.78,2.30 1.57,2.32 1.36,2.26 1.16,2.21 0.98,2.09 0.81,1.97 0.68,1.80 0.55,1.63 0.48,1.43 0.41,1.23 0.41,1.02 0.41,0.80 0.47,0.60 0.54,0.40 0.67,0.23 0.80,0.06 0.97,-0.05 1.15,-0.17 1.35,-0.23 1.56,-0.28 1.77,-0.27 1.98,-0.26 2.18,-0.19 2.38,-0.11 2.50,-0.01 2.63,0.08 2.73,0.21 2.83,0.33 2.89,0.48 2.96,0.62 2.99,0.78 3.02,0.93 3.01,1.09 3.00,1.25 2.95,1.40 2.90,1.55 2.82,1.69 2.74,1.82 2.63,1.93 2.51,2.04 2.38,2.13 2.24,2.21 2.09,2.26 1.94,2.30 1.78,2.31 1.62,2.32 1.47,2.29 1.31,2.26 1.17,2.20 1.02,2.13 0.90,2.04 0.78,1.94 0.61,2.64 0.45,3.34 -0.11,2.37 -0.68,1.39 -0.84,1.29 -1.00,1.19 -1.13,1.05 -1.25,0.91 -1.35,0.75 -1.44,0.59 -1.49,0.40 -1.54,0.22 -1.54,0.04 -1.55,-0.14 -1.51,-0.33 -1.47,-0.51 -1.38,-0.68 -1.30,-0.85 -1.18,-0.99 -1.06,-1.13 -0.91,-1.24 -0.76,-1.36 -0.58,-1.43 -0.41,-1.50 -0.22,-1.53 -0.04,-1.55 0.14,-1.53 0.33,-1.52 0.51,-1.46 0.68,-1.39 0.68,-1.39 L 0.68,-1.39 Z"/></g><g transform="translate(208.04033660888672 46.74712371826172) rotate(0 -4.024810791015625 5.199592590332031)" stroke="none"><path fill="#000000" d="M 1.51,0.98 Q 1.51,0.98 0.61,2.81 -0.28,4.64 -1.18,5.98 -2.07,7.32 -2.74,8.16 -3.41,9.01 -4.89,9.48 -6.37,9.96 -6.49,10.07 -6.60,10.18 -6.74,10.26 -6.87,10.34 -7.02,10.39 -7.17,10.44 -7.33,10.45 -7.49,10.45 -7.65,10.42 -7.80,10.40 -7.95,10.33 -8.09,10.26 -8.21,10.17 -8.34,10.07 -8.44,9.94 -8.53,9.82 -8.60,9.67 -8.66,9.53 -8.69,9.37 -8.72,9.22 -8.71,9.06 -8.70,8.90 -8.65,8.75 -8.60,8.60 -8.52,8.46 -8.43,8.33 -8.42,8.31 -8.40,8.29 -8.24,8.15 -8.08,8.02 -7.88,7.94 -7.68,7.86 -7.47,7.85 -7.26,7.84 -7.05,7.90 -6.85,7.95 -6.67,8.07 -6.50,8.19 -6.37,8.36 -6.24,8.53 -6.18,8.73 -6.11,8.93 -6.11,9.15 -6.11,9.36 -6.18,9.56 -6.25,9.76 -6.38,9.93 -6.50,10.10 -6.68,10.22 -6.86,10.34 -7.06,10.39 -7.27,10.45 -7.48,10.44 -7.69,10.43 -7.89,10.35 -8.09,10.27 -8.25,10.13 -8.41,9.99 -8.52,9.81 -8.63,9.63 -8.67,9.42 -8.72,9.21 -8.69,9.00 -8.67,8.79 -8.58,8.60 -8.49,8.40 -8.34,8.25 -8.20,8.10 -8.01,8.00 -7.82,7.90 -7.61,7.86 -7.40,7.83 -7.19,7.87 -6.98,7.90 -6.79,8.00 -6.61,8.10 -6.46,8.26 -6.32,8.41 -6.23,8.60 -6.14,8.80 -6.12,9.01 -6.09,9.22 -6.14,9.43 -6.19,9.63 -6.28,9.80 -6.37,9.96 -6.49,10.07 -6.60,10.18 -6.74,10.26 -6.87,10.34 -7.02,10.39 -7.17,10.44 -7.33,10.45 -7.49,10.45 -7.65,10.42 -7.80,10.40 -7.95,10.33 -8.09,10.26 -8.21,10.17 -8.34,10.07 -8.43,9.94 -8.53,9.82 -8.60,9.67 -8.66,9.53 -8.69,9.37 -8.72,9.22 -8.71,9.06 -8.70,8.90 -8.65,8.75 -8.60,8.60 -8.52,8.46 -8.43,8.33 -8.28,7.83 -8.13,7.33 -7.04,5.96 -5.95,4.58 -5.04,3.36 -4.13,2.13 -2.82,0.57 -1.51,-0.98 -1.37,-1.15 -1.23,-1.32 -1.05,-1.44 -0.88,-1.57 -0.67,-1.65 -0.47,-1.74 -0.26,-1.77 -0.04,-1.80 0.16,-1.78 0.38,-1.76 0.59,-1.69 0.79,-1.62 0.97,-1.50 1.16,-1.38 1.31,-1.22 1.45,-1.06 1.56,-0.87 1.67,-0.68 1.72,-0.47 1.78,-0.26 1.79,-0.04 1.79,0.17 1.75,0.38 1.70,0.59 1.60,0.79 1.51,0.98 1.51,0.98 L 1.51,0.98 Z"/></g><g transform="translate(207.2403793334961 51.19676971435547) rotate(0 7.7496185302734375 3.1497573852539062)" stroke="none"><path fill="#000000" d="M 0.71,-1.16 Q 0.71,-1.16 2.47,-0.78 4.24,-0.40 5.58,0.16 6.92,0.72 8.70,1.47 10.48,2.21 11.70,2.56 12.92,2.91 13.55,3.34 14.18,3.77 14.30,3.59 14.41,3.41 14.58,3.28 14.74,3.14 14.94,3.07 15.14,3.00 15.36,2.99 15.57,2.99 15.77,3.05 15.97,3.12 16.15,3.24 16.32,3.36 16.44,3.54 16.57,3.71 16.63,3.91 16.69,4.12 16.68,4.33 16.68,4.54 16.60,4.74 16.53,4.94 16.40,5.10 16.26,5.27 16.08,5.38 15.90,5.50 15.70,5.55 15.49,5.60 15.28,5.58 15.07,5.56 14.87,5.48 14.68,5.39 14.52,5.25 14.36,5.11 14.26,4.92 14.15,4.74 14.11,4.53 14.07,4.32 14.10,4.11 14.13,3.90 14.23,3.71 14.32,3.52 14.47,3.37 14.62,3.22 14.82,3.13 15.01,3.03 15.22,3.01 15.43,2.98 15.64,3.02 15.84,3.06 16.03,3.16 16.21,3.27 16.36,3.43 16.50,3.59 16.58,3.78 16.66,3.98 16.68,4.19 16.70,4.40 16.64,4.61 16.59,4.81 16.59,4.81 16.59,4.81 13.87,6.96 11.16,9.10 9.44,8.55 7.72,7.99 5.86,6.89 3.99,5.79 2.78,4.87 1.56,3.96 0.42,2.56 -0.71,1.16 -0.84,1.06 -0.97,0.96 -1.07,0.83 -1.17,0.69 -1.24,0.54 -1.30,0.39 -1.33,0.23 -1.36,0.07 -1.35,-0.09 -1.34,-0.25 -1.29,-0.41 -1.24,-0.57 -1.15,-0.71 -1.07,-0.85 -0.95,-0.96 -0.83,-1.08 -0.69,-1.16 -0.55,-1.25 -0.39,-1.29 -0.23,-1.34 -0.07,-1.35 0.09,-1.36 0.25,-1.33 0.41,-1.30 0.56,-1.23 0.71,-1.16 0.71,-1.16 L 0.71,-1.16 Z"/></g><g transform="translate(215.93993377685547 46.547142028808594) rotate(0 2.124908447265625 2.7247848510742188)" stroke="none"><path fill="#000000" d="M 1.29,-0.71 Q 1.29,-0.71 2.17,0.05 3.04,0.83 3.63,1.81 4.22,2.79 4.13,3.19 4.05,3.59 4.22,3.62 4.38,3.64 4.54,3.71 4.69,3.77 4.83,3.87 4.96,3.97 5.07,4.10 5.18,4.23 5.25,4.38 5.32,4.53 5.36,4.69 5.39,4.86 5.39,5.03 5.38,5.19 5.34,5.36 5.29,5.52 5.21,5.66 5.13,5.81 5.01,5.93 4.90,6.05 4.76,6.14 4.62,6.24 4.46,6.29 4.30,6.34 4.13,6.36 3.96,6.37 2.32,4.66 0.68,2.94 0.57,2.75 0.47,2.57 0.43,2.36 0.39,2.15 0.42,1.94 0.44,1.73 0.54,1.54 0.63,1.35 0.78,1.20 0.93,1.05 1.12,0.95 1.31,0.86 1.52,0.83 1.74,0.80 1.94,0.84 2.15,0.88 2.34,0.99 2.52,1.09 2.66,1.25 2.81,1.41 2.89,1.60 2.97,1.80 2.99,2.01 3.01,2.22 2.96,2.43 2.91,2.63 2.79,2.81 2.68,2.99 2.51,3.12 2.35,3.26 2.15,3.33 1.95,3.40 1.74,3.41 1.52,3.42 1.32,3.35 1.12,3.29 0.94,3.17 0.77,3.04 0.65,2.87 0.52,2.70 0.46,2.50 0.40,2.29 0.40,2.08 0.41,1.87 0.48,1.67 0.56,1.47 0.69,1.30 0.82,1.14 1.00,1.02 1.18,0.91 1.39,0.86 1.59,0.81 1.81,0.82 2.02,0.84 2.21,0.92 2.41,1.01 2.57,1.15 2.72,1.29 2.72,1.29 2.72,1.29 3.39,2.44 4.05,3.59 4.22,3.62 4.38,3.64 4.54,3.71 4.69,3.77 4.83,3.87 4.96,3.97 5.07,4.10 5.18,4.23 5.25,4.38 5.32,4.53 5.36,4.69 5.39,4.86 5.39,5.03 5.38,5.19 5.34,5.36 5.29,5.52 5.21,5.66 5.13,5.81 5.01,5.93 4.90,6.05 4.76,6.14 4.62,6.24 4.46,6.29 4.30,6.34 4.13,6.36 3.96,6.37 3.31,6.73 2.66,7.09 1.42,6.10 0.19,5.10 -0.36,4.06 -0.91,3.02 -1.10,1.86 -1.29,0.71 -1.36,0.55 -1.43,0.38 -1.45,0.20 -1.48,0.03 -1.46,-0.14 -1.44,-0.32 -1.38,-0.49 -1.32,-0.66 -1.22,-0.81 -1.13,-0.95 -0.99,-1.08 -0.86,-1.20 -0.71,-1.28 -0.55,-1.37 -0.38,-1.42 -0.20,-1.46 -0.03,-1.47 0.14,-1.47 0.32,-1.43 0.49,-1.39 0.65,-1.31 0.81,-1.23 0.95,-1.12 1.08,-1.00 1.19,-0.86 1.29,-0.71 1.29,-0.71 L 1.29,-0.71 Z"/></g><g transform="translate(225.78948211669922 44.19731903076172) rotate(0 1.749908447265625 4.149681091308594)" stroke="none"><path fill="#000000" d="M 1.28,-0.42 Q 1.28,-0.42 2.29,0.57 3.30,1.58 3.87,4.45 4.45,7.32 4.52,7.52 4.60,7.72 4.61,7.93 4.61,8.14 4.55,8.35 4.49,8.55 4.37,8.72 4.25,8.90 4.07,9.02 3.90,9.15 3.70,9.21 3.50,9.27 3.28,9.27 3.07,9.26 2.87,9.19 2.67,9.12 2.51,8.99 2.34,8.86 2.22,8.68 2.11,8.50 2.05,8.29 2.00,8.09 2.02,7.88 2.03,7.67 2.12,7.47 2.20,7.27 2.34,7.11 2.48,6.96 2.66,6.85 2.85,6.74 3.06,6.70 3.27,6.66 3.48,6.69 3.69,6.72 3.88,6.81 4.07,6.90 4.22,7.05 4.37,7.20 4.47,7.39 4.56,7.58 4.59,7.79 4.62,8.00 4.58,8.21 4.55,8.42 4.44,8.60 4.34,8.79 4.18,8.93 4.03,9.08 3.83,9.16 3.64,9.25 3.42,9.26 3.21,9.28 3.01,9.23 2.80,9.18 2.62,9.07 2.44,8.96 2.31,8.79 2.17,8.63 2.17,8.63 2.17,8.63 0.24,5.94 -1.69,3.24 -1.48,1.83 -1.28,0.42 -1.31,0.26 -1.34,0.10 -1.34,-0.05 -1.33,-0.21 -1.28,-0.37 -1.24,-0.53 -1.16,-0.67 -1.07,-0.81 -0.96,-0.92 -0.85,-1.04 -0.71,-1.13 -0.57,-1.22 -0.42,-1.27 -0.26,-1.32 -0.10,-1.33 0.05,-1.35 0.21,-1.32 0.37,-1.29 0.52,-1.23 0.67,-1.16 0.80,-1.07 0.93,-0.97 1.03,-0.84 1.14,-0.72 1.21,-0.57 1.28,-0.42 1.28,-0.42 L 1.28,-0.42 Z"/></g><g transform="translate(247.2384262084961 15.049606323242188) rotate(0 -7.4996337890625 8.12436294555664)" stroke="none"><path fill="#000000" d="M 0.79,1.18 Q 0.79,1.18 -0.50,3.00 -1.79,4.83 -2.86,5.65 -3.92,6.47 -5.01,7.62 -6.10,8.76 -6.80,9.75 -7.50,10.74 -8.30,11.75 -9.11,12.77 -11.31,14.37 -13.51,15.97 -13.51,16.19 -13.51,16.40 -13.58,16.60 -13.65,16.80 -13.78,16.97 -13.90,17.14 -14.08,17.26 -14.26,17.38 -14.46,17.43 -14.67,17.49 -14.88,17.48 -15.09,17.46 -15.29,17.38 -15.49,17.31 -15.65,17.17 -15.81,17.03 -15.92,16.85 -16.03,16.66 -16.07,16.46 -16.12,16.25 -16.09,16.04 -16.07,15.83 -15.98,15.63 -15.89,15.44 -15.74,15.29 -15.60,15.13 -15.41,15.04 -15.22,14.94 -15.01,14.90 -14.80,14.87 -14.59,14.90 -14.38,14.94 -14.19,15.04 -14.01,15.14 -13.86,15.29 -13.71,15.45 -13.63,15.64 -13.54,15.84 -13.52,16.05 -13.49,16.26 -13.54,16.47 -13.59,16.67 -13.70,16.85 -13.81,17.04 -13.97,17.17 -14.13,17.31 -14.33,17.39 -14.53,17.47 -14.74,17.48 -14.95,17.49 -15.16,17.43 -15.36,17.37 -15.54,17.25 -15.71,17.13 -15.84,16.96 -15.97,16.79 -16.03,16.59 -16.10,16.39 -16.10,16.39 -16.10,16.39 -14.97,12.84 -13.84,9.28 -13.13,8.24 -12.41,7.20 -11.43,5.86 -10.46,4.52 -9.03,3.08 -7.60,1.65 -6.38,0.73 -5.15,-0.17 -2.97,-0.68 -0.79,-1.18 -0.63,-1.25 -0.48,-1.33 -0.31,-1.37 -0.15,-1.41 0.02,-1.41 0.19,-1.40 0.35,-1.36 0.52,-1.32 0.67,-1.24 0.82,-1.15 0.95,-1.04 1.07,-0.92 1.17,-0.78 1.26,-0.64 1.32,-0.48 1.38,-0.32 1.40,-0.15 1.42,0.02 1.39,0.19 1.37,0.35 1.31,0.51 1.24,0.67 1.14,0.81 1.05,0.95 0.92,1.06 0.79,1.18 0.79,1.18 L 0.79,1.18 Z"/></g><g transform="translate(233.68907928466797 31.04834747314453) rotate(0 1.84991455078125 9.599250793457031)" stroke="none"><path fill="#000000" d="M 1.29,-0.56 Q 1.29,-0.56 2.22,0.42 3.14,1.40 3.59,2.78 4.04,4.16 4.34,5.19 4.63,6.22 4.96,7.88 5.28,9.54 5.63,11.64 5.97,13.73 6.09,15.08 6.21,16.42 5.59,17.26 4.97,18.11 4.97,18.27 4.97,18.42 4.93,18.58 4.89,18.73 4.82,18.87 4.75,19.01 4.64,19.13 4.54,19.25 4.40,19.34 4.27,19.43 4.13,19.48 3.98,19.54 3.82,19.56 3.66,19.58 3.51,19.56 3.35,19.54 3.20,19.48 3.05,19.43 2.92,19.34 2.79,19.25 2.69,19.13 2.58,19.01 2.51,18.87 2.44,18.73 2.40,18.58 2.36,18.42 2.46,17.99 2.56,17.56 2.70,17.40 2.84,17.24 3.02,17.14 3.21,17.03 3.42,16.99 3.63,16.95 3.84,16.98 4.05,17.01 4.24,17.10 4.43,17.20 4.58,17.35 4.73,17.50 4.82,17.69 4.92,17.88 4.95,18.09 4.98,18.30 4.94,18.51 4.90,18.71 4.79,18.90 4.69,19.08 4.53,19.23 4.37,19.37 4.18,19.45 3.98,19.54 3.77,19.56 3.56,19.57 3.36,19.52 3.15,19.47 2.97,19.36 2.79,19.24 2.66,19.08 2.52,18.91 2.45,18.71 2.38,18.51 2.37,18.30 2.36,18.09 2.43,17.89 2.49,17.68 2.61,17.51 2.73,17.34 2.91,17.21 3.08,17.09 3.28,17.03 3.49,16.96 3.70,16.97 3.91,16.97 4.11,17.05 4.31,17.12 4.47,17.25 4.64,17.39 4.76,17.56 4.87,17.74 4.92,17.95 4.97,18.16 4.96,18.37 4.94,18.58 4.95,18.34 4.97,18.11 4.97,18.27 4.97,18.42 4.93,18.58 4.89,18.73 4.82,18.87 4.75,19.01 4.64,19.13 4.54,19.25 4.41,19.34 4.27,19.43 4.13,19.48 3.98,19.54 3.82,19.56 3.66,19.58 3.51,19.56 3.35,19.54 3.20,19.48 3.05,19.43 2.92,19.34 2.79,19.25 2.69,19.13 2.58,19.01 2.51,18.87 2.44,18.73 2.40,18.58 2.36,18.42 1.36,17.76 0.35,17.11 0.23,15.70 0.11,14.30 0.03,12.30 -0.04,10.29 -0.29,7.90 -0.54,5.52 -0.84,4.38 -1.13,3.25 -1.21,1.90 -1.29,0.56 -1.34,0.39 -1.39,0.23 -1.40,0.06 -1.41,-0.10 -1.37,-0.27 -1.34,-0.44 -1.27,-0.59 -1.19,-0.74 -1.09,-0.88 -0.98,-1.01 -0.84,-1.11 -0.71,-1.22 -0.55,-1.28 -0.40,-1.35 -0.23,-1.38 -0.06,-1.41 0.10,-1.39 0.27,-1.38 0.43,-1.33 0.59,-1.28 0.74,-1.19 0.88,-1.09 1.00,-0.97 1.12,-0.85 1.21,-0.70 1.29,-0.56 1.29,-0.56 L 1.29,-0.56 Z"/></g><g transform="translate(248.08837127685547 31.64830780029297) rotate(0 5.699737548828125 3.974689483642578)" stroke="none"><path fill="#000000" d="M -0.72,-1.13 Q -0.72,-1.13 0.19,-2.48 1.11,-3.82 2.03,-4.42 2.95,-5.02 4.12,-5.63 5.30,-6.23 6.00,-6.40 6.71,-6.58 6.86,-6.73 7.00,-6.89 7.18,-7.01 7.36,-7.13 7.56,-7.20 7.77,-7.27 7.98,-7.29 8.19,-7.31 8.41,-7.28 8.62,-7.25 8.82,-7.17 9.02,-7.09 9.19,-6.97 9.36,-6.84 9.50,-6.68 9.64,-6.52 9.74,-6.32 9.83,-6.13 9.88,-5.92 9.93,-5.71 9.92,-5.50 9.92,-5.28 9.86,-5.08 9.81,-4.87 9.70,-4.68 9.60,-4.49 8.53,-4.30 7.47,-4.11 6.65,-4.85 5.83,-5.59 5.19,-6.57 4.54,-7.54 4.29,-7.99 4.04,-8.43 3.92,-8.60 3.80,-8.77 3.72,-8.96 3.65,-9.16 3.62,-9.36 3.60,-9.57 3.62,-9.77 3.64,-9.98 3.72,-10.17 3.79,-10.37 3.90,-10.54 4.02,-10.71 4.18,-10.85 4.33,-10.99 4.51,-11.08 4.69,-11.18 4.90,-11.23 5.10,-11.28 5.30,-11.28 5.51,-11.29 5.71,-11.24 5.91,-11.19 6.10,-11.09 6.28,-11.00 6.44,-10.86 6.59,-10.73 6.82,-9.59 7.05,-8.46 7.10,-8.35 7.15,-8.24 7.00,-8.02 6.85,-7.80 6.65,-7.62 6.46,-7.44 6.22,-7.31 5.99,-7.18 5.73,-7.12 5.47,-7.05 5.20,-7.05 4.94,-7.04 4.67,-7.10 4.41,-7.17 4.18,-7.29 3.94,-7.41 3.74,-7.58 3.53,-7.76 3.38,-7.98 3.23,-8.19 3.13,-8.44 3.03,-8.69 2.99,-8.96 2.96,-9.22 2.99,-9.49 3.02,-9.75 3.11,-10.00 3.20,-10.25 5.20,-9.42 7.19,-8.58 7.03,-8.35 6.87,-8.11 6.67,-7.92 6.46,-7.73 6.21,-7.60 5.96,-7.47 5.68,-7.39 5.41,-7.32 5.13,-7.32 4.85,-7.32 4.57,-7.38 4.30,-7.45 4.04,-7.57 3.79,-7.70 3.58,-7.89 3.36,-8.07 3.20,-8.30 3.04,-8.53 2.93,-8.80 2.83,-9.06 2.79,-9.34 2.76,-9.62 2.79,-9.90 2.82,-10.18 2.91,-10.45 3.01,-10.71 5.25,-9.79 7.49,-8.87 7.31,-7.52 7.13,-6.16 6.83,-4.42 6.53,-2.67 6.29,-1.19 6.06,0.27 5.78,1.49 5.50,2.70 5.21,4.02 4.91,5.33 4.73,6.20 4.55,7.07 4.48,7.39 4.40,7.72 4.25,8.02 4.10,8.32 3.88,8.58 3.66,8.83 3.39,9.03 3.11,9.22 2.80,9.34 2.49,9.47 2.15,9.51 1.82,9.56 1.49,9.52 1.15,9.49 0.84,9.37 0.52,9.26 0.24,9.07 -0.03,8.88 -0.26,8.63 -0.48,8.39 -0.64,8.09 -0.80,7.79 -0.89,7.47 -0.97,7.14 -0.98,6.81 -0.98,6.47 -0.77,5.91 -0.56,5.35 -0.36,5.08 -0.16,4.80 0.09,4.58 0.35,4.36 0.66,4.21 0.96,4.06 1.30,3.98 1.63,3.91 1.97,3.91 2.31,3.92 2.64,4.01 2.97,4.10 3.27,4.26 3.56,4.43 3.81,4.66 4.06,4.89 4.25,5.18 4.44,5.46 4.55,5.78 4.67,6.10 4.70,6.44 4.73,6.78 4.69,7.12 4.64,7.46 4.51,7.77 4.38,8.09 4.59,8.32 4.80,8.56 4.76,8.94 4.71,9.33 4.57,9.70 4.43,10.06 4.21,10.38 3.99,10.70 3.70,10.96 3.41,11.22 3.06,11.40 2.72,11.58 2.34,11.68 1.96,11.77 1.57,11.77 1.18,11.77 0.80,11.68 0.42,11.59 0.08,11.41 -0.26,11.22 -0.55,10.97 -0.84,10.71 -1.07,10.39 -1.29,10.07 -1.43,9.70 -1.57,9.34 -1.61,8.95 -1.66,8.56 -1.20,7.60 -0.73,6.65 -0.51,8.52 -0.29,10.38 -0.97,9.22 -1.64,8.06 -1.55,7.68 -1.47,7.30 -1.29,6.95 -1.11,6.60 -0.86,6.31 -0.60,6.01 -0.29,5.78 0.02,5.56 0.38,5.42 0.75,5.27 1.13,5.22 1.52,5.17 1.91,5.21 2.29,5.25 2.66,5.39 3.03,5.52 3.35,5.74 3.67,5.95 3.94,6.24 4.20,6.53 4.39,6.87 4.57,7.21 4.67,7.59 4.77,7.97 4.77,8.36 4.78,8.75 1.58,8.52 -1.62,8.28 -1.53,7.90 -1.44,7.52 -1.26,7.18 -1.09,6.83 -0.83,6.54 -0.58,6.24 -0.26,6.02 0.04,5.79 0.41,5.65 0.77,5.51 1.15,5.45 1.54,5.40 1.92,5.44 2.31,5.48 2.68,5.62 3.04,5.75 3.37,5.97 3.69,6.18 3.95,6.47 4.21,6.76 4.40,7.10 4.58,7.44 4.68,7.82 4.78,8.20 4.78,8.58 4.79,8.97 1.58,8.56 -1.62,8.15 -1.53,7.77 -1.44,7.39 -1.26,7.04 -1.09,6.69 -0.83,6.40 -0.58,6.10 -0.26,5.88 0.05,5.65 0.41,5.51 0.77,5.36 1.16,5.31 1.55,5.26 1.93,5.30 2.32,5.34 2.69,5.48 3.05,5.61 3.38,5.83 3.70,6.04 3.96,6.33 4.23,6.62 4.41,6.96 4.60,7.31 4.70,7.68 4.79,8.06 4.80,8.45 4.80,8.84 2.98,7.47 1.15,6.10 2.37,5.24 3.60,4.37 5.20,4.22 6.80,4.07 8.06,4.64 9.32,5.22 10.73,6.61 12.15,8.01 12.72,8.94 13.28,9.87 13.92,11.39 14.55,12.90 14.47,14.16 14.39,15.41 13.36,17.33 12.32,19.25 10.23,20.36 8.14,21.47 7.02,21.53 5.89,21.59 4.65,21.36 3.41,21.13 1.56,20.21 -0.28,19.30 -0.97,18.40 -1.66,17.50 -1.80,15.80 -1.94,14.10 -1.37,12.47 -0.80,10.85 -0.05,9.50 0.68,8.16 0.50,5.93 0.31,3.71 0.25,3.50 0.20,3.30 0.20,3.09 0.21,2.87 0.29,2.67 0.37,2.48 0.50,2.31 0.64,2.15 0.82,2.04 1.00,1.93 1.20,1.88 1.41,1.83 1.62,1.85 1.83,1.87 2.03,1.96 2.22,2.04 2.38,2.19 2.53,2.33 2.64,2.52 2.74,2.70 2.78,2.91 2.81,3.12 2.78,3.33 2.75,3.54 2.65,3.73 2.55,3.92 2.40,4.07 2.25,4.22 2.06,4.31 1.87,4.40 1.66,4.43 1.44,4.45 1.24,4.41 1.03,4.37 0.85,4.26 0.66,4.15 0.52,3.99 0.38,3.83 0.30,3.63 0.22,3.44 0.21,3.23 0.19,3.01 0.25,2.81 0.30,2.60 0.42,2.43 0.53,2.25 0.70,2.12 0.87,1.99 1.07,1.92 1.27,1.85 1.48,1.84 1.70,1.84 1.90,1.91 2.10,1.97 2.27,2.10 2.44,2.22 2.56,2.40 2.68,2.57 2.68,2.57 2.68,2.57 4.10,5.10 5.52,7.63 4.58,9.87 3.64,12.12 3.99,13.28 4.35,14.44 5.43,14.56 6.52,14.68 7.06,13.74 7.61,12.79 6.93,11.35 6.26,9.91 5.27,10.34 4.29,10.76 3.24,11.15 2.20,11.54 0.78,11.04 -0.64,10.53 -1.13,9.34 -1.62,8.15 -1.53,7.77 -1.44,7.39 -1.26,7.04 -1.09,6.69 -0.83,6.40 -0.58,6.10 -0.26,5.88 0.05,5.65 0.41,5.51 0.77,5.36 1.16,5.31 1.55,5.26 1.93,5.30 2.32,5.34 2.69,5.48 3.05,5.61 3.38,5.83 3.70,6.04 3.96,6.33 4.23,6.62 4.41,6.96 4.60,7.31 4.70,7.68 4.79,8.06 4.80,8.45 4.80,8.84 1.59,8.56 -1.62,8.28 -1.53,7.90 -1.44,7.52 -1.26,7.18 -1.09,6.83 -0.83,6.54 -0.58,6.24 -0.26,6.02 0.04,5.79 0.41,5.65 0.77,5.51 1.15,5.45 1.54,5.40 1.92,5.44 2.31,5.48 2.68,5.62 3.04,5.75 3.36,5.97 3.69,6.18 3.95,6.47 4.21,6.76 4.40,7.10 4.58,7.44 4.68,7.82 4.78,8.20 4.78,8.58 4.79,8.97 1.57,8.51 -1.64,8.06 -1.55,7.68 -1.47,7.30 -1.29,6.95 -1.11,6.60 -0.86,6.31 -0.60,6.01 -0.29,5.79 0.02,5.56 0.38,5.42 0.75,5.27 1.13,5.22 1.52,5.17 1.91,5.21 2.29,5.25 2.66,5.39 3.03,5.52 3.35,5.74 3.67,5.95 3.94,6.24 4.20,6.53 4.39,6.87 4.57,7.21 4.67,7.59 4.77,7.97 4.77,8.36 4.78,8.75 4.13,7.60 3.48,6.44 4.14,7.50 4.80,8.56 4.76,8.94 4.71,9.33 4.57,9.70 4.43,10.06 4.21,10.38 3.99,10.70 3.70,10.96 3.41,11.22 3.06,11.40 2.72,11.58 2.34,11.68 1.96,11.77 1.57,11.77 1.18,11.77 0.80,11.68 0.42,11.59 0.08,11.41 -0.26,11.22 -0.55,10.97 -0.84,10.71 -1.07,10.39 -1.29,10.07 -1.43,9.70 -1.57,9.34 -1.61,8.95 -1.66,8.56 -1.64,8.44 -1.62,8.31 -1.09,6.83 -0.56,5.35 -0.36,5.08 -0.16,4.80 0.09,4.58 0.35,4.36 0.66,4.21 0.96,4.06 1.29,3.98 1.63,3.91 1.97,3.91 2.31,3.92 2.64,4.01 2.97,4.10 3.26,4.26 3.56,4.43 3.81,4.66 4.06,4.89 4.25,5.18 4.44,5.46 4.55,5.78 4.67,6.10 4.70,6.44 4.73,6.78 4.69,7.12 4.64,7.46 4.51,7.77 4.38,8.09 4.47,7.58 4.55,7.07 4.48,7.39 4.40,7.72 4.25,8.02 4.10,8.32 3.88,8.58 3.66,8.83 3.39,9.03 3.11,9.22 2.80,9.34 2.49,9.47 2.15,9.51 1.82,9.56 1.49,9.52 1.15,9.49 0.84,9.37 0.52,9.26 0.24,9.07 -0.03,8.88 -0.26,8.63 -0.48,8.39 -0.64,8.09 -0.80,7.79 -0.89,7.47 -0.97,7.14 -0.98,6.81 -0.98,6.47 -1.00,6.55 -1.02,6.62 -0.92,5.30 -0.81,3.98 -0.47,2.64 -0.13,1.29 0.16,0.13 0.46,-1.02 0.85,-2.31 1.25,-3.61 1.57,-5.21 1.88,-6.80 2.23,-8.27 2.59,-9.73 4.89,-9.16 7.19,-8.58 7.03,-8.35 6.87,-8.11 6.67,-7.92 6.46,-7.73 6.21,-7.60 5.96,-7.47 5.69,-7.39 5.41,-7.32 5.13,-7.32 4.85,-7.32 4.57,-7.38 4.30,-7.45 4.04,-7.57 3.79,-7.70 3.58,-7.89 3.36,-8.07 3.20,-8.30 3.04,-8.53 2.93,-8.80 2.83,-9.06 2.79,-9.34 2.76,-9.62 2.79,-9.90 2.82,-10.18 2.91,-10.45 3.01,-10.71 5.08,-9.48 7.15,-8.24 7.00,-8.02 6.85,-7.80 6.65,-7.62 6.46,-7.44 6.22,-7.31 5.99,-7.18 5.73,-7.12 5.47,-7.05 5.20,-7.05 4.94,-7.04 4.68,-7.10 4.41,-7.17 4.18,-7.29 3.94,-7.41 3.74,-7.58 3.53,-7.76 3.38,-7.98 3.23,-8.19 3.13,-8.44 3.03,-8.69 2.99,-8.96 2.96,-9.22 2.99,-9.49 3.02,-9.75 3.11,-10.00 3.20,-10.25 3.62,-9.34 4.04,-8.43 3.92,-8.60 3.80,-8.77 3.72,-8.96 3.65,-9.16 3.62,-9.36 3.60,-9.57 3.62,-9.77 3.64,-9.98 3.72,-10.17 3.79,-10.37 3.90,-10.54 4.02,-10.71 4.17,-10.85 4.33,-10.99 4.51,-11.08 4.69,-11.18 4.90,-11.23 5.10,-11.28 5.30,-11.28 5.51,-11.29 5.71,-11.24 5.91,-11.19 6.10,-11.09 6.28,-11.00 6.44,-10.86 6.59,-10.73 6.75,-9.86 6.91,-8.99 6.81,-7.78 6.71,-6.58 6.86,-6.73 7.00,-6.89 7.18,-7.01 7.36,-7.13 7.56,-7.20 7.77,-7.27 7.98,-7.29 8.19,-7.31 8.41,-7.28 8.62,-7.25 8.82,-7.17 9.02,-7.09 9.19,-6.97 9.36,-6.84 9.50,-6.68 9.64,-6.52 9.74,-6.32 9.83,-6.13 9.88,-5.92 9.93,-5.71 9.92,-5.50 9.92,-5.28 9.86,-5.08 9.81,-4.87 9.70,-4.68 9.60,-4.49 9.07,-3.49 8.55,-2.49 7.17,-1.51 5.80,-0.53 4.87,0.03 3.94,0.60 2.33,0.87 0.72,1.13 0.57,1.20 0.42,1.27 0.27,1.30 0.11,1.34 -0.04,1.33 -0.21,1.32 -0.36,1.28 -0.52,1.23 -0.66,1.15 -0.80,1.07 -0.92,0.96 -1.03,0.85 -1.12,0.71 -1.21,0.57 -1.26,0.42 -1.31,0.27 -1.33,0.11 -1.34,-0.05 -1.31,-0.21 -1.29,-0.37 -1.22,-0.51 -1.16,-0.66 -1.06,-0.79 -0.97,-0.92 -0.84,-1.03 -0.72,-1.13 -0.72,-1.13 L -0.72,-1.13 Z"/></g><g transform="translate(272.5872116088867 10) rotate(0 0.4999542236328125 2.7997779846191406)" stroke="none"><path fill="#000000" d="M 1.29,-0.44 Q 1.29,-0.44 2.17,0.08 3.04,0.62 2.34,1.12 1.65,1.61 1.66,1.77 1.67,1.93 1.65,2.09 1.62,2.24 1.56,2.39 1.50,2.53 1.40,2.66 1.31,2.79 1.18,2.89 1.06,2.99 0.92,3.06 0.78,3.12 0.62,3.16 0.47,3.19 0.31,3.18 0.15,3.17 0.00,3.13 -0.15,3.09 -0.28,3.01 -0.42,2.93 -0.53,2.82 -0.65,2.71 -0.73,2.58 -0.82,2.44 -0.87,2.29 -0.92,2.14 -0.93,1.92 -0.93,1.70 -0.87,1.50 -0.81,1.30 -0.68,1.12 -0.56,0.95 -0.39,0.83 -0.22,0.70 -0.01,0.64 0.18,0.58 0.39,0.58 0.60,0.59 0.80,0.66 1.00,0.73 1.17,0.87 1.34,1.00 1.45,1.18 1.56,1.36 1.62,1.56 1.67,1.77 1.65,1.98 1.63,2.19 1.55,2.39 1.47,2.58 1.32,2.74 1.18,2.90 1.00,3.01 0.81,3.11 0.60,3.15 0.40,3.19 0.18,3.16 -0.02,3.13 -0.21,3.04 -0.40,2.95 -0.55,2.80 -0.70,2.65 -0.79,2.45 -0.89,2.26 -0.92,2.05 -0.94,1.84 -0.90,1.63 -0.86,1.43 -0.76,1.24 -0.66,1.06 -0.50,0.91 -0.34,0.77 -0.14,0.69 0.04,0.60 0.25,0.59 0.46,0.57 0.67,0.62 0.88,0.67 1.06,0.79 1.23,0.90 1.37,1.07 1.50,1.23 1.57,1.43 1.65,1.63 1.65,1.62 1.65,1.61 1.66,1.77 1.67,1.93 1.65,2.09 1.62,2.24 1.56,2.39 1.50,2.53 1.40,2.66 1.31,2.79 1.18,2.89 1.06,2.99 0.92,3.06 0.78,3.12 0.62,3.16 0.47,3.19 0.31,3.18 0.15,3.17 0.00,3.13 -0.15,3.09 -0.28,3.01 -0.42,2.93 -0.53,2.82 -0.65,2.71 -0.73,2.58 -0.82,2.44 -0.87,2.29 -0.92,2.14 -1.46,2.25 -2.01,2.36 -1.65,1.40 -1.29,0.44 -1.33,0.28 -1.36,0.12 -1.36,-0.03 -1.35,-0.20 -1.31,-0.36 -1.26,-0.52 -1.18,-0.66 -1.10,-0.81 -0.99,-0.93 -0.88,-1.05 -0.74,-1.14 -0.60,-1.23 -0.44,-1.28 -0.28,-1.34 -0.12,-1.35 0.04,-1.37 0.20,-1.34 0.36,-1.32 0.52,-1.26 0.67,-1.19 0.80,-1.09 0.94,-1.00 1.04,-0.87 1.15,-0.74 1.22,-0.59 1.29,-0.44 1.29,-0.44 L 1.29,-0.44 Z"/></g><g transform="translate(268.23738861083984 29.998435974121094) rotate(0 4.69976806640625 9.774246215820312)" stroke="none"><path fill="#000000" d="M 0,-1.53 Q 0,-1.53 0.91,-1.97 1.83,-2.41 3.75,-1.96 5.66,-1.51 6.32,-0.41 6.97,0.67 7.10,3.04 7.22,5.41 7.11,7.07 7.01,8.73 6.96,10.12 6.90,11.51 6.79,12.75 6.67,14.00 6.64,15.48 6.62,16.95 5.29,16.71 3.97,16.47 6.03,15.19 8.08,13.92 8.22,13.76 8.36,13.60 8.55,13.49 8.73,13.39 8.94,13.35 9.15,13.30 9.36,13.33 9.57,13.36 9.76,13.45 9.95,13.55 10.10,13.70 10.25,13.84 10.35,14.03 10.44,14.22 10.47,14.43 10.50,14.64 10.47,14.85 10.43,15.06 10.32,15.25 10.22,15.43 10.06,15.58 9.90,15.72 9.71,15.80 9.52,15.89 9.30,15.91 9.09,15.93 8.89,15.88 8.68,15.83 8.50,15.71 8.32,15.60 8.19,15.43 8.05,15.27 7.98,15.07 7.90,14.87 7.90,14.66 7.89,14.45 7.95,14.24 8.01,14.04 8.13,13.87 8.26,13.69 8.43,13.57 8.60,13.44 8.80,13.38 9.01,13.32 9.22,13.32 9.43,13.33 9.63,13.40 9.83,13.47 10.00,13.60 10.16,13.73 10.28,13.91 10.39,14.09 10.45,14.30 10.50,14.50 10.48,14.71 10.47,14.93 10.38,15.12 10.30,15.32 10.30,15.32 10.30,15.32 9.81,16.99 9.32,18.65 8.65,19.52 7.98,20.38 7.10,21.09 6.22,21.80 5.11,22.00 4.01,22.19 2.49,21.10 0.97,20.02 0.76,18.37 0.56,16.73 0.73,14.97 0.91,13.22 1.12,12.05 1.33,10.89 1.58,9.57 1.83,8.25 2.02,6.66 2.22,5.07 2.03,3.74 1.83,2.41 0.91,1.97 0,1.53 -0.18,1.51 -0.36,1.48 -0.53,1.42 -0.71,1.35 -0.86,1.25 -1.01,1.14 -1.13,1.00 -1.26,0.87 -1.34,0.70 -1.43,0.54 -1.47,0.36 -1.52,0.18 -1.52,-0.00 -1.52,-0.18 -1.47,-0.36 -1.43,-0.54 -1.34,-0.70 -1.26,-0.87 -1.13,-1.00 -1.01,-1.14 -0.86,-1.25 -0.71,-1.35 -0.53,-1.42 -0.36,-1.48 -0.18,-1.51 0.00,-1.53 0.00,-1.53 L 0,-1.53 Z"/></g><g transform="translate(279.53682708740234 31.04834747314453) rotate(0 7.124664306640625 -3.87469482421875)" stroke="none"><path fill="#000000" d="M -1.34,0.09 Q -1.34,0.09 -1.80,-0.93 -2.26,-1.96 -1.63,-3.08 -0.99,-4.20 0.51,-4.97 2.02,-5.75 3.00,-6.26 3.97,-6.78 5.17,-7.26 6.36,-7.75 8.29,-8.17 10.22,-8.59 11.58,-8.82 12.94,-9.05 13.78,-8.98 14.63,-8.90 14.79,-8.88 14.95,-8.87 15.10,-8.82 15.25,-8.77 15.38,-8.68 15.51,-8.60 15.62,-8.49 15.73,-8.37 15.81,-8.23 15.89,-8.10 15.94,-7.95 15.98,-7.79 15.99,-7.64 15.99,-7.48 15.96,-7.32 15.93,-7.17 15.86,-7.02 15.79,-6.88 15.69,-6.76 15.59,-6.64 15.47,-6.54 15.34,-6.45 15.19,-6.38 15.05,-6.32 14.89,-6.30 14.74,-6.27 14.06,-6.81 13.39,-7.35 13.39,-7.56 13.38,-7.77 13.45,-7.97 13.51,-8.18 13.64,-8.35 13.76,-8.52 13.94,-8.64 14.11,-8.76 14.31,-8.82 14.52,-8.89 14.73,-8.88 14.94,-8.87 15.14,-8.80 15.34,-8.72 15.50,-8.59 15.67,-8.45 15.78,-8.27 15.89,-8.09 15.94,-7.89 15.99,-7.68 15.97,-7.47 15.96,-7.26 15.87,-7.06 15.78,-6.87 15.64,-6.71 15.50,-6.55 15.31,-6.45 15.13,-6.35 14.92,-6.31 14.71,-6.27 14.50,-6.30 14.29,-6.33 14.10,-6.43 13.91,-6.52 13.76,-6.67 13.61,-6.83 13.52,-7.02 13.43,-7.21 13.40,-7.42 13.37,-7.63 13.41,-7.84 13.45,-8.05 13.56,-8.23 13.67,-8.41 13.83,-8.55 13.99,-8.70 14.18,-8.78 14.38,-8.86 14.59,-8.88 14.80,-8.89 15.01,-8.84 15.21,-8.79 15.39,-8.67 15.57,-8.55 15.70,-8.39 15.83,-8.22 15.23,-8.56 14.63,-8.90 14.79,-8.88 14.95,-8.87 15.10,-8.82 15.25,-8.77 15.38,-8.69 15.51,-8.60 15.62,-8.49 15.73,-8.37 15.81,-8.24 15.89,-8.10 15.94,-7.95 15.98,-7.79 15.99,-7.64 15.99,-7.48 15.96,-7.32 15.93,-7.17 15.86,-7.02 15.79,-6.88 15.69,-6.76 15.59,-6.64 15.47,-6.54 15.34,-6.45 15.19,-6.38 15.05,-6.32 14.89,-6.30 14.74,-6.27 13.65,-4.38 12.56,-2.48 11.28,-2.19 10.00,-1.90 8.33,-1.43 6.66,-0.95 5.50,-0.49 4.34,-0.02 3.21,-0.23 2.09,-0.44 1.71,-0.27 1.34,-0.09 1.33,0.06 1.32,0.22 1.27,0.38 1.23,0.53 1.14,0.67 1.06,0.81 0.95,0.93 0.84,1.04 0.70,1.13 0.56,1.22 0.41,1.27 0.25,1.32 0.09,1.33 -0.06,1.34 -0.22,1.31 -0.38,1.28 -0.53,1.22 -0.68,1.15 -0.81,1.05 -0.94,0.96 -1.04,0.83 -1.14,0.70 -1.21,0.56 -1.27,0.41 -1.31,0.25 -1.34,0.09 -1.34,0.09 L -1.34,0.09 Z"/></g><g transform="translate(292.5862350463867 21.39910888671875) rotate(0 1.3748931884765625 18.723533630371094)" stroke="none"><path fill="#000000" d="M -1.38,0.08 Q -1.38,0.08 -1.98,-0.33 -2.58,-0.76 -2.70,-0.88 -2.82,-1.01 -2.83,-1.33 -2.84,-1.66 -2.76,-1.98 -2.69,-2.30 -2.55,-2.60 -2.40,-2.89 -2.19,-3.14 -1.98,-3.39 -1.72,-3.59 -1.45,-3.78 -1.15,-3.90 -0.84,-4.03 -0.52,-4.07 -0.20,-4.12 0.12,-4.09 0.45,-4.06 0.76,-3.95 1.07,-3.84 1.34,-3.66 1.61,-3.48 1.84,-3.24 2.06,-3.00 2.22,-2.72 2.38,-2.43 2.47,-2.11 2.55,-1.80 2.77,0.26 3.00,2.32 3.14,3.74 3.27,5.15 3.41,7.16 3.55,9.17 3.76,11.06 3.96,12.95 4.14,15.81 4.31,18.67 4.46,21.00 4.60,23.33 4.78,25.55 4.95,27.77 5.10,29.20 5.25,30.63 5.38,31.80 5.51,32.97 5.73,34.25 5.95,35.53 5.02,37.01 4.09,38.50 4.10,38.66 4.11,38.81 4.09,38.97 4.06,39.13 4.00,39.27 3.93,39.42 3.84,39.54 3.74,39.67 3.62,39.77 3.49,39.87 3.35,39.93 3.21,40.00 3.05,40.03 2.89,40.06 2.74,40.05 2.58,40.04 2.43,40.00 2.28,39.95 2.14,39.87 2.00,39.79 1.89,39.68 1.78,39.57 1.69,39.44 1.61,39.30 1.56,39.15 1.51,39.00 1.52,39.05 1.53,39.10 1.51,38.88 1.49,38.67 1.54,38.47 1.58,38.26 1.69,38.08 1.80,37.90 1.96,37.76 2.13,37.62 2.33,37.54 2.52,37.47 2.74,37.46 2.95,37.44 3.15,37.50 3.36,37.56 3.53,37.68 3.71,37.80 3.83,37.97 3.96,38.14 4.03,38.34 4.10,38.54 4.10,38.75 4.10,38.97 4.03,39.17 3.96,39.37 3.83,39.54 3.70,39.71 3.52,39.83 3.35,39.94 3.14,40.00 2.94,40.06 2.72,40.04 2.51,40.03 2.32,39.95 2.12,39.87 1.96,39.73 1.80,39.60 1.69,39.41 1.58,39.23 1.53,39.02 1.49,38.82 1.51,38.60 1.54,38.39 1.63,38.20 1.72,38.01 1.86,37.85 2.01,37.70 2.20,37.60 2.39,37.50 2.60,37.47 2.81,37.44 3.02,37.47 3.22,37.51 3.41,37.61 3.60,37.71 3.74,37.86 3.89,38.02 3.99,38.26 4.09,38.50 4.10,38.66 4.11,38.81 4.09,38.97 4.06,39.13 4.00,39.27 3.93,39.42 3.84,39.54 3.74,39.67 3.62,39.77 3.49,39.87 3.35,39.93 3.21,40.00 3.05,40.03 2.90,40.06 2.74,40.05 2.58,40.04 2.43,40.00 2.28,39.95 2.14,39.87 2.00,39.79 1.89,39.68 1.78,39.57 1.69,39.44 1.61,39.30 1.56,39.15 1.51,39.00 0.10,37.98 -1.31,36.95 -1.55,35.35 -1.79,33.75 -1.92,32.52 -2.04,31.28 -2.16,29.76 -2.27,28.23 -2.38,25.93 -2.49,23.63 -2.54,21.27 -2.59,18.91 -2.62,16.14 -2.64,13.38 -2.68,11.37 -2.73,9.36 -2.71,7.41 -2.69,5.46 -2.70,4.04 -2.71,2.63 -2.76,0.80 -2.82,-1.01 -2.83,-1.33 -2.84,-1.66 -2.76,-1.98 -2.69,-2.30 -2.55,-2.60 -2.40,-2.89 -2.19,-3.14 -1.98,-3.39 -1.72,-3.58 -1.45,-3.78 -1.15,-3.90 -0.84,-4.03 -0.52,-4.07 -0.20,-4.12 0.12,-4.09 0.45,-4.06 0.76,-3.95 1.06,-3.84 1.34,-3.66 1.61,-3.48 1.84,-3.24 2.06,-3.00 2.22,-2.72 2.38,-2.43 2.47,-2.11 2.55,-1.80 2.51,-1.44 2.46,-1.07 1.92,-0.58 1.38,-0.08 1.37,0.08 1.36,0.24 1.31,0.40 1.26,0.56 1.18,0.71 1.09,0.85 0.97,0.97 0.85,1.09 0.71,1.17 0.57,1.26 0.41,1.31 0.25,1.36 0.08,1.37 -0.08,1.38 -0.24,1.35 -0.41,1.32 -0.56,1.25 -0.71,1.18 -0.84,1.08 -0.97,0.98 -1.08,0.85 -1.18,0.72 -1.25,0.56 -1.32,0.41 -1.35,0.25 -1.38,0.08 -1.38,0.08 L -1.38,0.08 Z"/></g><g transform="translate(10 50.646827697753906) rotate(0 11.449440002441406 -1.0499114990234375)" stroke="none"><path fill="#000000" d="M 0.50,-1.40 Q 0.50,-1.40 2.25,-1.49 4.00,-1.57 5.86,-1.49 7.73,-1.41 9.04,-1.68 10.36,-1.95 9.88,-0.43 9.41,1.09 8.64,-2.35 7.87,-5.79 8.21,-4.15 8.54,-2.51 8.82,-1.34 9.10,-0.16 10.03,1.24 10.95,2.66 12.05,3.99 13.15,5.33 14.31,4.94 15.47,4.55 16.39,3.67 17.32,2.79 19.53,1.92 21.74,1.05 21.89,0.90 22.04,0.75 22.23,0.65 22.42,0.56 22.63,0.52 22.84,0.49 23.05,0.53 23.26,0.57 23.44,0.67 23.63,0.78 23.77,0.93 23.91,1.09 24.00,1.28 24.09,1.48 24.11,1.69 24.13,1.90 24.08,2.11 24.03,2.31 23.91,2.49 23.80,2.67 23.64,2.81 23.47,2.94 23.27,3.02 23.08,3.09 22.86,3.10 22.65,3.11 22.45,3.05 22.24,2.99 22.07,2.87 21.90,2.74 21.77,2.57 21.64,2.40 21.58,2.20 21.52,2.00 21.52,1.78 21.52,1.57 21.59,1.37 21.67,1.17 21.80,1.01 21.93,0.84 22.11,0.72 22.28,0.61 22.49,0.55 22.70,0.50 22.91,0.51 23.12,0.53 23.32,0.61 23.51,0.69 23.67,0.83 23.83,0.97 23.94,1.16 24.04,1.34 24.09,1.55 24.13,1.76 24.10,1.97 24.07,2.18 23.98,2.37 23.89,2.56 23.89,2.56 23.89,2.56 23.18,5.08 22.47,7.59 21.74,8.50 21.00,9.41 19.91,10.33 18.81,11.25 16.92,11.94 15.04,12.64 13.91,12.57 12.78,12.50 11.61,12.01 10.43,11.53 9.12,10.46 7.80,9.39 6.85,7.79 5.91,6.18 4.70,3.93 3.50,1.67 3.10,-0.68 2.71,-3.04 2.85,-4.30 3.00,-5.56 3.33,-6.57 3.66,-7.58 4.39,-8.87 5.12,-10.16 6.57,-11.04 8.02,-11.92 9.69,-11.50 11.35,-11.08 12.53,-9.08 13.71,-7.08 14.50,-3.34 15.29,0.39 13.53,2.31 11.78,4.24 10.67,4.45 9.55,4.67 8.48,4.70 7.41,4.73 6.00,4.58 4.58,4.44 3.33,4.10 2.09,3.76 0.79,2.58 -0.50,1.40 -0.66,1.32 -0.82,1.24 -0.96,1.13 -1.10,1.01 -1.20,0.86 -1.31,0.71 -1.37,0.55 -1.44,0.38 -1.47,0.20 -1.49,0.02 -1.47,-0.15 -1.45,-0.33 -1.39,-0.50 -1.33,-0.67 -1.23,-0.82 -1.13,-0.97 -1.00,-1.09 -0.87,-1.21 -0.71,-1.30 -0.55,-1.38 -0.38,-1.43 -0.20,-1.48 -0.02,-1.48 0.15,-1.48 0.32,-1.44 0.50,-1.40 0.50,-1.40 L 0.50,-1.40 Z"/></g><g transform="translate(35.09876251220703 50.946800231933594) rotate(0 3.3498382568359375 1.649871826171875)" stroke="none"><path fill="#000000" d="M 1.16,-0.85 Q 1.16,-0.85 2.17,-0.44 3.18,-0.03 4.51,0.33 5.85,0.70 6.11,0.75 6.36,0.80 6.60,0.91 6.84,1.01 7.04,1.17 7.25,1.33 7.41,1.54 7.57,1.74 7.67,1.98 7.78,2.22 7.83,2.47 7.88,2.73 7.86,2.99 7.84,3.25 7.77,3.50 7.69,3.74 7.55,3.97 7.42,4.19 7.24,4.37 7.05,4.56 6.83,4.69 6.61,4.83 6.36,4.91 6.11,4.98 5.85,5.00 5.59,5.01 3.72,3.70 1.84,2.39 1.67,2.26 1.50,2.14 1.37,1.96 1.25,1.79 1.19,1.59 1.13,1.39 1.13,1.17 1.14,0.96 1.21,0.76 1.29,0.56 1.42,0.40 1.55,0.23 1.73,0.12 1.91,0.00 2.12,-0.04 2.33,-0.09 2.54,-0.07 2.75,-0.05 2.94,0.02 3.14,0.11 3.30,0.25 3.45,0.39 3.56,0.58 3.66,0.76 3.70,0.97 3.74,1.18 3.71,1.39 3.68,1.60 3.59,1.79 3.49,1.98 3.34,2.13 3.19,2.28 3.00,2.38 2.81,2.47 2.60,2.50 2.39,2.53 2.18,2.48 1.97,2.44 1.79,2.34 1.60,2.23 1.46,2.07 1.32,1.92 1.24,1.72 1.15,1.52 1.14,1.31 1.12,1.10 1.17,0.89 1.22,0.69 1.34,0.51 1.45,0.33 1.62,0.20 1.79,0.07 1.99,-0.00 2.19,-0.07 2.40,-0.07 2.61,-0.08 2.81,-0.01 3.02,0.04 3.02,0.04 3.02,0.04 4.43,0.37 5.85,0.70 6.11,0.75 6.36,0.80 6.60,0.90 6.84,1.01 7.04,1.17 7.25,1.33 7.41,1.54 7.57,1.74 7.67,1.98 7.78,2.22 7.83,2.47 7.87,2.73 7.86,2.99 7.84,3.25 7.77,3.50 7.69,3.74 7.56,3.97 7.42,4.19 7.24,4.37 7.05,4.56 6.83,4.69 6.61,4.83 6.36,4.91 6.11,4.98 5.85,5.00 5.59,5.01 4.94,5.18 4.29,5.34 2.67,5.12 1.04,4.90 0.02,3.96 -0.99,3.02 -1.08,1.93 -1.16,0.85 -1.25,0.70 -1.33,0.54 -1.38,0.38 -1.42,0.21 -1.43,0.03 -1.43,-0.13 -1.40,-0.30 -1.36,-0.47 -1.28,-0.63 -1.21,-0.78 -1.09,-0.92 -0.98,-1.05 -0.84,-1.15 -0.70,-1.26 -0.54,-1.32 -0.38,-1.39 -0.21,-1.41 -0.03,-1.44 0.13,-1.42 0.30,-1.41 0.47,-1.35 0.63,-1.29 0.78,-1.20 0.92,-1.10 1.04,-0.98 1.16,-0.85 1.16,-0.85 L 1.16,-0.85 Z"/></g><g transform="translate(46.998191833496094 35.84796905517578) rotate(0 -16.474201202392578 29.87267303466797)" stroke="none"><path fill="#000000" d="M 0.56,1.86 Q 0.56,1.86 -0.24,2.60 -1.05,3.35 -2.19,3.91 -3.34,4.46 -4.42,5.21 -5.50,5.96 -4.94,7.01 -4.38,8.05 -3.42,7.24 -2.45,6.42 -2.20,5.94 -1.94,5.47 -2.21,5.16 -2.48,4.85 -2.67,4.49 -2.85,4.13 -2.95,3.73 -3.05,3.34 -3.04,2.93 -3.04,2.52 -2.94,2.13 -2.84,1.73 -2.65,1.37 -2.46,1.01 -2.19,0.71 -1.92,0.41 -1.58,0.18 -1.25,-0.04 -0.86,-0.18 -0.48,-0.33 -0.08,-0.37 0.32,-0.42 0.72,-0.37 1.12,-0.32 1.51,-0.17 1.89,-0.03 2.22,0.20 2.55,0.43 3.07,2.08 3.58,3.73 3.67,5.25 3.76,6.76 3.90,8.24 4.04,9.73 4.07,10.91 4.10,12.09 4.29,18.62 4.48,25.16 4.47,28.41 4.47,31.66 4.40,33.87 4.33,36.07 4.19,37.58 4.06,39.08 3.65,40.77 3.25,42.47 2.82,43.83 2.39,45.19 1.35,47.34 0.31,49.49 -0.50,50.81 -1.32,52.13 -2.92,53.66 -4.52,55.19 -5.85,56.25 -7.19,57.32 -8.73,58.39 -10.27,59.46 -11.46,60.17 -12.64,60.89 -14.14,61.57 -15.64,62.26 -16.88,62.63 -18.11,63.01 -20.22,62.90 -22.32,62.78 -23.73,62.28 -25.15,61.77 -26.75,61.00 -28.35,60.22 -29.73,59.18 -31.10,58.14 -32.30,56.10 -33.50,54.06 -34.02,52.35 -34.54,50.64 -34.87,47.52 -35.20,44.41 -35.22,44.20 -35.24,43.99 -35.19,43.78 -35.14,43.58 -35.02,43.40 -34.91,43.22 -34.74,43.08 -34.58,42.95 -34.38,42.88 -34.18,42.80 -33.97,42.80 -33.75,42.79 -33.55,42.85 -33.35,42.92 -33.18,43.04 -33.00,43.16 -32.88,43.34 -32.75,43.51 -32.69,43.71 -32.63,43.91 -32.63,44.13 -32.64,44.34 -32.71,44.54 -32.79,44.74 -32.92,44.90 -33.05,45.07 -33.23,45.18 -33.41,45.30 -33.61,45.35 -33.82,45.40 -34.03,45.39 -34.24,45.37 -34.44,45.29 -34.64,45.20 -34.79,45.06 -34.95,44.92 -35.06,44.73 -35.16,44.55 -35.20,44.34 -35.24,44.13 -35.21,43.92 -35.19,43.71 -35.09,43.52 -35.00,43.33 -34.85,43.18 -34.70,43.03 -34.51,42.93 -34.32,42.84 -34.11,42.81 -33.90,42.78 -33.69,42.82 -33.48,42.86 -33.29,42.96 -33.11,43.07 -32.97,43.23 -32.82,43.38 -32.74,43.58 -32.66,43.77 -32.66,43.77 -32.66,43.77 -31.56,46.34 -30.47,48.91 -29.79,50.01 -29.11,51.11 -27.37,52.53 -25.64,53.95 -23.55,54.65 -21.46,55.35 -20.16,55.27 -18.86,55.19 -17.80,54.70 -16.74,54.21 -15.75,53.60 -14.77,52.98 -13.43,52.06 -12.10,51.13 -10.94,50.21 -9.77,49.29 -8.87,48.59 -7.96,47.88 -7.36,46.92 -6.76,45.97 -5.94,44.38 -5.12,42.79 -4.75,41.64 -4.39,40.50 -4.07,39.40 -3.76,38.31 -3.63,37.05 -3.49,35.78 -3.41,33.70 -3.32,31.63 -3.30,28.39 -3.27,25.15 -3.08,18.71 -2.89,12.27 -2.91,11.21 -2.94,10.15 -3.01,9.08 -3.09,8.01 -3.07,6.62 -3.06,5.22 -3.05,3.86 -3.04,2.50 -2.49,3.98 -1.94,5.47 -2.21,5.16 -2.48,4.85 -2.67,4.49 -2.85,4.13 -2.95,3.74 -3.05,3.34 -3.04,2.93 -3.04,2.52 -2.94,2.13 -2.84,1.73 -2.65,1.37 -2.46,1.01 -2.19,0.71 -1.92,0.41 -1.58,0.18 -1.25,-0.04 -0.86,-0.18 -0.48,-0.33 -0.08,-0.37 0.32,-0.42 0.72,-0.37 1.12,-0.32 1.50,-0.17 1.88,-0.03 2.22,0.20 2.55,0.43 2.59,0.46 2.63,0.50 3.40,1.84 4.16,3.18 4.39,4.32 4.61,5.46 4.42,6.81 4.23,8.17 3.72,9.35 3.20,10.54 2.13,11.91 1.05,13.29 -0.85,14.07 -2.76,14.85 -4.87,14.44 -6.98,14.03 -8.62,12.96 -10.27,11.89 -11.19,9.89 -12.11,7.89 -11.70,5.78 -11.29,3.68 -9.97,2.28 -8.65,0.88 -7.40,0.13 -6.16,-0.62 -4.45,-1.41 -2.74,-2.20 -1.65,-2.03 -0.56,-1.86 -0.33,-1.90 -0.10,-1.94 0.13,-1.92 0.36,-1.91 0.58,-1.83 0.81,-1.76 1.01,-1.64 1.21,-1.52 1.37,-1.35 1.54,-1.18 1.66,-0.98 1.78,-0.78 1.84,-0.55 1.91,-0.33 1.92,-0.10 1.94,0.13 1.89,0.36 1.85,0.59 1.75,0.80 1.65,1.01 1.51,1.20 1.36,1.38 1.17,1.52 0.99,1.67 0.77,1.76 0.56,1.86 0.56,1.86 L 0.56,1.86 Z"/></g><g transform="translate(53.49787139892578 54.04656219482422) rotate(0 2.4998779296875 1.7248611450195312)" stroke="none"><path fill="#000000" d="M 1.18,-0.92 Q 1.18,-0.92 2.21,-0.77 3.24,-0.63 4.03,0.13 4.83,0.89 4.65,0.74 4.47,0.59 4.78,0.83 5.09,1.08 5.33,1.39 5.58,1.71 5.74,2.07 5.90,2.43 5.97,2.82 6.04,3.21 6.02,3.61 5.99,4.01 5.87,4.38 5.75,4.76 5.55,5.10 5.34,5.44 5.06,5.72 4.78,6.00 4.44,6.21 4.10,6.41 3.72,6.53 3.34,6.64 2.94,6.67 2.55,6.69 2.16,6.62 1.77,6.54 1.40,6.38 1.04,6.22 1.66,3.21 2.29,0.20 3.29,0.61 4.28,1.03 4.51,1.03 4.74,1.02 4.96,1.07 5.18,1.12 5.38,1.22 5.58,1.32 5.75,1.47 5.92,1.61 6.06,1.80 6.19,1.98 6.27,2.19 6.36,2.40 6.39,2.62 6.42,2.84 6.40,3.07 6.38,3.29 6.30,3.51 6.22,3.72 6.10,3.91 5.98,4.10 5.81,4.25 5.64,4.40 5.45,4.51 5.25,4.62 5.03,4.68 4.81,4.74 3.02,3.53 1.23,2.33 1.07,2.19 0.91,2.05 0.80,1.86 0.70,1.68 0.66,1.47 0.62,1.26 0.65,1.05 0.67,0.84 0.77,0.65 0.86,0.46 1.01,0.31 1.16,0.16 1.35,0.06 1.54,-0.02 1.75,-0.05 1.96,-0.08 2.17,-0.04 2.38,-0.00 2.56,0.09 2.75,0.20 2.89,0.35 3.03,0.51 3.12,0.71 3.20,0.90 3.22,1.11 3.24,1.32 3.19,1.53 3.14,1.74 3.02,1.92 2.91,2.10 2.75,2.23 2.58,2.36 2.38,2.44 2.18,2.51 1.97,2.52 1.76,2.52 1.55,2.46 1.35,2.40 1.18,2.28 1.00,2.15 0.88,1.98 0.76,1.81 0.69,1.61 0.63,1.40 0.63,1.19 0.64,0.98 0.71,0.78 0.78,0.58 0.92,0.41 1.05,0.25 1.23,0.13 1.41,0.02 1.61,-0.02 1.82,-0.08 2.03,-0.06 2.24,-0.04 2.44,0.03 2.63,0.11 2.63,0.11 2.63,0.11 3.46,0.57 4.28,1.03 4.51,1.03 4.74,1.02 4.96,1.07 5.18,1.12 5.38,1.22 5.58,1.32 5.75,1.47 5.92,1.61 6.06,1.80 6.19,1.98 6.27,2.19 6.36,2.40 6.39,2.62 6.42,2.84 6.40,3.07 6.38,3.29 6.30,3.51 6.22,3.72 6.10,3.91 5.98,4.10 5.81,4.25 5.64,4.40 5.45,4.51 5.25,4.62 5.03,4.68 4.81,4.74 4.04,5.67 3.27,6.60 3.87,3.59 4.46,0.59 4.78,0.83 5.09,1.08 5.33,1.39 5.58,1.71 5.74,2.07 5.90,2.43 5.97,2.82 6.04,3.21 6.02,3.61 5.99,4.00 5.87,4.38 5.75,4.76 5.55,5.10 5.34,5.44 5.06,5.72 4.78,6.00 4.44,6.21 4.10,6.41 3.72,6.53 3.34,6.64 2.94,6.67 2.55,6.69 2.16,6.62 1.77,6.55 1.40,6.38 1.04,6.22 0.48,5.59 -0.08,4.95 -0.74,3.97 -1.40,2.99 -1.29,1.95 -1.18,0.92 -1.27,0.76 -1.36,0.61 -1.41,0.43 -1.47,0.26 -1.48,0.08 -1.49,-0.09 -1.46,-0.27 -1.42,-0.44 -1.35,-0.61 -1.27,-0.77 -1.16,-0.91 -1.05,-1.06 -0.91,-1.17 -0.77,-1.28 -0.60,-1.35 -0.44,-1.43 -0.26,-1.46 -0.08,-1.49 0.09,-1.48 0.27,-1.47 0.44,-1.41 0.61,-1.36 0.77,-1.27 0.92,-1.17 1.05,-1.04 1.18,-0.92 1.18,-0.92 L 1.18,-0.92 Z"/></g><g transform="translate(50.29804229736328 154.6886978149414) rotate(0 20.17401123046875 7.8743743896484375)" stroke="none"><path fill="#000000" d="M -0.74,-1.38 Q -0.74,-1.38 -0.02,-2.42 0.69,-3.47 2.46,-3.25 4.22,-3.03 5.32,-1.82 6.41,-0.61 6.85,0.65 7.28,1.93 7.39,4.12 7.50,6.30 7.55,8.03 7.59,9.75 7.47,11.38 7.35,13.01 7.20,14.11 7.05,15.22 6.77,16.64 6.49,18.05 3.70,19.38 0.90,20.71 0.13,18.27 -0.64,15.83 0.09,12.69 0.82,9.55 1.45,7.55 2.09,5.55 2.87,3.80 3.65,2.04 4.68,0.60 5.72,-0.83 6.76,-1.80 7.81,-2.77 9.83,-3.75 11.85,-4.73 12.97,-4.71 14.09,-4.70 15.44,-4.01 16.79,-3.33 18.29,-1.33 19.79,0.67 20.28,1.69 20.77,2.71 21.14,4.14 21.50,5.57 21.85,7.14 22.21,8.72 22.46,9.35 22.71,9.98 22.74,10.41 22.77,10.85 22.70,11.29 22.62,11.72 22.44,12.13 22.27,12.53 22.00,12.88 21.73,13.23 21.38,13.50 21.04,13.77 20.64,13.96 20.24,14.14 19.81,14.23 19.37,14.31 18.93,14.28 18.49,14.26 18.07,14.13 17.65,14.01 17.27,13.78 16.89,13.56 16.58,13.25 16.27,12.94 16.04,12.56 15.80,12.19 15.67,11.77 15.54,11.35 15.96,9.77 16.39,8.18 17.36,6.25 18.33,4.31 19.12,3.03 19.91,1.75 20.69,0.50 21.47,-0.74 22.40,-1.79 23.34,-2.85 24.45,-3.63 25.57,-4.41 26.99,-4.72 28.41,-5.03 29.86,-4.55 31.30,-4.06 32.17,-3.06 33.03,-2.05 33.61,0.04 34.19,2.14 34.49,4.07 34.78,5.99 35.02,8.19 35.26,10.38 35.43,11.54 35.60,12.70 34.71,13.30 33.81,13.91 34.76,11.88 35.70,9.86 36.30,8.69 36.90,7.52 37.87,5.62 38.85,3.73 38.93,3.53 39.01,3.33 39.15,3.17 39.29,3.01 39.47,2.91 39.66,2.80 39.86,2.76 40.07,2.71 40.28,2.74 40.49,2.77 40.69,2.86 40.88,2.95 41.03,3.10 41.18,3.25 41.28,3.43 41.37,3.62 41.41,3.83 41.44,4.04 41.40,4.25 41.36,4.46 41.26,4.65 41.16,4.83 41.00,4.98 40.85,5.12 40.65,5.21 40.46,5.30 40.25,5.32 40.04,5.34 39.83,5.29 39.62,5.24 39.44,5.13 39.26,5.01 39.13,4.85 38.99,4.69 38.91,4.49 38.84,4.29 38.83,4.08 38.82,3.87 38.88,3.66 38.94,3.46 39.06,3.28 39.18,3.11 39.35,2.98 39.53,2.86 39.73,2.79 39.93,2.73 40.14,2.73 40.36,2.73 40.56,2.80 40.76,2.87 40.92,3.00 41.09,3.14 41.21,3.31 41.32,3.49 41.38,3.70 41.43,3.90 41.42,4.11 41.40,4.33 41.40,4.33 41.40,4.33 41.38,6.65 41.37,8.98 41.08,10.52 40.78,12.06 40.16,13.92 39.54,15.79 38.89,17.05 38.23,18.32 36.75,19.19 35.26,20.06 33.29,19.76 31.32,19.47 30.19,17.68 29.05,15.89 28.78,14.58 28.51,13.26 28.49,11.96 28.48,10.66 28.55,8.77 28.62,6.88 28.39,5.14 28.16,3.39 28.54,2.10 28.92,0.81 27.99,1.65 27.06,2.49 26.38,3.78 25.71,5.07 25.16,6.11 24.62,7.15 23.67,8.56 22.71,9.98 22.74,10.41 22.77,10.85 22.70,11.29 22.62,11.72 22.44,12.12 22.27,12.53 22.00,12.88 21.73,13.23 21.38,13.50 21.04,13.77 20.64,13.96 20.24,14.14 19.81,14.23 19.37,14.31 18.93,14.28 18.49,14.26 18.07,14.13 17.65,14.01 17.27,13.78 16.89,13.56 16.58,13.25 16.27,12.94 16.04,12.56 15.80,12.19 15.67,11.77 15.54,11.35 15.41,10.59 15.29,9.82 15.18,8.35 15.07,6.88 14.76,5.17 14.45,3.45 13.52,2.13 12.60,0.80 11.57,1.69 10.53,2.59 9.92,3.49 9.30,4.39 8.77,5.84 8.24,7.29 7.81,9.05 7.38,10.82 6.88,14.02 6.39,17.23 5.40,16.42 4.42,15.62 2.23,15.57 0.03,15.53 0.34,13.95 0.65,12.37 0.81,11.08 0.97,9.79 0.99,8.03 1.01,6.28 1.13,4.94 1.25,3.60 2.03,2.59 2.80,1.57 1.77,1.47 0.74,1.38 0.57,1.45 0.39,1.52 0.20,1.54 0.01,1.57 -0.16,1.55 -0.35,1.53 -0.53,1.46 -0.71,1.40 -0.87,1.29 -1.02,1.18 -1.15,1.04 -1.28,0.90 -1.37,0.74 -1.46,0.57 -1.51,0.39 -1.55,0.20 -1.56,0.01 -1.56,-0.16 -1.51,-0.35 -1.47,-0.53 -1.39,-0.70 -1.30,-0.87 -1.18,-1.02 -1.05,-1.16 -0.90,-1.27 -0.74,-1.38 -0.74,-1.38 L -0.74,-1.38 Z"/></g><g transform="translate(92.69596099853516 152.9388198852539) rotate(0 6.8996734619140625 5.624580383300781)" stroke="none"><path fill="#000000" d="M 1.41,-0.06 Q 1.41,-0.06 2.29,2.26 3.18,4.60 3.57,6.49 3.96,8.38 4.60,9.30 5.25,10.23 6.03,9.14 6.82,8.05 7.45,7.13 8.08,6.21 8.59,5.11 9.09,4.01 9.42,2.69 9.75,1.37 8.65,1.19 7.55,1.02 6.14,1.03 4.72,1.04 3.98,0.15 3.24,-0.72 5.80,-0.38 8.35,-0.04 8.56,-0.01 8.77,0.01 8.96,0.10 9.15,0.19 9.30,0.34 9.45,0.49 9.55,0.68 9.65,0.87 9.67,1.08 9.70,1.29 9.67,1.50 9.63,1.71 9.52,1.90 9.42,2.08 9.26,2.22 9.10,2.37 8.91,2.45 8.71,2.54 8.50,2.55 8.29,2.57 8.08,2.52 7.88,2.47 7.70,2.36 7.52,2.24 7.38,2.08 7.25,1.91 7.18,1.71 7.10,1.51 7.10,1.30 7.09,1.09 7.15,0.89 7.21,0.68 7.34,0.51 7.46,0.34 7.63,0.21 7.80,0.09 8.01,0.02 8.21,-0.03 8.42,-0.02 8.63,-0.02 8.83,0.04 9.03,0.12 9.20,0.25 9.37,0.38 9.48,0.56 9.60,0.74 9.65,0.94 9.70,1.15 9.68,1.36 9.67,1.57 9.58,1.77 9.50,1.97 9.36,2.12 9.22,2.28 9.03,2.39 8.85,2.49 8.64,2.53 8.43,2.57 8.43,2.57 8.43,2.57 4.32,2.83 0.20,3.09 -0.66,2.06 -1.53,1.02 -1.66,-0.73 -1.80,-2.49 -0.01,-3.93 1.77,-5.37 2.94,-5.73 4.11,-6.08 5.49,-6.17 6.86,-6.26 8.14,-6.10 9.43,-5.95 11.22,-5.35 13.01,-4.74 13.95,-4.01 14.89,-3.27 15.81,-1.86 16.74,-0.45 16.95,0.80 17.15,2.06 16.98,3.48 16.81,4.89 16.38,6.10 15.96,7.31 15.14,8.95 14.33,10.58 13.49,11.76 12.65,12.94 10.98,14.62 9.31,16.30 7.50,16.87 5.69,17.43 3.60,17.01 1.50,16.58 0.53,15.78 -0.44,14.98 -1.37,13.48 -2.30,11.99 -2.51,10.51 -2.73,9.04 -2.72,6.96 -2.72,4.88 -2.06,2.47 -1.41,0.06 -1.40,-0.10 -1.38,-0.27 -1.33,-0.43 -1.28,-0.59 -1.19,-0.74 -1.10,-0.88 -0.98,-1.00 -0.85,-1.12 -0.71,-1.21 -0.56,-1.29 -0.40,-1.34 -0.23,-1.39 -0.06,-1.40 0.10,-1.41 0.26,-1.37 0.43,-1.34 0.59,-1.27 0.74,-1.20 0.87,-1.09 1.01,-0.98 1.11,-0.85 1.21,-0.71 1.28,-0.56 1.35,-0.40 1.38,-0.23 1.41,-0.06 1.41,-0.06 L 1.41,-0.06 Z"/></g><g transform="translate(111.49503326416016 137.59003448486328) rotate(0 10.199508666992188 -2.6747894287109375)" stroke="none"><path fill="#000000" d="M -0.22,-1.51 Q -0.22,-1.51 1.21,-2.64 2.64,-3.77 4.22,-4.04 5.80,-4.30 7.38,-4.56 8.97,-4.82 10.02,-5.02 11.06,-5.22 12.80,-5.62 14.53,-6.02 16.68,-5.64 18.83,-5.26 18.87,-5.47 18.91,-5.68 19.01,-5.87 19.12,-6.05 19.28,-6.19 19.44,-6.33 19.63,-6.42 19.83,-6.50 20.04,-6.51 20.25,-6.53 20.46,-6.48 20.66,-6.43 20.84,-6.31 21.02,-6.20 21.15,-6.03 21.29,-5.86 21.36,-5.66 21.43,-5.46 21.44,-5.25 21.44,-5.04 21.38,-4.84 21.31,-4.63 21.19,-4.46 21.06,-4.29 20.89,-4.17 20.72,-4.04 20.51,-3.98 20.31,-3.92 20.10,-3.93 19.89,-3.93 19.69,-4.01 19.49,-4.08 19.32,-4.22 19.16,-4.35 19.04,-4.53 18.93,-4.71 18.88,-4.92 18.83,-5.12 18.85,-5.33 18.87,-5.55 18.95,-5.74 19.04,-5.93 19.18,-6.09 19.32,-6.25 19.51,-6.35 19.69,-6.46 19.90,-6.50 20.11,-6.54 20.32,-6.51 20.53,-6.48 20.72,-6.38 20.91,-6.29 21.06,-6.13 21.21,-5.98 21.30,-5.79 21.40,-5.60 21.43,-5.39 21.45,-5.18 21.45,-5.18 21.45,-5.18 19.74,-2.58 18.03,0.02 16.41,0.61 14.78,1.21 13.56,1.51 12.34,1.81 11.17,2.02 9.99,2.22 8.31,2.43 6.63,2.65 5.12,2.75 3.62,2.85 1.92,2.18 0.22,1.51 0.03,1.52 -0.14,1.52 -0.32,1.48 -0.50,1.44 -0.67,1.36 -0.83,1.28 -0.98,1.16 -1.12,1.04 -1.23,0.89 -1.33,0.74 -1.40,0.57 -1.47,0.40 -1.50,0.22 -1.53,0.03 -1.51,-0.14 -1.49,-0.32 -1.43,-0.50 -1.37,-0.67 -1.27,-0.83 -1.17,-0.98 -1.03,-1.11 -0.90,-1.23 -0.74,-1.32 -0.57,-1.41 -0.40,-1.46 -0.22,-1.51 -0.22,-1.51 L -0.22,-1.51 Z"/></g><g transform="translate(125.54434967041016 121.34130096435547) rotate(0 0.89996337890625 16.623695373535156)" stroke="none"><path fill="#000000" d="M 1.64,-0.08 Q 1.64,-0.08 2.53,9.44 3.41,18.98 3.10,23.07 2.78,27.17 2.76,27.38 2.74,27.59 2.65,27.78 2.56,27.97 2.41,28.13 2.26,28.28 2.08,28.38 1.89,28.48 1.68,28.52 1.47,28.55 1.26,28.52 1.05,28.48 0.86,28.38 0.67,28.28 0.53,28.13 0.38,27.97 0.29,27.78 0.20,27.59 0.18,27.38 0.16,27.17 0.20,26.96 0.25,26.75 0.36,26.57 0.47,26.39 0.63,26.25 0.79,26.11 0.99,26.03 1.19,25.95 1.40,25.94 1.61,25.93 1.82,25.99 2.02,26.05 2.20,26.16 2.37,26.28 2.50,26.45 2.63,26.62 2.70,26.82 2.77,27.02 2.77,27.24 2.77,27.45 2.70,27.65 2.63,27.85 2.50,28.02 2.37,28.19 2.20,28.31 2.02,28.43 1.82,28.49 1.61,28.54 1.40,28.53 1.19,28.52 0.99,28.44 0.79,28.36 0.63,28.22 0.47,28.09 0.36,27.90 0.25,27.72 0.20,27.52 0.16,27.31 0.16,27.31 0.16,27.31 -0.59,23.27 -1.34,19.24 -1.49,9.66 -1.64,0.08 -1.63,-0.10 -1.61,-0.30 -1.55,-0.49 -1.49,-0.68 -1.39,-0.85 -1.29,-1.02 -1.14,-1.16 -1.00,-1.30 -0.83,-1.40 -0.66,-1.50 -0.47,-1.56 -0.28,-1.62 -0.08,-1.63 0.11,-1.64 0.30,-1.60 0.50,-1.57 0.68,-1.48 0.86,-1.40 1.01,-1.28 1.17,-1.15 1.29,-1.00 1.41,-0.84 1.49,-0.66 1.57,-0.48 1.61,-0.28 1.64,-0.08 1.64,-0.08 L 1.64,-0.08 Z"/></g><g transform="translate(136.39383697509766 137.93999481201172) rotate(0 1.59991455078125 9.099296569824219)" stroke="none"><path fill="#000000" d="M 1.34,-0.23 Q 1.34,-0.23 3.34,4.80 5.33,9.84 4.62,12.03 3.91,14.21 3.92,14.42 3.92,14.63 3.86,14.84 3.80,15.04 3.68,15.21 3.55,15.39 3.38,15.51 3.21,15.64 3.01,15.70 2.80,15.76 2.59,15.76 2.38,15.75 2.18,15.68 1.98,15.61 1.81,15.48 1.65,15.34 1.53,15.16 1.42,14.99 1.37,14.78 1.31,14.57 1.33,14.36 1.35,14.15 1.43,13.95 1.51,13.76 1.65,13.60 1.79,13.44 1.98,13.34 2.16,13.23 2.37,13.19 2.58,13.15 2.79,13.18 3.00,13.20 3.19,13.30 3.38,13.39 3.53,13.54 3.68,13.69 3.78,13.88 3.88,14.07 3.90,14.28 3.93,14.49 3.90,14.70 3.86,14.91 3.75,15.09 3.65,15.28 3.49,15.42 3.33,15.57 3.14,15.65 2.94,15.73 2.73,15.75 2.52,15.77 2.31,15.72 2.11,15.67 1.93,15.56 1.75,15.44 1.61,15.28 1.48,15.11 1.41,14.91 1.33,14.71 1.33,14.71 1.33,14.71 -0.16,12.89 -1.65,11.07 -1.50,5.65 -1.34,0.23 -1.35,0.07 -1.36,-0.09 -1.33,-0.25 -1.29,-0.41 -1.23,-0.56 -1.16,-0.71 -1.06,-0.84 -0.95,-0.97 -0.82,-1.07 -0.69,-1.17 -0.54,-1.23 -0.39,-1.30 -0.23,-1.33 -0.07,-1.36 0.09,-1.35 0.25,-1.34 0.41,-1.29 0.56,-1.24 0.70,-1.15 0.84,-1.06 0.96,-0.95 1.08,-0.83 1.16,-0.69 1.24,-0.55 1.29,-0.39 1.34,-0.23 1.34,-0.23 L 1.34,-0.23 Z"/></g><g transform="translate(125.54434967041016 128.9906997680664) rotate(0 1.2249374389648438 19.6734619140625)" stroke="none"><path fill="#000000" d="M 1.87,-0.08 Q 1.87,-0.08 2.58,2.52 3.30,5.12 3.54,7.64 3.78,10.16 3.89,12.94 3.99,15.73 4.09,17.92 4.18,20.11 4.16,22.65 4.14,25.19 4.14,26.91 4.13,28.63 4.22,30.35 4.30,32.07 4.35,33.23 4.40,34.38 4.50,35.95 4.59,37.51 4.54,37.87 4.50,38.23 4.57,38.69 4.64,39.14 4.60,39.60 4.56,40.06 4.41,40.49 4.26,40.92 4.01,41.31 3.76,41.70 3.43,42.01 3.10,42.33 2.70,42.56 2.30,42.78 1.86,42.91 1.42,43.03 0.96,43.05 0.50,43.06 0.05,42.97 -0.39,42.87 -0.80,42.67 -1.22,42.47 -1.57,42.18 -1.93,41.89 -2.20,41.52 -2.47,41.15 -2.65,40.73 -2.83,40.30 -2.69,39.09 -2.56,37.87 -0.76,35.40 1.03,32.94 1.13,32.74 1.22,32.55 1.37,32.40 1.51,32.25 1.70,32.15 1.89,32.06 2.10,32.02 2.31,31.99 2.52,32.03 2.73,32.07 2.92,32.17 3.10,32.27 3.25,32.43 3.39,32.59 3.48,32.78 3.56,32.97 3.58,33.19 3.60,33.40 3.55,33.60 3.51,33.81 3.39,33.99 3.28,34.17 3.12,34.31 2.95,34.44 2.75,34.52 2.56,34.59 2.34,34.60 2.13,34.61 1.93,34.55 1.72,34.49 1.55,34.37 1.38,34.25 1.25,34.08 1.12,33.90 1.06,33.70 0.99,33.50 1.00,33.29 1.00,33.07 1.07,32.87 1.14,32.67 1.27,32.51 1.41,32.34 1.58,32.22 1.76,32.11 1.97,32.05 2.17,32.00 2.38,32.01 2.60,32.03 2.79,32.11 2.99,32.19 3.15,32.33 3.31,32.47 3.41,32.66 3.52,32.84 3.56,33.05 3.61,33.26 3.58,33.47 3.55,33.68 3.55,33.68 3.55,33.68 4.02,35.95 4.50,38.23 4.57,38.69 4.64,39.14 4.60,39.60 4.56,40.05 4.41,40.49 4.26,40.92 4.01,41.31 3.76,41.70 3.43,42.01 3.10,42.33 2.70,42.56 2.30,42.78 1.86,42.91 1.42,43.03 0.96,43.05 0.50,43.06 0.05,42.97 -0.39,42.87 -0.80,42.67 -1.22,42.47 -1.57,42.18 -1.92,41.89 -2.20,41.52 -2.47,41.15 -2.65,40.73 -2.83,40.30 -2.95,39.84 -3.08,39.38 -3.19,38.13 -3.31,36.87 -3.37,35.79 -3.44,34.70 -3.48,33.55 -3.53,32.40 -3.59,30.46 -3.66,28.52 -3.61,26.76 -3.57,25.01 -3.47,22.56 -3.37,20.10 -3.28,17.91 -3.18,15.72 -3.07,13.06 -2.95,10.40 -2.90,7.90 -2.84,5.39 -2.35,2.73 -1.87,0.08 -1.85,-0.14 -1.83,-0.36 -1.76,-0.58 -1.69,-0.79 -1.57,-0.98 -1.45,-1.18 -1.29,-1.33 -1.13,-1.49 -0.93,-1.60 -0.74,-1.72 -0.52,-1.78 -0.30,-1.84 -0.08,-1.85 0.14,-1.86 0.36,-1.82 0.58,-1.77 0.79,-1.68 0.99,-1.58 1.17,-1.44 1.34,-1.30 1.48,-1.12 1.61,-0.94 1.70,-0.73 1.79,-0.52 1.83,-0.30 1.87,-0.08 1.87,-0.08 L 1.87,-0.08 Z"/></g><g transform="translate(137.14379119873047 145.8893814086914) rotate(0 1.72491455078125 5.6245574951171875)" stroke="none"><path fill="#000000" d="M 1.36,-0.57 Q 1.36,-0.57 2.78,0.40 4.19,1.38 4.65,2.55 5.11,3.71 5.63,5.38 6.15,7.04 6.30,8.52 6.45,10.00 6.35,10.19 6.24,10.38 6.29,10.82 6.33,11.26 6.26,11.70 6.20,12.15 6.03,12.56 5.86,12.97 5.60,13.33 5.34,13.69 5.00,13.98 4.66,14.26 4.26,14.46 3.86,14.66 3.43,14.76 2.99,14.85 2.55,14.84 2.10,14.83 1.67,14.71 1.24,14.60 0.85,14.38 0.46,14.16 0.14,13.86 -0.18,13.56 -0.42,13.18 -0.67,12.81 -0.81,12.39 -0.96,11.97 -0.55,10.53 -0.15,9.10 0.01,6.42 0.18,3.73 0.13,3.53 0.07,3.32 0.09,3.11 0.11,2.90 0.19,2.70 0.28,2.51 0.42,2.35 0.56,2.19 0.74,2.09 0.93,1.98 1.14,1.94 1.35,1.90 1.56,1.93 1.77,1.96 1.96,2.05 2.15,2.15 2.30,2.30 2.45,2.45 2.54,2.64 2.64,2.83 2.67,3.04 2.70,3.25 2.66,3.46 2.62,3.67 2.51,3.85 2.41,4.04 2.25,4.18 2.09,4.32 1.90,4.40 1.70,4.49 1.49,4.51 1.28,4.52 1.07,4.47 0.86,4.42 0.69,4.31 0.51,4.19 0.37,4.03 0.24,3.86 0.17,3.66 0.09,3.46 0.09,3.25 0.08,3.04 0.14,2.83 0.21,2.63 0.33,2.46 0.45,2.29 0.63,2.16 0.80,2.04 1.00,1.97 1.20,1.91 1.42,1.92 1.63,1.92 1.83,2.00 2.03,2.07 2.19,2.20 2.36,2.34 2.47,2.51 2.59,2.69 2.59,2.69 2.59,2.69 4.01,5.08 5.43,7.46 5.84,8.92 6.24,10.38 6.29,10.82 6.33,11.26 6.26,11.70 6.20,12.14 6.03,12.56 5.86,12.97 5.60,13.33 5.34,13.69 5.00,13.98 4.66,14.26 4.26,14.46 3.86,14.66 3.43,14.76 2.99,14.85 2.55,14.84 2.10,14.83 1.67,14.71 1.24,14.60 0.85,14.38 0.46,14.16 0.14,13.86 -0.18,13.56 -0.42,13.18 -0.67,12.81 -0.81,12.39 -0.96,11.97 -0.98,11.97 -1.00,11.97 -1.06,10.68 -1.12,9.40 -1.24,8.28 -1.36,7.17 -1.66,5.56 -1.95,3.96 -1.66,2.26 -1.36,0.57 -1.41,0.40 -1.46,0.22 -1.47,0.05 -1.47,-0.12 -1.44,-0.30 -1.40,-0.47 -1.32,-0.63 -1.24,-0.79 -1.13,-0.93 -1.02,-1.07 -0.87,-1.18 -0.73,-1.28 -0.56,-1.35 -0.40,-1.42 -0.22,-1.45 -0.05,-1.48 0.12,-1.46 0.30,-1.45 0.47,-1.39 0.64,-1.33 0.79,-1.23 0.94,-1.14 1.06,-1.01 1.19,-0.88 1.27,-0.72 1.36,-0.57 1.36,-0.57 L 1.36,-0.57 Z"/></g><g transform="translate(138.09374237060547 129.9906234741211) rotate(0 0.0749969482421875 0.42496490478515625)" stroke="none"><path fill="#000000" d="M 1.15,-0.71 Q 1.15,-0.71 1.24,-0.52 1.33,-0.33 1.40,-0.19 1.46,-0.05 1.49,0.10 1.52,0.25 1.52,0.41 1.51,0.57 1.46,0.72 1.42,0.87 1.34,1.01 1.26,1.15 1.15,1.26 1.04,1.37 0.90,1.46 0.77,1.54 0.62,1.59 0.47,1.64 0.31,1.65 0.15,1.66 -0.00,1.63 -0.15,1.61 -0.30,1.54 -0.44,1.48 -0.57,1.38 -0.69,1.29 -0.79,1.17 -0.89,1.04 -0.97,0.85 -1.05,0.65 -1.07,0.44 -1.08,0.23 -1.03,0.02 -0.97,-0.18 -0.86,-0.35 -0.74,-0.53 -0.57,-0.66 -0.41,-0.79 -0.21,-0.86 -0.01,-0.93 0.20,-0.94 0.41,-0.94 0.61,-0.87 0.81,-0.81 0.98,-0.68 1.16,-0.56 1.28,-0.38 1.40,-0.21 1.46,-0.00 1.52,0.19 1.51,0.40 1.50,0.61 1.43,0.81 1.35,1.01 1.21,1.17 1.08,1.34 0.90,1.45 0.72,1.56 0.51,1.61 0.30,1.66 0.09,1.64 -0.11,1.62 -0.30,1.53 -0.50,1.45 -0.65,1.30 -0.81,1.16 -0.91,0.97 -1.01,0.79 -1.05,0.58 -1.09,0.37 -1.06,0.16 -1.03,-0.04 -0.93,-0.23 -0.83,-0.42 -0.68,-0.57 -0.53,-0.72 -0.34,-0.81 -0.14,-0.90 0.06,-0.93 0.27,-0.95 0.48,-0.91 0.68,-0.87 0.87,-0.76 1.05,-0.65 1.19,-0.49 1.33,-0.33 1.33,-0.33 1.33,-0.33 1.40,-0.19 1.46,-0.05 1.49,0.10 1.52,0.25 1.52,0.41 1.51,0.57 1.46,0.72 1.42,0.87 1.34,1.01 1.26,1.15 1.15,1.26 1.04,1.37 0.90,1.46 0.77,1.54 0.62,1.59 0.47,1.64 0.31,1.65 0.15,1.66 0.00,1.63 -0.15,1.61 -0.30,1.54 -0.44,1.48 -0.57,1.39 -0.69,1.29 -0.79,1.17 -0.89,1.04 -1.02,0.88 -1.15,0.71 -1.22,0.56 -1.29,0.41 -1.32,0.25 -1.35,0.09 -1.34,-0.06 -1.34,-0.22 -1.29,-0.38 -1.24,-0.54 -1.16,-0.68 -1.08,-0.82 -0.96,-0.94 -0.85,-1.06 -0.71,-1.14 -0.57,-1.23 -0.41,-1.28 -0.26,-1.33 -0.09,-1.34 0.06,-1.35 0.22,-1.33 0.38,-1.30 0.53,-1.23 0.68,-1.17 0.81,-1.07 0.95,-0.97 1.05,-0.84 1.15,-0.71 1.15,-0.71 L 1.15,-0.71 Z"/></g><g transform="translate(158.84273529052734 138.4899673461914) rotate(0 -0.15000152587890625 8.074363708496094)" stroke="none"><path fill="#000000" d="M 0.48,1.43 Q 0.48,1.43 -0.01,2.53 -0.50,3.64 -0.95,5.39 -1.39,7.14 -1.67,9.02 -1.94,10.90 -1.76,12.23 -1.58,13.56 -0.76,12.30 0.04,11.05 0.80,9.85 1.56,8.65 0.29,7.64 -0.98,6.64 -1.83,5.99 -2.69,5.34 -3.98,4.65 -5.28,3.95 -3.63,1.44 -1.98,-1.06 -2.05,-0.99 -2.11,-0.92 -1.90,-0.92 -1.69,-0.93 -1.49,-0.87 -1.28,-0.81 -1.11,-0.68 -0.94,-0.56 -0.81,-0.39 -0.69,-0.22 -0.62,-0.01 -0.56,0.18 -0.56,0.39 -0.57,0.60 -0.64,0.80 -0.71,1.00 -0.85,1.17 -0.98,1.34 -1.16,1.45 -1.34,1.57 -1.54,1.62 -1.75,1.67 -1.96,1.65 -2.17,1.64 -2.37,1.56 -2.56,1.47 -2.72,1.33 -2.88,1.19 -2.99,1.01 -3.09,0.82 -3.13,0.61 -3.17,0.40 -3.15,0.19 -3.12,-0.01 -3.02,-0.20 -2.93,-0.39 -2.78,-0.54 -2.63,-0.69 -2.44,-0.79 -2.25,-0.88 -2.04,-0.91 -1.83,-0.94 -1.62,-0.90 -1.41,-0.86 -1.23,-0.76 -1.04,-0.66 -0.90,-0.50 -0.76,-0.34 -0.67,-0.15 -0.59,0.04 -0.57,0.25 -0.55,0.46 -0.60,0.67 -0.65,0.88 -0.76,1.06 -0.88,1.23 -1.04,1.37 -1.21,1.50 -1.41,1.58 -1.61,1.65 -1.61,1.65 -1.61,1.65 -4.90,1.60 -8.19,1.55 -5.73,-0.76 -3.26,-3.08 -1.91,-2.52 -0.56,-1.96 0.62,-1.27 1.80,-0.58 2.78,0.16 3.77,0.91 5.16,2.17 6.55,3.43 7.30,4.72 8.04,6.02 8.36,8.17 8.67,10.32 8.32,11.51 7.97,12.70 7.22,14.05 6.47,15.39 5.59,16.29 4.71,17.19 2.99,18.33 1.28,19.48 -0.11,19.80 -1.51,20.13 -3.45,19.80 -5.40,19.48 -6.57,18.52 -7.74,17.56 -8.47,15.27 -9.19,12.98 -9.22,11.49 -9.24,10.01 -9.07,8.70 -8.89,7.40 -8.48,5.83 -8.07,4.26 -7.43,2.94 -6.79,1.62 -5.18,-0.31 -3.57,-2.26 -2.02,-1.84 -0.48,-1.43 -0.30,-1.47 -0.12,-1.51 0.05,-1.50 0.23,-1.50 0.41,-1.44 0.59,-1.39 0.74,-1.30 0.90,-1.21 1.04,-1.09 1.17,-0.96 1.27,-0.81 1.36,-0.65 1.42,-0.48 1.48,-0.30 1.50,-0.12 1.51,0.05 1.48,0.23 1.46,0.41 1.38,0.58 1.31,0.75 1.20,0.90 1.09,1.04 0.95,1.16 0.81,1.28 0.65,1.35 0.48,1.43 0.48,1.43 L 0.48,1.43 Z"/></g><g transform="translate(170.44219207763672 137.59003448486328) rotate(0 11.149444580078125 10.324180603027344)" stroke="none"><path fill="#000000" d="M 1.39,0 Q 1.39,0 2.57,1.52 3.76,3.04 3.79,4.67 3.82,6.29 4.02,8.07 4.23,9.84 4.53,10.80 4.84,11.76 4.94,12.23 5.04,12.69 5.02,13.16 5.01,13.64 4.88,14.09 4.76,14.55 4.52,14.96 4.29,15.38 3.97,15.72 3.64,16.07 3.24,16.33 2.85,16.58 2.40,16.74 1.95,16.89 1.48,16.94 1.01,16.98 0.54,16.91 0.07,16.84 -0.36,16.66 -0.80,16.48 -1.18,16.20 -1.56,15.91 -1.86,15.55 -2.17,15.19 -2.38,14.76 -2.58,14.34 -1.54,11.94 -0.49,9.55 -0.16,8.01 0.16,6.47 0.72,4.89 1.29,3.30 2.06,1.66 2.82,0.02 3.57,-1.08 4.31,-2.20 5.40,-3.11 6.49,-4.03 7.92,-4.53 9.35,-5.04 11.24,-4.69 13.14,-4.33 14.43,-3.22 15.71,-2.11 16.94,0.06 18.17,2.24 19.01,4.07 19.86,5.89 20.70,7.66 21.54,9.43 22.15,10.90 22.76,12.37 23.30,13.85 23.83,15.33 23.56,18.82 23.28,22.31 23.32,22.46 23.37,22.61 23.37,22.77 23.37,22.93 23.34,23.08 23.31,23.24 23.24,23.38 23.17,23.52 23.06,23.64 22.96,23.76 22.83,23.86 22.71,23.95 22.56,24.01 22.41,24.07 22.26,24.09 22.10,24.12 21.94,24.10 21.79,24.09 21.64,24.03 21.49,23.98 21.35,23.89 21.22,23.81 21.11,23.69 21.01,23.58 20.93,23.44 20.85,23.30 21.04,23.55 21.22,23.81 21.08,23.65 20.95,23.49 20.87,23.29 20.79,23.09 20.77,22.88 20.76,22.67 20.82,22.46 20.87,22.26 20.99,22.08 21.11,21.91 21.28,21.78 21.44,21.65 21.65,21.58 21.85,21.51 22.06,21.51 22.27,21.51 22.47,21.57 22.68,21.64 22.85,21.77 23.02,21.89 23.14,22.07 23.26,22.24 23.31,22.45 23.37,22.65 23.36,22.86 23.35,23.08 23.27,23.27 23.20,23.47 23.06,23.64 22.92,23.80 22.74,23.91 22.56,24.02 22.35,24.07 22.15,24.11 21.93,24.09 21.72,24.07 21.53,23.98 21.34,23.89 21.18,23.75 21.03,23.60 20.93,23.42 20.83,23.23 20.79,23.02 20.75,22.81 20.79,22.60 20.82,22.39 20.92,22.20 21.02,22.01 21.17,21.87 21.32,21.72 21.52,21.63 21.71,21.54 21.92,21.51 22.13,21.49 22.34,21.54 22.55,21.58 22.91,21.94 23.28,22.31 23.32,22.46 23.37,22.61 23.37,22.77 23.37,22.93 23.34,23.08 23.31,23.24 23.24,23.38 23.17,23.52 23.06,23.64 22.96,23.76 22.83,23.86 22.71,23.95 22.56,24.01 22.41,24.07 22.26,24.09 22.10,24.12 21.94,24.10 21.79,24.09 21.64,24.03 21.49,23.98 21.35,23.89 21.22,23.81 21.11,23.69 21.01,23.58 20.93,23.44 20.85,23.30 19.00,21.64 17.16,19.99 16.75,18.98 16.34,17.96 15.86,16.54 15.37,15.11 14.92,13.73 14.47,12.35 13.78,10.40 13.08,8.44 12.61,6.78 12.14,5.11 11.55,3.09 10.97,1.07 10.36,2.10 9.76,3.14 9.18,4.52 8.59,5.90 8.00,7.57 7.41,9.25 6.67,11.17 5.93,13.09 4.93,14.47 3.92,15.85 4.38,13.81 4.84,11.76 4.94,12.23 5.04,12.69 5.02,13.16 5.01,13.64 4.88,14.09 4.76,14.55 4.52,14.96 4.29,15.38 3.97,15.72 3.64,16.07 3.24,16.33 2.85,16.58 2.40,16.74 1.95,16.89 1.48,16.94 1.01,16.98 0.54,16.91 0.07,16.84 -0.36,16.66 -0.80,16.48 -1.18,16.20 -1.56,15.92 -1.86,15.55 -2.17,15.19 -2.38,14.76 -2.58,14.34 -2.70,14.04 -2.83,13.74 -3.16,12.30 -3.50,10.87 -3.63,9.78 -3.76,8.68 -3.79,7.49 -3.82,6.29 -3.79,4.67 -3.76,3.04 -2.57,1.52 -1.39,0 -1.37,-0.16 -1.35,-0.33 -1.29,-0.49 -1.23,-0.64 -1.14,-0.78 -1.04,-0.92 -0.92,-1.03 -0.79,-1.15 -0.64,-1.22 -0.49,-1.30 -0.33,-1.34 -0.16,-1.38 0.00,-1.38 0.16,-1.38 0.33,-1.34 0.49,-1.30 0.64,-1.22 0.79,-1.15 0.92,-1.03 1.04,-0.92 1.14,-0.78 1.23,-0.64 1.29,-0.49 1.35,-0.33 1.37,-0.16 1.39,0.00 1.39,0.00 L 1.39,0 Z"/></g></svg>