<svg version="1.1" xmlns="http://www.w3.org/2000/svg" viewBox="0 0 148.571533203125 272" width="148.571533203125" height="272">
  <!-- svg-source:excalidraw -->
  
  <defs>
    <style class="style-fonts">
      @font-face {
        font-family: "Virgil";
        src: url("https://excalidraw.com/Virgil.woff2");
      }
      @font-face {
        font-family: "Cascadia";
        src: url("https://excalidraw.com/Cascadia.woff2");
      }
    </style>
  </defs>
  <rect x="0" y="0" width="148.571533203125" height="272" fill="#ffffff"/><g transform="translate(10 10) rotate(0 64.2857666015625 126)" stroke="none"><path fill="#0b7285" d="M 1.29,-0.86 Q 1.29,-0.86 2.91,1.61 4.52,4.09 7.81,8.58 11.10,13.06 20.75,29.17 30.40,45.27 45.98,71.98 61.57,98.69 75.92,126.00 90.28,153.32 100.83,179.27 111.39,205.22 116.02,216.55 120.66,227.88 122.79,233.19 124.93,238.51 126.33,242.08 127.73,245.66 128.70,248.04 129.67,250.42 129.71,250.67 129.76,250.91 129.72,251.16 129.68,251.42 129.57,251.64 129.45,251.87 129.27,252.04 129.09,252.22 128.86,252.33 128.63,252.44 128.38,252.47 128.13,252.50 127.88,252.45 127.64,252.40 127.42,252.27 127.20,252.15 127.03,251.96 126.87,251.76 126.77,251.53 126.67,251.30 126.65,251.05 126.64,250.79 126.70,250.55 126.76,250.30 126.90,250.09 127.04,249.88 127.24,249.72 127.44,249.57 127.68,249.48 127.92,249.40 128.17,249.40 128.42,249.39 128.66,249.47 128.90,249.55 129.11,249.70 129.31,249.85 129.46,250.05 129.60,250.26 129.67,250.50 129.74,250.75 129.73,251.00 129.72,251.25 129.63,251.49 129.54,251.72 129.38,251.92 129.22,252.11 129.01,252.25 128.79,252.38 128.55,252.44 128.30,252.50 128.05,252.47 127.80,252.45 127.57,252.35 127.33,252.25 127.15,252.07 126.96,251.90 126.84,251.68 126.72,251.46 126.72,251.46 126.72,251.46 125.99,249.05 125.26,246.63 123.86,243.07 122.46,239.50 120.32,234.20 118.18,228.90 113.53,217.57 108.89,206.24 98.38,180.41 87.86,154.59 73.52,127.34 59.18,100.09 43.58,73.40 27.98,46.72 18.38,30.75 8.77,14.78 5.40,10.26 2.04,5.75 0.37,3.31 -1.29,0.86 -1.38,0.69 -1.46,0.53 -1.51,0.34 -1.55,0.16 -1.55,-0.02 -1.54,-0.21 -1.49,-0.39 -1.45,-0.57 -1.36,-0.74 -1.27,-0.90 -1.14,-1.04 -1.01,-1.18 -0.86,-1.29 -0.70,-1.39 -0.52,-1.45 -0.34,-1.52 -0.16,-1.54 0.02,-1.56 0.21,-1.53 0.39,-1.51 0.57,-1.44 0.74,-1.37 0.90,-1.26 1.05,-1.15 1.17,-1.00 1.29,-0.86 1.29,-0.86 L 1.29,-0.86 Z"/></g></svg>